<svg xmlns="http://www.w3.org/2000/svg" width="150" height="150" viewBox="0 0 150 150" fill="none">
  <g clip-path="url(#clip0_643_5983)">
    <g opacity="0.25">
      <path d="M11.031 62.0059C9.492 65.6749 9.732 69.1699 10.5285 77.8744C10.704 79.7974 10.9095 81.7024 11.1435 83.5774L10.752 83.6104C9.2175 83.7394 8.148 85.1914 8.478 86.6974L8.559 87.0709C3.456 84.7189 0 80.1964 0 75.0019C0 71.1949 1.8585 67.7464 4.86 65.2519C6.5835 63.8179 8.6865 62.6989 11.031 62.0059Z" fill="#CCD2D6"/>
      <path d="M113.901 102.576C113.901 110.192 121.327 116.364 130.491 116.364H133.411C142.572 116.364 150 122.537 150 130.152C150 133.959 148.141 137.406 145.14 139.901C142.14 142.397 137.991 143.939 133.411 143.939H16.5885C7.428 143.939 0 137.766 0 130.152C0 126.345 1.8585 122.898 4.86 120.404C7.5135 118.197 11.064 116.735 15.015 116.426L17.6355 128.346C17.9025 129.57 19.0215 130.415 20.2725 130.343L86.2845 126.402C87.9735 126.303 89.0955 124.614 88.5375 123.017L88.092 121.745H88.851C89.3205 121.745 89.652 121.284 89.508 120.839L84.8565 106.623C84.6765 106.074 83.9445 105.974 83.6265 106.454L83.0445 107.322L73.569 80.247C73.1835 79.149 72.108 78.4515 70.9515 78.5505L58.8735 79.5645L54.4935 78.438C54.0315 78.321 53.784 77.8215 53.967 77.382L59.601 63.8895C59.829 63.3435 59.3895 62.751 58.7985 62.814L28.281 66.0345C27.915 64.359 27.5925 62.742 27.315 61.212H38.841C43.422 61.212 47.5665 59.6685 50.5695 57.1725C52.0395 55.9515 53.2365 54.5025 54.072 52.8915C62.8095 50.4765 69.2265 42.468 69.2265 32.964C69.2265 21.546 59.9685 12.288 48.5505 12.288C37.1325 12.288 27.876 21.546 27.876 32.964C27.876 33.189 27.879 33.4125 27.888 33.6375H16.5885C7.428 33.636 0 27.4635 0 19.848C0 16.041 1.8585 12.5955 4.86 10.101C7.8615 7.60502 12.009 6.06152 16.5885 6.06152H133.413C142.573 6.06152 150.001 12.234 150.001 19.848C150.001 23.655 148.143 27.1035 145.141 29.598C142.141 32.0925 137.992 33.636 133.413 33.636H129.111C124.948 33.636 121.144 34.911 118.231 37.0155L93.2565 29.6655C92.817 29.5365 92.346 29.6955 92.0745 30.0645C90.687 31.962 86.115 38.025 79.2015 45.3105C73.662 51.147 67.7295 54.7605 64.344 56.538C63.423 57.0255 63.6405 58.413 64.671 58.572C68.436 59.157 72.9315 59.169 76.008 59.0745L72.9285 61.035C71.8455 61.725 71.5665 63.183 72.318 64.224L75.9705 69.282L74.649 73.011C74.358 73.8315 75.102 74.646 75.9435 74.424L79.092 73.6065L82.983 78.9915L80.1075 80.3235C79.725 80.5005 79.6365 81.0045 79.935 81.3015L87.4635 88.7775C87.8445 89.1555 88.4955 88.887 88.4955 88.3485V86.6265L96.498 97.7115C97.2345 98.727 98.661 98.9415 99.6585 98.181L144.03 64.407C147.678 66.936 150.001 70.743 150.001 75.0015C150.001 78.8085 148.143 82.2555 145.141 84.75C142.141 87.246 137.992 88.7895 133.413 88.7895H130.492C125.911 88.7895 121.764 90.3315 118.761 92.8275C115.761 95.322 113.902 98.769 113.902 102.576H113.901Z" fill="#CCD2D6"/>
      <path d="M35.3366 48.8607C34.3886 52.8192 30.8246 55.7637 26.5721 55.7637C26.5226 55.7637 26.4761 55.7637 26.4281 55.7622H26.4266C25.9946 52.7592 25.7576 50.4477 25.6436 49.1982C25.5941 48.6567 25.0451 48.3132 24.5381 48.5067C23.3426 48.9627 21.2411 49.9122 18.9911 51.6282C18.0851 50.2227 17.5586 48.5502 17.5586 46.7532C17.5586 41.7747 21.5936 37.7412 26.5706 37.7412C27.2261 37.7412 27.8651 37.8102 28.4801 37.9452C29.5541 42.2877 32.0006 46.0887 35.3351 48.8622L35.3366 48.8607Z" fill="#CCD2D6"/>
    </g>
    <g opacity="0.5">
      <path d="M74.5377 113.495C69.9357 115.892 55.1097 122.866 40.6407 121.591C36.0297 121.183 32.2932 120.454 29.2437 119.266C29.2437 119.266 29.2392 119.264 29.2302 119.261C29.2287 119.261 29.2242 119.26 29.2197 119.257C29.2047 119.251 29.1822 119.242 29.1507 119.228C28.2117 118.838 20.5677 115.33 20.8887 104.855C21.1812 95.3092 32.0577 90.3487 35.1927 89.1127C35.6382 88.9387 35.8332 88.4197 35.6187 87.9907C34.6182 85.9702 33.7107 83.8747 32.8947 81.7477C30.8592 76.4617 29.3652 70.9882 28.2822 66.0352L58.7982 62.8132C59.3892 62.7502 59.8302 63.3442 59.6007 63.8902L53.9667 77.3827C53.7837 77.8222 54.0312 78.3217 54.4932 78.4402L58.8747 79.5667L70.3227 82.5112C70.8852 82.6567 71.0982 83.3422 70.7157 83.7802L59.1297 97.0237C58.7757 97.4302 58.9272 98.0647 59.4282 98.2627L74.5077 104.267C75.1122 104.506 75.1737 105.335 74.6142 105.665L69.4887 108.673C68.9307 108.998 68.9892 109.82 69.5847 110.066L74.4732 112.087C75.0867 112.34 75.1257 113.192 74.5377 113.498V113.495Z" fill="#CCD2D6"/>
    </g>
    <path d="M44.1937 122.193C42.9967 122.193 41.7997 122.144 40.6027 122.039C35.8402 121.617 32.0767 120.849 29.0962 119.69C29.0707 119.682 29.0512 119.673 29.0377 119.667L28.9747 119.642C28.0702 119.265 20.1097 115.64 20.4397 104.841C20.7382 95.0745 31.6822 90.0135 35.0287 88.6935C35.1247 88.656 35.1952 88.584 35.2327 88.4895C35.2702 88.392 35.2642 88.2855 35.2177 88.191C34.2427 86.2245 33.3202 84.111 32.4757 81.909C30.6622 77.1975 29.1037 71.889 27.8437 66.1305L27.7357 65.64L58.7512 62.3655C59.1892 62.319 59.6077 62.502 59.8687 62.856C60.1312 63.2085 60.1852 63.66 60.0157 64.065L54.3817 77.556C54.3307 77.6775 54.3652 77.781 54.3907 77.832C54.4162 77.8815 54.4762 77.9715 54.6037 78.0045L70.4332 82.0755C70.8502 82.1835 71.1757 82.4925 71.3017 82.905C71.4277 83.316 71.3347 83.754 71.0512 84.0765L59.4652 97.3185C59.3932 97.401 59.3662 97.509 59.3932 97.6155C59.4187 97.7205 59.4907 97.803 59.5912 97.8435L74.6722 103.848C75.1102 104.021 75.4072 104.423 75.4447 104.894C75.4822 105.368 75.2512 105.81 74.8417 106.052L69.7147 109.059C69.5542 109.152 69.5467 109.305 69.5512 109.367C69.5557 109.428 69.5842 109.578 69.7537 109.649L74.6437 111.669C75.0922 111.855 75.3832 112.271 75.4042 112.755C75.4252 113.237 75.1717 113.673 74.7442 113.895C70.7977 115.95 57.6832 122.195 44.1922 122.195L44.1937 122.193ZM29.4247 118.853C32.3242 119.979 36.0067 120.729 40.6807 121.142C41.8522 121.245 43.0282 121.293 44.2012 121.293C57.4822 121.293 70.4317 115.125 74.3302 113.096C74.4967 113.009 74.5087 112.854 74.5057 112.793C74.5027 112.73 74.4772 112.574 74.3002 112.5L69.4117 110.481C68.9767 110.303 68.6872 109.899 68.6542 109.43C68.6212 108.96 68.8537 108.521 69.2602 108.284L74.3842 105.276C74.5447 105.182 74.5507 105.027 74.5462 104.964C74.5417 104.903 74.5117 104.753 74.3392 104.685L59.2582 98.6805C58.8892 98.535 58.6117 98.2155 58.5172 97.8285C58.4227 97.44 58.5232 97.0275 58.7872 96.726L70.3732 83.4825C70.4827 83.358 70.4572 83.2215 70.4407 83.169C70.4242 83.1165 70.3687 82.9875 70.2067 82.9455L54.3787 78.8745C54.0337 78.786 53.7427 78.552 53.5837 78.2325C53.4247 77.913 53.4112 77.5395 53.5492 77.2095L59.1832 63.717C59.2492 63.561 59.1772 63.438 59.1442 63.393C59.1097 63.348 59.0137 63.243 58.8427 63.261L28.8262 66.429C30.0562 71.9535 31.5637 77.0505 33.3112 81.585C34.1467 83.7615 35.0572 85.8495 36.0187 87.789C36.1777 88.107 36.1957 88.4805 36.0682 88.812C35.9422 89.1405 35.6812 89.4015 35.3527 89.5305C32.1367 90.798 21.6172 95.6505 21.3352 104.867C21.0232 115.062 28.4707 118.457 29.3197 118.811L29.3767 118.835C29.3962 118.841 29.4112 118.847 29.4202 118.851L29.4247 118.853Z" fill="#CCD2D6"/>
    <g opacity="0.25">
      <path d="M35.1942 89.1121C32.0592 90.3466 21.1827 95.3071 20.8902 104.855C20.5692 115.329 28.2132 118.838 29.1522 119.228C29.1837 119.241 29.2062 119.25 29.2212 119.256C28.7772 119.124 22.4442 117.102 18.2727 109.637C14.6157 103.095 12.4242 93.7891 11.1447 83.5771C10.9107 81.7021 10.7052 79.7986 10.5297 77.8741C9.39268 65.4646 9.39268 63.6436 14.0592 56.8126C17.6262 51.5941 22.4577 49.2991 24.5382 48.5086C25.0467 48.3151 25.5957 48.6586 25.6437 49.2001C25.8672 51.6526 26.5662 58.1956 28.2837 66.0361C29.3667 70.9906 30.8607 76.4626 32.8962 81.7486C32.9892 81.9961 33.0852 82.2406 33.1842 82.4866C33.4092 83.0551 33.6417 83.6236 33.8802 84.1861C33.9807 84.4291 34.0857 84.6706 34.1907 84.9106C34.3047 85.1716 34.4187 85.4296 34.5357 85.6891C34.6497 85.9471 34.7682 86.2066 34.8882 86.4631C35.0067 86.7166 35.1252 86.9686 35.2452 87.2191C35.3682 87.4771 35.4942 87.7366 35.6217 87.9931C35.8362 88.4206 35.6412 88.9411 35.1957 89.1151L35.1942 89.1121Z" fill="#CCD2D6"/>
    </g>
    <path d="M29.0912 119.688C28.8107 119.605 22.1852 117.567 17.8772 109.855C14.5457 103.894 12.1292 95.0729 10.6967 83.6324C10.4642 81.7709 10.2572 79.8464 10.0802 77.9144C8.92816 65.3444 8.96266 63.4724 13.6862 56.5574C17.3582 51.1859 22.3847 48.8429 24.3767 48.0854C24.7517 47.9429 25.1597 47.9819 25.5002 48.1934C25.8392 48.4049 26.0552 48.7559 26.0912 49.1564C26.3147 51.6059 27.0167 58.1444 28.7222 65.9369C29.9717 71.6504 31.5167 76.9154 33.3152 81.5849C33.4082 81.8324 33.5027 82.0739 33.6002 82.3169C33.8402 82.9244 34.0667 83.4764 34.2917 84.0074C34.3907 84.2459 34.4912 84.4784 34.5917 84.7109L34.5992 84.7289C34.7117 84.9869 34.8242 85.2434 34.9412 85.4999C35.0507 85.7489 35.1677 86.0069 35.2907 86.2694C35.4092 86.5229 35.5262 86.7734 35.6447 87.0209C35.7677 87.2804 35.8937 87.5369 36.0197 87.7904C36.1787 88.1084 36.1967 88.4819 36.0692 88.8134C35.9432 89.1419 35.6822 89.4029 35.3552 89.5304C32.1377 90.7994 21.6182 95.6519 21.3362 104.868C21.0242 115.063 28.4717 118.458 29.3207 118.812L29.3942 118.843L29.0882 119.688H29.0912ZM24.8282 48.9029C24.7832 48.9029 24.7382 48.9119 24.6947 48.9284C22.7822 49.6559 17.9552 51.9059 14.4272 57.0659C9.85816 63.7544 9.83116 65.3489 10.9742 77.8319C11.1497 79.7549 11.3567 81.6674 11.5877 83.5199C13.0067 94.8449 15.3872 103.557 18.6617 109.416C20.2142 112.195 22.0712 114.202 23.7977 115.63C21.9137 113.316 20.2832 109.851 20.4362 104.839C20.7347 95.0729 31.6787 90.0119 35.0252 88.6919C35.1197 88.6544 35.1902 88.5824 35.2277 88.4879C35.2652 88.3904 35.2592 88.2839 35.2127 88.1894C35.0837 87.9299 34.9562 87.6689 34.8317 87.4079C34.7117 87.1589 34.5932 86.9054 34.4732 86.6489C34.3472 86.3804 34.2272 86.1164 34.1162 85.8674C33.9992 85.6124 33.8852 85.3514 33.7697 85.0874L33.7622 85.0694C33.6587 84.8324 33.5552 84.5939 33.4562 84.3554C33.2297 83.8229 33.0002 83.2634 32.7587 82.6514C32.6597 82.4054 32.5637 82.1579 32.4692 81.9074C30.6557 77.1974 29.0972 71.8889 27.8372 66.1304C26.1197 58.2869 25.4132 51.7049 25.1897 49.2389C25.1792 49.1219 25.1162 49.0199 25.0187 48.9584C24.9602 48.9224 24.8942 48.9029 24.8267 48.9029H24.8282Z" fill="#CCD2D6"/>
    <g opacity="0.5">
      <path d="M137.058 43.6111C136.676 45.3421 135.713 49.1746 133.8 53.9146C131.862 58.7161 128.954 64.4476 124.692 69.8536C116.717 79.9696 107.984 83.3986 104.745 84.3781C104.079 84.5791 103.397 84.1141 103.346 83.4211L103.079 79.8091C103.032 79.1956 102.485 78.7426 101.871 78.8131L94.1718 79.6921C93.3918 79.7821 92.7783 79.0411 93.0108 78.2926L95.2338 71.1181C95.4858 70.3051 94.7448 69.5311 93.9228 69.7471L79.0878 73.6081L75.9408 74.4271C75.0993 74.6476 74.3538 73.8346 74.6448 73.0141L75.9648 69.2851L79.0983 60.4441C79.3563 59.7151 78.7938 58.9576 78.0213 58.9966C77.4603 59.0266 76.7763 59.0551 76.0038 59.0761C72.9273 59.1691 68.4318 59.1586 64.6668 58.5736C63.6378 58.4131 63.4188 57.0256 64.3398 56.5396C67.7253 54.7621 73.6578 51.1501 79.1973 45.3121C86.1108 38.0266 90.6828 31.9651 92.0703 30.0676C92.3418 29.6986 92.8128 29.5381 93.2523 29.6671L136.302 42.3376C136.851 42.4996 137.18 43.0561 137.057 43.6126L137.058 43.6111Z" fill="#CCD2D6"/>
    </g>
    <path d="M104.424 84.8748C104.116 84.8748 103.815 84.7818 103.554 84.6033C103.168 84.3378 102.928 83.9193 102.894 83.4528L102.627 79.8408C102.613 79.6683 102.532 79.5108 102.397 79.3998C102.262 79.2888 102.093 79.2393 101.919 79.2588L94.2193 80.1378C93.7033 80.1978 93.1948 79.9938 92.8618 79.5933C92.5288 79.1928 92.4238 78.6558 92.5783 78.1593L94.8013 70.9848C94.8703 70.7613 94.8148 70.5273 94.6528 70.3578C94.4908 70.1883 94.2598 70.1223 94.0333 70.1823L76.0513 74.8623C75.5023 75.0063 74.9203 74.8353 74.5348 74.4168C74.1493 73.9968 74.0278 73.4013 74.2183 72.8643L78.6733 60.2943C78.7453 60.0903 78.7123 59.8743 78.5833 59.7003C78.4543 59.5278 78.2593 59.4348 78.0433 59.4468C77.3893 59.4813 76.7068 59.5083 76.0153 59.5278C72.9073 59.6223 68.4028 59.6118 64.5958 59.0208C63.9358 58.9188 63.4378 58.4253 63.3268 57.7638C63.2158 57.0948 63.5293 56.4603 64.1278 56.1438C67.2313 54.5133 73.2733 50.8998 78.8698 45.0048C85.8268 37.6743 90.4528 31.5168 91.7053 29.8038C92.0878 29.2833 92.7598 29.0568 93.3778 29.2368L136.428 41.9073C137.199 42.1353 137.668 42.9273 137.494 43.7118C137.083 45.5673 136.111 49.3833 134.214 54.0873C131.793 60.0873 128.707 65.4858 125.041 70.1358C117.027 80.3028 108.265 83.7858 104.871 84.8118C104.724 84.8568 104.572 84.8778 104.422 84.8778L104.424 84.8748ZM101.995 78.3543C102.351 78.3543 102.691 78.4758 102.97 78.7053C103.296 78.9738 103.492 79.3533 103.524 79.7733L103.791 83.3868C103.804 83.5788 103.905 83.7528 104.064 83.8623C104.224 83.9733 104.424 84.0048 104.611 83.9478C107.925 82.9473 116.479 79.5423 124.335 69.5763C127.947 64.9938 130.99 59.6688 133.378 53.7483C135.252 49.1043 136.21 45.3438 136.615 43.5153C136.687 43.1913 136.492 42.8628 136.173 42.7683L93.1228 30.0993C92.8663 30.0243 92.5888 30.1188 92.4298 30.3348C91.1698 32.0568 86.5138 38.2533 79.5208 45.6228C73.8358 51.6123 67.6978 55.2843 64.5463 56.9388C64.2448 57.0978 64.1773 57.3918 64.2133 57.6138C64.2313 57.7188 64.3198 58.0653 64.7323 58.1298C68.4703 58.7103 72.9163 58.7208 75.9868 58.6263C76.6723 58.6068 77.3473 58.5798 77.9953 58.5468C78.5083 58.5198 78.9958 58.7508 79.3033 59.1618C79.6108 59.5743 79.6918 60.1098 79.5193 60.5943L75.0643 73.1643C74.9833 73.3908 75.0328 73.6308 75.1948 73.8078C75.3568 73.9833 75.5908 74.0523 75.8203 73.9923L93.8023 69.3123C94.3498 69.1698 94.9093 69.3288 95.2993 69.7368C95.6908 70.1463 95.8243 70.7118 95.6563 71.2518L93.4333 78.4263C93.3688 78.6348 93.4108 78.8508 93.5503 79.0203C93.6898 79.1883 93.8953 79.2723 94.1128 79.2453L101.812 78.3663C101.872 78.3588 101.932 78.3558 101.991 78.3558L101.995 78.3543Z" fill="#CCD2D6"/>
    <g opacity="0.5">
      <path d="M86.2845 126.401L20.271 130.34C19.02 130.414 17.901 129.569 17.634 128.345L8.47796 86.6946C8.14796 85.1901 9.21746 83.7381 10.752 83.6091L11.145 83.5761C12.4245 93.7896 14.616 103.094 18.273 109.636C22.4445 117.103 28.7775 119.125 29.2215 119.255C29.226 119.257 29.2305 119.26 29.232 119.26C29.241 119.263 29.2455 119.264 29.2455 119.264C32.295 120.452 36.0315 121.181 40.6425 121.589C55.1115 122.864 69.9375 115.891 74.5395 113.494C75.1275 113.188 75.0885 112.337 74.475 112.082L69.5865 110.062C68.991 109.817 68.9325 108.994 69.4905 108.668L74.616 105.661C75.1755 105.331 75.1125 104.501 74.5095 104.263L59.43 98.2581C58.929 98.0601 58.7775 97.4241 59.1315 97.0191L70.7175 83.7756C71.1015 83.3391 70.887 82.6521 70.3245 82.5066L58.8765 79.5621L70.953 78.5481C72.1095 78.4506 73.185 79.1481 73.5705 80.2446L83.046 107.32L74.1285 120.67C73.8225 121.127 74.151 121.742 74.703 121.742H88.0935L88.539 123.016C89.0985 124.612 87.975 126.299 86.2875 126.4L86.2845 126.401Z" fill="#CCD2D6"/>
    </g>
    <path d="M20.1161 130.795C18.7091 130.795 17.4971 129.829 17.1941 128.442L8.03811 86.7914C7.85361 85.9469 8.04111 85.0634 8.55411 84.3689C9.06711 83.6744 9.85461 83.2334 10.7141 83.1614L11.5376 83.0909L11.5916 83.5199C13.0106 94.8449 15.3911 103.557 18.6656 109.416C22.7966 116.811 29.0831 118.746 29.3486 118.824L29.3921 118.839C29.4071 118.843 29.4176 118.848 29.4251 118.852C32.3246 119.979 36.0071 120.729 40.6811 121.141C55.1231 122.415 70.0871 115.305 74.3306 113.095C74.4986 113.008 74.5106 112.854 74.5076 112.792C74.5046 112.729 74.4791 112.573 74.3021 112.5L69.4136 110.481C68.9786 110.302 68.6891 109.899 68.6561 109.429C68.6231 108.96 68.8556 108.52 69.2621 108.283L74.3861 105.276C74.5466 105.181 74.5526 105.027 74.5481 104.964C74.5436 104.902 74.5136 104.752 74.3411 104.685L59.2601 98.6804C58.8911 98.5349 58.6136 98.2154 58.5191 97.8284C58.4246 97.4399 58.5251 97.0274 58.7891 96.7259L70.3751 83.4824C70.4846 83.3579 70.4591 83.2214 70.4426 83.1689C70.4261 83.1164 70.3706 82.9874 70.2086 82.9454L56.1881 79.3379L70.9121 78.1004C72.2711 77.9864 73.5386 78.8054 73.9916 80.0954L83.5406 107.382L83.4161 107.568L74.4986 120.918C74.4266 121.024 74.4671 121.125 74.4866 121.164C74.5076 121.201 74.5691 121.291 74.6996 121.291H88.4081L88.9601 122.865C89.2736 123.76 89.1521 124.726 88.6271 125.515C88.1021 126.304 87.2576 126.79 86.3111 126.847L20.2976 130.786C20.2361 130.789 20.1761 130.792 20.1161 130.792V130.795ZM10.7516 84.0614C10.1636 84.1214 9.62961 84.4274 9.27861 84.9029C8.92011 85.3904 8.78811 86.0084 8.91711 86.5979L18.0731 128.248C18.2951 129.261 19.2071 129.951 20.2451 129.891L86.2586 125.952C86.9216 125.913 87.5111 125.572 87.8786 125.02C88.2461 124.468 88.3316 123.792 88.1111 123.165L87.7706 122.193H74.6996C74.2781 122.193 73.8926 121.962 73.6931 121.59C73.4951 121.218 73.5161 120.771 73.7501 120.42L82.5431 107.257L73.1426 80.3954C72.8246 79.4924 71.9381 78.9194 70.9886 78.9989L61.5581 79.7909L70.4336 82.0739C70.8506 82.1819 71.1761 82.4909 71.3021 82.9034C71.4281 83.3144 71.3351 83.7524 71.0516 84.0749L59.4656 97.3169C59.3936 97.3994 59.3666 97.5074 59.3936 97.6139C59.4191 97.7189 59.4911 97.8014 59.5916 97.8419L74.6726 103.846C75.1106 104.019 75.4076 104.421 75.4451 104.892C75.4826 105.366 75.2516 105.808 74.8421 106.05L69.7151 109.057C69.5546 109.15 69.5471 109.303 69.5516 109.365C69.5561 109.426 69.5846 109.576 69.7541 109.647L74.6441 111.667C75.0926 111.853 75.3836 112.269 75.4046 112.753C75.4256 113.235 75.1721 113.671 74.7446 113.895C70.7981 115.95 57.6836 122.193 44.1926 122.193C42.9956 122.193 41.7986 122.143 40.6016 122.038C35.8391 121.617 32.0756 120.849 29.0951 119.689C29.0846 119.686 29.0756 119.683 29.0666 119.679C28.5371 119.517 22.0961 117.405 17.8781 109.854C14.5886 103.968 12.1916 95.2919 10.7516 84.0599V84.0614Z" fill="#CCD2D6"/>
    <g opacity="0.5">
      <path d="M145.186 63.5236L99.6554 98.1826C98.6564 98.9431 97.2284 98.7301 96.4949 97.7131L88.4909 86.6281V77.3836C88.4909 76.9426 88.0319 76.6486 87.6314 76.8346L82.9784 78.9931L79.0889 73.6066L93.9239 69.7456C94.7459 69.5311 95.4869 70.3036 95.2349 71.1166L93.0119 78.2911C92.7794 79.0396 93.3929 79.7791 94.1729 79.6906L101.872 78.8116C102.486 78.7411 103.033 79.1941 103.08 79.8076L103.347 83.4196C103.398 84.1126 104.079 84.5776 104.746 84.3766C107.986 83.3971 116.718 79.9696 124.693 69.8521C128.955 64.4461 131.863 58.7161 133.801 53.9131L144.88 59.7736C146.322 60.5356 146.487 62.5336 145.189 63.5206L145.186 63.5236ZM79.0979 60.4426L75.9644 69.2836L72.3134 64.2256C71.5619 63.1846 71.8409 61.7266 72.9224 61.0366L76.0034 59.0746C76.7774 59.0536 77.4614 59.0236 78.0209 58.9951C78.7919 58.9561 79.3559 59.7136 79.0979 60.4426Z" fill="#CCD2D6"/>
    </g>
    <path d="M98.3114 99.0891C98.1794 99.0891 98.046 99.0786 97.911 99.0591C97.1895 98.9526 96.5564 98.5686 96.1289 97.9776L88.0395 86.7741V77.3841C88.0395 77.3106 87.9945 77.2716 87.9675 77.2536C87.9405 77.2356 87.8849 77.2116 87.8189 77.2431L82.8285 79.5576L78.3359 73.3371L93.807 69.3111C94.3545 69.1686 94.9139 69.3276 95.3039 69.7356C95.6954 70.1451 95.829 70.7106 95.661 71.2506L93.4379 78.4251C93.3734 78.6336 93.4155 78.8496 93.555 79.0191C93.6945 79.1871 93.8985 79.2696 94.1175 79.2441L101.817 78.3651C102.235 78.3171 102.645 78.4386 102.97 78.7071C103.296 78.9756 103.492 79.3551 103.524 79.7751L103.791 83.3886C103.804 83.5806 103.905 83.7546 104.064 83.8641C104.224 83.9751 104.424 84.0066 104.611 83.9496C107.925 82.9491 116.479 79.5441 124.335 69.5781C127.947 64.9956 130.99 59.6706 133.378 53.7501L133.566 53.2881L145.086 59.3826C145.899 59.8131 146.43 60.6171 146.505 61.5336C146.58 62.4501 146.188 63.3291 145.456 63.8856L99.9254 98.5446C99.4529 98.9046 98.8905 99.0936 98.3085 99.0936L98.3114 99.0891ZM88.941 86.4831L96.8594 97.4511C97.1429 97.8441 97.5645 98.0991 98.043 98.1696C98.523 98.2401 98.9985 98.1186 99.3825 97.8246L144.913 63.1656C145.399 62.7951 145.66 62.2116 145.611 61.6026C145.561 60.9936 145.209 60.4596 144.667 60.1746L134.028 54.5466C131.635 60.3606 128.614 65.6031 125.044 70.1331C117.03 80.3001 108.268 83.7831 104.874 84.8091C104.424 84.9456 103.944 84.8706 103.557 84.6051C103.171 84.3396 102.931 83.9211 102.897 83.4546L102.63 79.8426C102.616 79.6701 102.535 79.5126 102.4 79.4016C102.265 79.2906 102.096 79.2411 101.922 79.2606L94.2224 80.1396C93.7064 80.1996 93.1979 79.9956 92.8649 79.5951C92.5319 79.1946 92.4269 78.6576 92.5814 78.1611L94.8044 70.9866C94.8734 70.7631 94.8179 70.5291 94.6559 70.3596C94.4939 70.1901 94.2629 70.1241 94.0364 70.1841L79.8375 73.8786L83.1254 78.4311L87.4425 76.4286C87.771 76.2771 88.149 76.3026 88.455 76.4976C88.7595 76.6926 88.9425 77.0241 88.9425 77.3871V86.4861L88.941 86.4831ZM76.1039 70.2426L71.9504 64.4886C71.5139 63.8841 71.3504 63.1476 71.4899 62.4141C71.6294 61.6821 72.0539 61.0581 72.6824 60.6561L75.8684 58.6281L75.993 58.6251C76.677 58.6056 77.352 58.5786 78 58.5456C78.513 58.5186 79.0004 58.7496 79.3079 59.1606C79.6154 59.5731 79.6964 60.1086 79.5239 60.5931L76.1039 70.2426ZM76.143 59.5221L73.167 61.4166C72.7485 61.6821 72.468 62.0976 72.375 62.5836C72.282 63.0696 72.3899 63.5601 72.6809 63.9621L75.8309 68.3241L78.678 60.2931C78.75 60.0891 78.7169 59.8731 78.5879 59.6991C78.4589 59.5266 78.264 59.4336 78.048 59.4456C77.433 59.4771 76.7925 59.5041 76.1445 59.5221H76.143Z" fill="#CCD2D6"/>
    <g opacity="0.25">
      <path d="M88.8493 121.745H74.6998C74.1463 121.745 73.8193 121.13 74.1253 120.672L83.0428 107.322L83.6248 106.452C83.9443 105.972 84.6748 106.073 84.8548 106.622L89.5048 120.839C89.6503 121.284 89.3173 121.743 88.8493 121.743V121.745Z" fill="#CCD2D6"/>
    </g>
    <path d="M88.8494 122.195H74.6999C74.2784 122.195 73.8929 121.964 73.6934 121.592C73.4954 121.22 73.5164 120.773 73.7504 120.422L83.2499 106.202C83.4929 105.838 83.9144 105.647 84.3494 105.706C84.7859 105.764 85.1429 106.063 85.2809 106.481L89.9324 120.7C90.0449 121.046 89.9849 121.43 89.7704 121.724C89.5529 122.023 89.2184 122.194 88.8494 122.194V122.195ZM84.1949 106.597C84.1409 106.597 84.0584 106.613 83.9984 106.703L83.4164 107.573L74.4989 120.923C74.4269 121.03 74.4674 121.13 74.4869 121.169C74.5079 121.207 74.5694 121.297 74.6999 121.297H88.8494C88.9544 121.297 89.0159 121.235 89.0429 121.198C89.0699 121.16 89.1104 121.082 89.0774 120.98L84.4274 106.763C84.3839 106.633 84.2744 106.606 84.2294 106.6C84.2204 106.6 84.2084 106.598 84.1949 106.598V106.597Z" fill="#CCD2D6"/>
    <g opacity="0.25">
      <path d="M88.4909 77.3821V88.3501C88.4909 88.8871 87.8399 89.1571 87.4589 88.7776L79.9289 81.3031C79.6304 81.0061 79.7174 80.5021 80.1014 80.3236L82.9769 78.9916L87.6299 76.8331C88.0304 76.6471 88.4894 76.9411 88.4894 77.3821H88.4909Z" fill="#CCD2D6"/>
    </g>
    <path d="M87.8833 89.405C87.6103 89.405 87.3418 89.2985 87.1408 89.0975L79.6123 81.623C79.3678 81.38 79.2568 81.032 79.3168 80.6915C79.3768 80.351 79.5988 80.0615 79.9123 79.916L87.4423 76.424C87.7708 76.2725 88.1488 76.298 88.4548 76.493C88.7593 76.688 88.9423 77.0195 88.9423 77.3825V88.3505C88.9423 88.778 88.6873 89.159 88.2928 89.324C88.1608 89.3795 88.0228 89.405 87.8863 89.405H87.8833ZM87.8833 77.2265C87.8638 77.2265 87.8413 77.231 87.8188 77.2415L80.2888 80.732C80.2243 80.762 80.2063 80.816 80.2018 80.846C80.1958 80.876 80.1958 80.933 80.2453 80.984L87.7753 88.4585C87.8398 88.5215 87.9088 88.5065 87.9448 88.4915C87.9808 88.4765 88.0393 88.439 88.0393 88.3505V77.3825C88.0393 77.309 87.9943 77.27 87.9673 77.252C87.9493 77.2415 87.9208 77.2265 87.8833 77.2265Z" fill="#CCD2D6"/>
    <g opacity="0.5">
      <path d="M48.5495 53.6371C59.9677 53.6371 69.224 44.3808 69.224 32.9626C69.224 21.5444 59.9677 12.2881 48.5495 12.2881C37.1313 12.2881 27.875 21.5444 27.875 32.9626C27.875 44.3808 37.1313 53.6371 48.5495 53.6371Z" fill="#CCD2D6"/>
    </g>
    <path d="M48.5503 54.0888C36.9013 54.0888 27.4258 44.6118 27.4258 32.9643C27.4258 21.3168 36.9028 11.8398 48.5503 11.8398C60.1978 11.8398 69.6748 21.3168 69.6748 32.9643C69.6748 44.6118 60.1978 54.0888 48.5503 54.0888ZM48.5503 12.7383C37.3978 12.7383 28.3258 21.8118 28.3258 32.9628C28.3258 44.1138 37.3993 53.1873 48.5503 53.1873C59.7013 53.1873 68.7748 44.1138 68.7748 32.9628C68.7748 21.8118 59.7013 12.7383 48.5503 12.7383Z" fill="#CCD2D6"/>
    <path d="M57.7285 38.3836C58.2475 38.9011 58.2475 39.7441 57.7285 40.2616L55.852 42.1411C55.333 42.6586 54.4915 42.6586 53.9725 42.1411L48.553 36.7216L43.1335 42.1411C42.6145 42.6586 41.773 42.6586 41.254 42.1411L39.3775 40.2616C38.8585 39.7441 38.8585 38.9011 39.3775 38.3836L44.797 32.9641L39.3775 27.5416C38.8585 27.0241 38.8585 26.1811 39.3775 25.6651L41.254 23.7856C41.773 23.2681 42.6145 23.2681 43.1335 23.7856L48.553 29.2051L53.9725 23.7856C54.4915 23.2681 55.333 23.2681 55.852 23.7856L57.7285 25.6651C58.2475 26.1826 58.2475 27.0256 57.7285 27.5416L52.309 32.9641L57.7285 38.3836Z" fill="#CCD2D6"/>
    <path d="M126.668 53.7621C126.613 53.7621 126.556 53.7516 126.502 53.7291C115.225 49.2231 103.979 44.1411 93.1058 39.2256C92.8793 39.1236 92.7788 38.8566 92.8808 38.6301C92.9828 38.4036 93.2498 38.3031 93.4763 38.4051C104.342 43.3161 115.577 48.3951 126.836 52.8936C127.067 52.9851 127.18 53.2476 127.087 53.4786C127.016 53.6541 126.847 53.7621 126.668 53.7621ZM98.6588 50.2851C98.5973 50.2851 98.5343 50.2716 98.4743 50.2446C96.9128 49.5426 95.3063 48.8886 93.6998 48.3006C93.4658 48.2151 93.3458 47.9571 93.4313 47.7231C93.5168 47.4891 93.7748 47.3706 94.0088 47.4546C95.6363 48.0501 97.2638 48.7116 98.8433 49.4226C99.0698 49.5246 99.1718 49.7916 99.0698 50.0181C98.9948 50.1846 98.8313 50.2836 98.6588 50.2836V50.2851ZM116.689 58.2846C116.627 58.2846 116.566 58.2726 116.506 58.2456L101.507 51.5541C101.281 51.4536 101.179 51.1866 101.279 50.9601C101.38 50.7336 101.647 50.6316 101.873 50.7321L116.872 57.4236C117.098 57.5256 117.2 57.7911 117.1 58.0176C117.025 58.1856 116.861 58.2846 116.689 58.2846ZM103.879 63.8421C103.81 63.8421 103.739 63.8256 103.673 63.7926L85.1348 54.2706C84.9143 54.1566 84.8273 53.8851 84.9398 53.6646C85.0538 53.4441 85.3238 53.3556 85.5458 53.4696L104.084 62.9916C104.305 63.1056 104.392 63.3771 104.279 63.5976C104.2 63.7536 104.042 63.8421 103.879 63.8421ZM108.817 66.4086C108.746 66.4086 108.676 66.3921 108.61 66.3576L106.192 65.0991C105.971 64.9836 105.886 64.7121 106 64.4916C106.115 64.2711 106.387 64.1856 106.607 64.3011L109.025 65.5596C109.246 65.6751 109.331 65.9466 109.217 66.1671C109.136 66.3216 108.98 66.4086 108.818 66.4086H108.817Z" fill="#CCD2D6"/>
    <path d="M55.9291 110.391C55.7356 110.391 55.5586 110.266 55.4986 110.073C51.9331 98.3924 48.9151 86.3969 46.5301 74.4209C46.4821 74.1779 46.6396 73.9409 46.8841 73.8914C47.1271 73.8434 47.3656 74.0009 47.4136 74.2454C49.7941 86.1929 52.8046 98.1584 56.3611 109.81C56.4331 110.047 56.2996 110.299 56.0626 110.373C56.0191 110.386 55.9741 110.392 55.9306 110.392L55.9291 110.391ZM41.4106 79.2194C41.2186 79.2194 41.0401 79.0949 40.9801 78.9014L40.3171 76.7519C40.2436 76.5149 40.3771 76.2629 40.6141 76.1894C40.8511 76.1159 41.1031 76.2494 41.1766 76.4864L41.8396 78.6359C41.9131 78.8729 41.7796 79.1249 41.5426 79.1984C41.4991 79.2119 41.4541 79.2179 41.4106 79.2179V79.2194ZM46.4191 101.835C46.2121 101.835 46.0261 101.691 45.9796 101.481L42.0001 83.1794C41.9476 82.9364 42.1006 82.6964 42.3436 82.6439C42.5866 82.5899 42.8266 82.7444 42.8791 82.9874L46.8586 101.289C46.9111 101.532 46.7581 101.772 46.5151 101.824C46.4836 101.832 46.4506 101.835 46.4191 101.835Z" fill="#CCD2D6"/>
  </g>
  <defs>
    <clipPath id="clip0_643_5983">
      <rect width="150" height="150" fill="white"/>
    </clipPath>
  </defs>
</svg>