<svg xmlns="http://www.w3.org/2000/svg" width="200" height="200" viewBox="0 0 200 200" fill="none">
  <path
    d="M95.0527 177.225C144.758 177.225 185.053 175.436 185.053 173.23C185.053 171.023 144.758 169.234 95.0527 169.234C45.3471 169.234 5.05273 171.023 5.05273 173.23C5.05273 175.436 45.3471 177.225 95.0527 177.225Z"
    fill="#F7F7FF" />
  <path
    d="M118.962 158.098C124.241 162.952 129.47 169.065 136.625 169.543C142.683 169.947 148.406 165.824 151.284 160.477C154.161 155.13 154.615 148.794 154.132 142.741C153.65 136.688 152.298 130.731 151.8 124.679C151.208 117.49 152.176 109.46 157.501 104.593C166.645 96.2335 183.619 101.359 191.618 91.8978C196.933 85.6109 195.242 75.8631 191.065 68.7687C182.896 54.894 166.047 46.6757 150.084 48.7797C141.81 49.8703 134.101 53.4216 126.239 56.2196C118.376 59.0176 109.844 61.097 101.734 59.1278C94.5693 57.3881 88.4963 52.6564 83.2955 47.4298C78.0948 42.2031 73.5091 36.3543 67.9324 31.5309C62.3557 26.7074 55.4861 22.8787 48.1135 22.7766C40.7408 22.6745 33.0027 27.1523 31.1006 34.2761C28.2419 44.9824 38.7897 55.1136 38.3308 66.1855C37.8282 78.3117 24.7297 86.3022 21.7283 98.0619C19.5942 106.424 23.1096 115.484 29.0037 121.787C34.8979 128.091 42.869 132.039 50.9255 135.133C62.363 139.525 74.6347 143.172 86.9358 143.038C98.5778 142.911 110.651 150.456 118.962 158.098Z"
    fill="#F7F7FF" />
  <path d="M62.4326 129.075L95.4438 125.157L95.4958 146.862H62.9398L62.4326 129.075Z" fill="#F58EA2" />
  <path d="M128.494 129.075L95.4435 125.157L95.4307 146.862H127.987L128.494 129.075Z" fill="#FFA6BB" />
  <path d="M133.598 118.631L128.389 129.133L95.4434 126.546L99.8962 117.005L133.598 118.631Z"
    fill="#FFC1CD" />
  <path d="M95.4428 126.546L62.6152 129.246L55.7852 118.411L89.968 117.06L95.4428 126.546Z"
    fill="#FFC1CD" />
  <path d="M62.4334 129.075L62.4326 164.219L95.4966 175.965V135.814L62.4334 129.075Z" fill="#FFA6BB" />
  <path d="M128.429 129.076V164.219L95.4951 175.965V135.814L128.429 129.076Z" fill="#F58EA2" />
  <path d="M62.4326 129.075L56.541 144.808L90.9958 155.425L95.4958 135.814L62.4326 129.075Z"
    fill="#FFC1CD" />
  <path d="M128.429 129.076L134.32 144.808L99.8647 155.425L95.4951 135.814L128.429 129.076Z"
    fill="#FFC1CD" />
  <path
    d="M99.225 116.841H91.6944C88.3971 123.04 89.6489 130.654 95.4577 135.776H95.4592L95.4607 135.775C101.269 130.653 102.522 123.039 99.225 116.841Z"
    fill="#E8468A" />
  <path
    d="M98.2167 116.841H92.7012C90.2862 121.381 91.2031 126.958 95.4575 130.709H95.4586L95.4597 130.708C99.7137 126.957 100.631 121.381 98.2167 116.841Z"
    fill="#FFA428" />
  <path
    d="M97.4805 116.841H93.4408C91.672 120.166 92.3436 124.25 95.4596 126.998H95.4604L95.4612 126.998C98.5769 124.25 99.249 120.166 97.4805 116.841Z"
    fill="#FFCF53" />
  <path
    d="M76.9601 104.105C77.327 107.669 78.0131 112.817 79.1141 115.2C79.1141 115.2 79.1513 115.125 79.2204 114.992C79.8374 113.849 84.1303 108.23 87.2098 108.682L84.0177 94.1172L83.571 94.4948L79.4385 97.9731C77.6461 99.4835 76.7207 101.776 76.9601 104.105Z"
    fill="#FFB636" />
  <path
    d="M79.2207 114.992C79.8376 113.849 84.1306 108.23 87.21 108.682L84.0179 94.1172L83.5712 94.4948C83.5818 94.8139 83.5978 95.1383 83.6084 95.4575C83.7254 98.5369 83.8424 101.622 83.7946 104.706C83.7786 105.717 83.7254 106.796 83.1244 107.605C82.582 108.339 81.6991 108.716 80.9811 109.269C79.2898 110.567 78.5771 112.971 79.2207 114.992Z"
    fill="#FFA428" />
  <path
    d="M80.3445 99.8814C80.3445 99.8814 81.152 100.207 80.4978 101.27C79.8436 102.333 78.5077 104.311 78.3828 105.738C78.3828 105.738 77.5635 102.027 78.712 100.406C78.712 100.406 79.2793 99.5581 80.3445 99.8814Z"
    fill="#FFCF53" />
  <path
    d="M114.03 104.105C113.663 107.669 112.977 112.817 111.876 115.2C111.876 115.2 111.839 115.125 111.77 114.992C111.153 113.849 106.86 108.23 103.78 108.682L106.972 94.1172L107.419 94.4948L111.552 97.9731C113.344 99.4835 114.269 101.776 114.03 104.105Z"
    fill="#FFB636" />
  <path
    d="M111.77 114.992C111.153 113.849 106.86 108.23 103.78 108.682L106.972 94.1172L107.419 94.4948C107.408 94.8139 107.392 95.1383 107.382 95.4575C107.265 98.5369 107.148 101.622 107.196 104.706C107.212 105.717 107.265 106.796 107.866 107.605C108.408 108.339 109.291 108.716 110.009 109.269C111.7 110.567 112.413 112.971 111.77 114.992Z"
    fill="#FFA428" />
  <path
    d="M110.645 99.8814C110.645 99.8814 109.838 100.207 110.492 101.27C111.146 102.333 112.482 104.311 112.607 105.738C112.607 105.738 113.426 102.027 112.278 100.406C112.278 100.406 111.711 99.5581 110.645 99.8814Z"
    fill="#FFCF53" />
  <path
    d="M88.2695 109.123C88.7413 111.476 89.4021 113.779 90.2613 115.99C90.4507 116.589 90.9468 117.159 91.7455 117.622C93.8368 118.828 97.2143 118.828 99.2904 117.622C100.167 117.113 100.672 116.469 100.803 115.805C101.628 113.651 102.266 111.41 102.725 109.123H88.2695Z"
    fill="#0E0063" />
  <path
    d="M103.276 111.64C103.084 112.614 102.344 113.558 101.058 114.305C99.2587 115.348 96.7954 115.776 94.4469 115.584C92.8197 115.453 91.2498 115.029 89.9958 114.305C88.8248 113.625 88.0973 112.789 87.8197 111.912C80.3245 92.6233 82.8835 68.603 95.4935 52.5375L95.4967 52.5342H95.4999C95.8158 52.9363 96.1285 53.3447 96.4252 53.7594C108.177 69.7294 110.458 92.8816 103.276 111.64Z"
    fill="#E1E0FF" />
  <path
    d="M103.276 111.64C103.085 112.613 102.344 113.558 101.059 114.305C99.259 115.348 96.7957 115.776 94.4473 115.584C97.1307 112.46 99.1409 108.682 100.347 104.751C102.855 96.5956 102.392 87.837 101.32 79.375C100.574 73.4975 99.5462 67.6584 98.2379 61.8799C97.871 60.2526 97.4721 56.6788 96.4256 53.7593C108.177 69.7293 110.459 92.8815 103.276 111.64Z"
    fill="#D6D4F6" />
  <path
    d="M104.524 70.0293C102.91 69.4326 101.286 68.9987 99.6519 68.7242C95.3347 68.0031 90.9442 68.4179 86.4707 70.0293C88.4458 63.6605 91.4515 57.6905 95.4943 52.5375L95.4975 52.5342H95.5006C95.8165 52.9363 96.126 53.3447 96.4292 53.7594C100.009 58.6253 102.702 64.1583 104.524 70.0293ZM103.455 111.165C103.398 111.325 103.337 111.484 103.277 111.64C103.085 112.614 102.345 113.558 101.059 114.305C98.015 116.072 93.0629 116.072 89.9965 114.305C88.8255 113.625 88.098 112.789 87.8204 111.912C87.7023 111.609 87.5875 111.308 87.4758 111.002C87.9002 111.605 88.5383 112.173 89.3871 112.665C92.7917 114.627 98.2958 114.627 101.678 112.665C102.447 112.218 103.037 111.707 103.455 111.165Z"
    fill="#FFB636" />
  <path
    d="M104.523 70.0292C102.908 69.4325 101.284 68.9986 99.6504 68.7241C99.2229 66.4332 98.7506 64.1518 98.2369 61.8799C97.87 60.2526 97.4711 56.6788 96.4277 53.7593C100.008 58.6252 102.701 64.1582 104.523 70.0292Z"
    fill="#FFA428" />
  <path
    d="M95.4952 85.4018C98.8392 85.4018 101.55 82.691 101.55 79.347C101.55 76.0031 98.8392 73.2922 95.4952 73.2922C92.1513 73.2922 89.4404 76.0031 89.4404 79.347C89.4404 82.691 92.1513 85.4018 95.4952 85.4018Z"
    fill="#0E0063" />
  <path
    d="M95.4948 84.9903C98.6114 84.9903 101.138 82.4637 101.138 79.3471C101.138 76.2304 98.6114 73.7039 95.4948 73.7039C92.3781 73.7039 89.8516 76.2304 89.8516 79.3471C89.8516 82.4637 92.3781 84.9903 95.4948 84.9903Z"
    fill="#474756" />
  <path
    d="M95.4948 84.9903C98.6114 84.9903 101.138 82.4637 101.138 79.3471C101.138 76.2304 98.6114 73.7039 95.4948 73.7039C92.3781 73.7039 89.8516 76.2304 89.8516 79.3471C89.8516 82.4637 92.3781 84.9903 95.4948 84.9903Z"
    fill="#FFA6BB" />
  <path
    d="M99.7099 75.587C98.7395 74.8106 97.5024 74.3498 96.1683 74.3498C93.0392 74.3498 90.5163 76.8727 90.5163 79.9774C90.5163 81.4327 91.0742 82.7913 91.996 83.7856C90.7104 82.7427 89.8613 81.1419 89.8613 79.3469C89.8613 76.2419 92.3842 73.6948 95.489 73.6948C97.1628 73.6948 98.6667 74.4227 99.7099 75.587Z"
    fill="#FFC1CD" />
  <path
    d="M95.4954 83.1442C97.5926 83.1442 99.2926 81.4441 99.2926 79.347C99.2926 77.2499 97.5926 75.5498 95.4954 75.5498C93.3983 75.5498 91.6982 77.2499 91.6982 79.347C91.6982 81.4441 93.3983 83.1442 95.4954 83.1442Z"
    fill="#0E0063" />
  <path
    d="M98.9148 79.3469C98.9148 81.2388 97.3866 82.767 95.4946 82.767C94.3544 82.767 93.3356 82.2091 92.7292 81.3356C92.3169 80.7777 92.0742 80.0987 92.0742 79.3469C92.0742 77.4548 93.6024 75.9263 95.4946 75.9263C96.198 75.9263 96.853 76.1448 97.4108 76.5084C98.3083 77.1148 98.9148 78.158 98.9148 79.3469Z"
    fill="#3E22B3" />
  <path
    d="M98.1142 78.5705C98.1142 80.4627 96.586 81.9906 94.694 81.9906C93.9664 81.9906 93.2871 81.7484 92.7292 81.3356C92.3169 80.7777 92.0742 80.0987 92.0742 79.3469C92.0742 77.4548 93.6024 75.9263 95.4946 75.9263C96.198 75.9263 96.853 76.1448 97.4108 76.5084C97.8474 77.0666 98.1142 77.7941 98.1142 78.5705Z"
    fill="#5731EB" />
  <path opacity="0.3"
    d="M97.4592 76.5813C97.2167 76.5327 96.9499 76.5084 96.683 76.5084C94.3785 76.5084 92.4623 78.2792 92.3167 80.5592C92.1469 80.1956 92.0742 79.7828 92.0742 79.3463C92.0742 77.4542 93.6024 75.9263 95.4944 75.9263C96.1978 75.9263 96.8528 76.1442 97.4107 76.5084C97.435 76.5327 97.435 76.557 97.4592 76.5813Z"
    fill="#6273FF" />
  <g opacity="0.5">
    <path
      d="M101.146 79.3469C101.146 82.4759 98.6237 84.9985 95.4946 84.9985C93.2871 84.9985 91.3466 83.7131 90.4248 81.8452C91.4678 83.2035 93.093 84.0527 94.9366 84.0527C98.09 84.0527 100.661 81.5056 100.661 78.3277C100.661 77.6488 100.54 77.0181 100.322 76.4116C100.855 77.2606 101.146 78.2795 101.146 79.3469Z"
      fill="#F58EA2" />
  </g>
  <path
    d="M99.1481 76.3352C98.9673 76.5161 98.6673 76.5121 98.4864 76.3312C98.3384 76.1832 98.3097 75.9571 98.4001 75.7844C98.4165 75.7433 98.4494 75.7022 98.4823 75.6693C98.6672 75.4843 98.9631 75.4842 99.1481 75.6692C99.2385 75.7596 99.2796 75.8748 99.2838 75.994C99.2878 76.1133 99.2426 76.2407 99.1481 76.3352Z"
    fill="#D6D4F6" />
  <path
    d="M99.1971 76.1132C99.0121 76.2982 98.7162 76.2983 98.5353 76.1174C98.4408 76.0229 98.3956 75.9037 98.3997 75.7844C98.4161 75.7433 98.449 75.7022 98.4819 75.6693C98.6668 75.4843 98.9627 75.4842 99.1477 75.6692C99.2381 75.7596 99.2792 75.8748 99.2834 75.994C99.2628 76.0392 99.234 76.0762 99.1971 76.1132Z"
    fill="white" />
  <path
    d="M92.5075 82.9785C92.3267 83.1594 92.0266 83.1554 91.8458 82.9745C91.6978 82.8266 91.669 82.6005 91.7594 82.4277C91.7759 82.3866 91.8087 82.3456 91.8416 82.3126C92.0266 82.1276 92.3225 82.1275 92.5075 82.3125C92.5979 82.4029 92.639 82.5181 92.6431 82.6373C92.6472 82.7566 92.602 82.884 92.5075 82.9785Z"
    fill="#D6D4F6" />
  <path
    d="M92.5564 82.7565C92.3715 82.9416 92.0756 82.9416 91.8947 82.7607C91.8002 82.6662 91.7549 82.547 91.759 82.4277C91.7755 82.3866 91.8083 82.3456 91.8412 82.3126C92.0262 82.1276 92.3221 82.1275 92.5071 82.3125C92.5975 82.4029 92.6386 82.5181 92.6427 82.6373C92.6222 82.6825 92.5934 82.7196 92.5564 82.7565Z"
    fill="white" />
  <path
    d="M100.188 79.7928C99.932 79.7929 99.7227 79.5778 99.7227 79.322C99.7227 79.1127 99.8622 78.9324 100.048 78.8741C100.089 78.8567 100.141 78.8508 100.188 78.8508C100.449 78.8507 100.659 79.06 100.659 79.3216C100.659 79.4495 100.606 79.56 100.525 79.6473C100.443 79.7346 100.321 79.7927 100.188 79.7928Z"
    fill="#D6D4F6" />
  <path
    d="M100.38 79.6706C100.118 79.6707 99.9092 79.4614 99.9092 79.2056C99.9092 79.0719 99.9615 78.9556 100.049 78.8741C100.089 78.8567 100.142 78.8508 100.188 78.8508C100.45 78.8507 100.659 79.06 100.659 79.3216C100.659 79.4495 100.607 79.56 100.525 79.6473C100.479 79.6648 100.432 79.6706 100.38 79.6706Z"
    fill="white" />
  <path
    d="M90.7952 79.7962C90.5394 79.7963 90.3301 79.5812 90.3301 79.3254C90.3301 79.1161 90.4696 78.9358 90.6556 78.8775C90.6964 78.8601 90.7486 78.8543 90.7951 78.8542C91.0567 78.8542 91.266 79.0634 91.266 79.325C91.266 79.4529 91.2137 79.5634 91.1324 79.6507C91.0509 79.738 90.9289 79.7961 90.7952 79.7962Z"
    fill="#D6D4F6" />
  <path
    d="M90.9865 79.674C90.7249 79.6741 90.5156 79.4649 90.5156 79.209C90.5156 79.0753 90.5679 78.959 90.6551 78.8775C90.6958 78.8601 90.7481 78.8543 90.7946 78.8542C91.0562 78.8542 91.2655 79.0634 91.2655 79.325C91.2655 79.4529 91.2132 79.5634 91.1319 79.6507C91.0853 79.6682 91.0388 79.674 90.9865 79.674Z"
    fill="white" />
  <path
    d="M98.4804 82.9749C98.2995 82.7941 98.3035 82.494 98.4844 82.313C98.6323 82.1649 98.8585 82.136 99.0312 82.2264C99.0723 82.2429 99.1134 82.2757 99.1463 82.3086C99.3313 82.4935 99.3314 82.7896 99.1465 82.9747C99.056 83.0651 98.9409 83.1063 98.8217 83.1105C98.7024 83.1146 98.5749 83.0694 98.4804 82.9749Z"
    fill="#D6D4F6" />
  <path
    d="M98.7019 83.0243C98.5168 82.8394 98.5167 82.5434 98.6976 82.3624C98.7922 82.2678 98.9114 82.2225 99.0306 82.2266C99.0718 82.243 99.1128 82.2758 99.1457 82.3087C99.3308 82.4937 99.3309 82.7897 99.1459 82.9748C99.0554 83.0653 98.9403 83.1064 98.8211 83.1106C98.7758 83.0901 98.7388 83.0612 98.7019 83.0243Z"
    fill="white" />
  <path
    d="M91.8358 76.335C91.6549 76.1542 91.6589 75.8541 91.8398 75.6731C91.9878 75.525 92.2139 75.4961 92.3867 75.5865C92.4278 75.603 92.4689 75.6358 92.5018 75.6687C92.6868 75.8536 92.6869 76.1497 92.5019 76.3348C92.4115 76.4252 92.2963 76.4664 92.1771 76.4706C92.0579 76.4747 91.9304 76.4295 91.8358 76.335Z"
    fill="#D6D4F6" />
  <path
    d="M92.0583 76.3842C91.8732 76.1992 91.8732 75.9032 92.0541 75.7223C92.1486 75.6277 92.2678 75.5824 92.3871 75.5864C92.4282 75.6029 92.4693 75.6357 92.5022 75.6686C92.6872 75.8535 92.6873 76.1496 92.5023 76.3347C92.4119 76.4251 92.2967 76.4663 92.1775 76.4705C92.1323 76.4499 92.0952 76.4211 92.0583 76.3842Z"
    fill="white" />
  <path
    d="M95.0225 84.0184C95.0224 83.7626 95.2374 83.5531 95.4933 83.553C95.7026 83.5529 95.8829 83.6924 95.9412 83.8785C95.9586 83.9192 95.9645 83.9715 95.9645 84.018C95.9646 84.2797 95.7553 84.4891 95.4937 84.4893C95.3658 84.4893 95.2552 84.437 95.168 84.3557C95.0807 84.2742 95.0225 84.1521 95.0225 84.0184Z"
    fill="#D6D4F6" />
  <path
    d="M95.1445 84.2102C95.1444 83.9485 95.3537 83.7391 95.6095 83.739C95.7433 83.739 95.8596 83.7912 95.941 83.8784C95.9585 83.9192 95.9643 83.9714 95.9643 84.018C95.9645 84.2796 95.7552 84.4891 95.4935 84.4892C95.3656 84.4893 95.2551 84.4369 95.1678 84.3556C95.1504 84.3091 95.1446 84.2625 95.1445 84.2102Z"
    fill="white" />
  <path
    d="M95.0186 74.6229C95.0185 74.3671 95.2335 74.1576 95.4894 74.1575C95.6987 74.1574 95.879 74.2969 95.9373 74.483C95.9547 74.5237 95.9606 74.5759 95.9606 74.6225C95.9607 74.8842 95.7514 75.0936 95.4898 75.0937C95.3618 75.0938 95.2513 75.0415 95.1641 74.9601C95.0768 74.8787 95.0186 74.7566 95.0186 74.6229Z"
    fill="#D6D4F6" />
  <path
    d="M95.1406 74.8147C95.1405 74.553 95.3498 74.3436 95.6056 74.3435C95.7394 74.3435 95.8557 74.3957 95.9371 74.4829C95.9546 74.5237 95.9604 74.5759 95.9604 74.6225C95.9605 74.8841 95.7513 75.0936 95.4896 75.0937C95.3617 75.0938 95.2512 75.0414 95.1639 74.9601C95.1464 74.9135 95.1406 74.867 95.1406 74.8147Z"
    fill="white" />
  <path
    d="M95.4944 103.507V124.142C95.4944 124.142 93.749 111.723 93.5576 109.621C93.3693 107.521 94.1223 106.896 94.1223 106.896L95.4944 103.507Z"
    fill="#FFB636" />
  <path
    d="M95.4951 103.507V124.142C95.4951 124.142 97.2405 111.723 97.4319 109.621C97.6202 107.521 96.8672 106.896 96.8672 106.896L95.4951 103.507Z"
    fill="#FFA428" />
  <path
    d="M114.134 128.609L113.737 128.56C113.742 128.521 113.86 127.601 114.276 126.178L114.66 126.29C114.254 127.68 114.135 128.6 114.134 128.609ZM115.45 124.042L115.08 123.89C115.388 123.14 115.738 122.403 116.118 121.701L116.47 121.892C116.096 122.581 115.753 123.305 115.45 124.042ZM117.718 119.868L117.389 119.639C117.855 118.972 118.361 118.333 118.893 117.738L119.191 118.005C118.67 118.588 118.174 119.214 117.718 119.868ZM120.881 116.341L120.619 116.038C121.228 115.51 121.877 115.017 122.548 114.573L122.769 114.906C122.112 115.341 121.477 115.824 120.881 116.341ZM124.824 113.724L124.647 113.366C125.358 113.014 126.108 112.698 126.876 112.427L127.01 112.804C126.256 113.07 125.521 113.38 124.824 113.724ZM129.288 112.138L129.196 111.749C129.962 111.569 130.762 111.423 131.573 111.315L131.626 111.712C130.828 111.818 130.041 111.962 129.288 112.138Z"
    fill="#D6D4F6" />
  <path
    d="M108.212 119.182L107.836 119.045C107.891 118.894 113.547 103.853 130.137 99.354L130.242 99.7399C113.857 104.183 108.266 119.033 108.212 119.182Z"
    fill="#6273FF" />
  <path
    d="M132.727 98.9L129.771 98.0858C129.651 98.0529 129.541 98.1617 129.572 98.2818L130.341 101.246C130.372 101.366 130.522 101.407 130.61 101.32L132.797 99.1705C132.886 99.0834 132.847 98.933 132.727 98.9Z"
    fill="#6273FF" />
  <path
    d="M134.273 110.692L131.317 109.878C131.197 109.845 131.086 109.954 131.118 110.074L131.887 113.038C131.918 113.158 132.068 113.199 132.156 113.112L134.343 110.963C134.431 110.876 134.392 110.725 134.273 110.692Z"
    fill="#D6D4F6" />
  <path
    d="M74.775 128.609C74.7738 128.6 74.6557 127.68 74.2488 126.29L74.6328 126.178C75.0494 127.601 75.1672 128.521 75.1719 128.56L74.775 128.609ZM73.4594 124.042C73.1562 123.305 72.8131 122.581 72.4396 121.892L72.7912 121.701C73.1717 122.403 73.5209 123.14 73.8293 123.89L73.4594 124.042ZM71.1916 119.868C70.7352 119.214 70.2395 118.588 69.7184 118.005L70.0164 117.738C70.5482 118.333 71.0539 118.972 71.5197 119.639L71.1916 119.868ZM68.0281 116.341C67.432 115.824 66.7971 115.341 66.1404 114.906L66.3615 114.573C67.0322 115.017 67.6811 115.51 68.2902 116.038L68.0281 116.341ZM64.0852 113.724C63.3881 113.38 62.6527 113.07 61.8996 112.804L62.0328 112.427C62.801 112.698 63.5512 113.014 64.2625 113.366L64.0852 113.724ZM59.6215 112.138C58.8686 111.962 58.0818 111.818 57.2832 111.712L57.3359 111.315C58.1477 111.423 58.9473 111.569 59.7129 111.749L59.6215 112.138Z"
    fill="#D6D4F6" />
  <path
    d="M80.6977 119.182C80.6432 119.033 75.0525 104.183 58.668 99.7399L58.7727 99.354C75.3627 103.853 81.0182 118.894 81.0734 119.045L80.6977 119.182Z"
    fill="#6273FF" />
  <path
    d="M56.1839 98.9L59.1401 98.0858C59.2597 98.0529 59.3702 98.1617 59.339 98.2818L58.5695 101.246C58.5383 101.366 58.3888 101.407 58.3004 101.32L56.1137 99.1705C56.0251 99.0834 56.0642 98.933 56.1839 98.9Z"
    fill="#6273FF" />
  <path
    d="M54.6361 110.692L57.5922 109.878C57.7119 109.845 57.8223 109.954 57.7911 110.074L57.0216 113.038C56.9904 113.158 56.841 113.199 56.7525 113.112L54.5659 110.963C54.4773 110.876 54.5163 110.725 54.6361 110.692Z"
    fill="#D6D4F6" />
  <path d="M126.06 92.5526L127.538 90.9028L125.888 89.4245L124.41 91.0742L126.06 92.5526Z"
    fill="#53B0A6" />
  <path d="M69.2728 88.8944L71.9297 85.9294L68.9648 83.2725L66.3079 86.2375L69.2728 88.8944Z"
    fill="white" />
  <path d="M67.8482 111.265L69.6768 109.224L67.6362 107.396L65.8076 109.436L67.8482 111.265Z"
    fill="#C5C2F2" />
  <path d="M116.934 95.5548L116.651 95.8376L118.43 97.6159L118.712 97.333L116.934 95.5548Z"
    fill="#C5C2F2" />
  <path d="M71.185 96.2335L69.2031 98.2153L69.486 98.4982L71.4678 96.5163L71.185 96.2335Z"
    fill="#C5C2F2" />
  <path d="M88.6588 92.781H79.4268V83.553L88.6588 92.781Z" fill="#C5C2F2" />
  <path
    d="M108.349 101.137L108.248 100.875L108.621 100.732L108.722 100.994L108.349 101.137ZM107.407 98.6218C107.106 97.7771 106.862 97.0271 106.659 96.3289L107.044 96.2175C107.244 96.908 107.486 97.6506 107.784 98.4875L107.407 98.6218ZM155.35 97.5828C154.817 97.5828 154.269 97.5353 153.723 97.4416L153.79 97.0474C154.583 97.1834 155.376 97.2175 156.129 97.147L156.166 97.5455C155.898 97.5703 155.624 97.5828 155.35 97.5828ZM158.544 96.947L158.386 96.5799C159.106 96.2687 159.767 95.8494 160.352 95.3332L160.616 95.6332C160 96.1771 159.303 96.6191 158.544 96.947ZM151.38 96.7627C150.642 96.4611 149.917 96.08 149.225 95.6302L149.443 95.2947C150.114 95.731 150.817 96.1004 151.532 96.3924L151.38 96.7627ZM147.306 94.1412C146.732 93.6216 146.178 93.0547 145.615 92.4076L145.773 92.2697L145.737 92.2265C146.257 91.7947 146.738 91.256 147.298 90.48L147.622 90.714C147.096 91.4431 146.634 91.9726 146.145 92.4037C146.62 92.9326 147.09 93.406 147.575 93.8443L147.306 94.1412ZM106.094 93.9773C105.938 93.1371 105.845 92.3492 105.81 91.5685L106.209 91.5506C106.244 92.3125 106.335 93.0824 106.487 93.9043L106.094 93.9773ZM141.814 93.9617C141.668 93.9617 141.521 93.9578 141.374 93.9502L141.395 93.5506C142.205 93.5925 142.993 93.5105 143.704 93.3043L143.816 93.6882C143.192 93.8697 142.518 93.9617 141.814 93.9617ZM162.157 93.7185L161.805 93.5275C162.175 92.848 162.396 92.132 162.464 91.3994L162.47 91.3291L162.869 91.3572L162.863 91.4367C162.79 92.2234 162.552 92.9912 162.157 93.7185ZM138.971 93.5045C138.202 93.2631 137.452 92.9351 136.742 92.5295L136.943 92.1834C137.626 92.5736 138.349 92.89 139.091 93.1228L138.971 93.5045ZM134.726 91.1726C134.024 90.6347 133.365 90.0668 132.869 89.632L133.133 89.3312C133.624 89.7619 134.277 90.3244 134.969 90.855L134.726 91.1726ZM144.11 90.5172C143.708 89.9701 143.288 89.3664 142.826 88.672L142.736 88.5373L143.07 88.3166L143.158 88.4498C143.617 89.1396 144.034 89.7382 144.432 90.2804L144.11 90.5172ZM106.316 89.1937L105.92 89.1375C106.037 88.3175 106.233 87.5215 106.503 86.7709L106.879 86.9064C106.619 87.6312 106.429 88.4007 106.316 89.1937ZM162.147 89.0539C161.887 88.3367 161.49 87.6664 160.969 87.0619L161.272 86.8006C161.825 87.4422 162.246 88.1543 162.523 88.9172L162.147 89.0539ZM148.981 88.733L148.654 88.5017C148.985 88.0349 149.274 87.6656 149.563 87.3398C149.774 87.1009 150.004 86.8697 150.244 86.6527L150.512 86.9496C150.283 87.1568 150.064 87.3773 149.862 87.605C149.583 87.9199 149.303 88.2783 148.981 88.733ZM131.071 88.0427C130.521 87.5631 130.065 87.1822 129.637 86.8445C129.502 86.7377 129.366 86.632 129.228 86.5279L129.47 86.2091C129.609 86.3148 129.748 86.422 129.885 86.5304C130.319 86.8724 130.779 87.2572 131.334 87.7412L131.071 88.0427ZM141.452 86.4988C141.024 85.7822 140.628 85.0738 140.275 84.3933L140.63 84.209C140.98 84.8826 141.372 85.584 141.795 86.2937L141.452 86.4988ZM152.446 85.6349L152.268 85.2767C153.014 84.9056 153.796 84.6449 154.59 84.5019L154.661 84.8957C153.904 85.0318 153.158 85.2806 152.446 85.6349ZM159.176 85.5896C158.712 85.3281 158.223 85.1289 157.726 84.9974C157.485 84.934 157.236 84.8834 156.986 84.847L157.044 84.4513C157.309 84.4896 157.572 84.5433 157.828 84.6107C158.358 84.7507 158.878 84.9629 159.372 85.2412L159.176 85.5896ZM127.268 85.1761C126.597 84.7574 125.9 84.3632 125.194 84.005L125.375 83.6484C126.091 84.0119 126.8 84.4119 127.48 84.8371L127.268 85.1761ZM107.924 84.805L107.59 84.584C108.058 83.8787 108.606 83.2634 109.22 82.7554L109.475 83.0636C108.891 83.5465 108.369 84.1324 107.924 84.805ZM123.025 83.0226C122.291 82.7285 121.534 82.4638 120.777 82.2361L120.892 81.8529C121.661 82.0843 122.429 82.3529 123.173 82.6511L123.025 83.0226ZM139.242 82.2105C138.917 81.4466 138.632 80.6847 138.396 79.9463L138.777 79.8244C139.009 80.5511 139.289 81.3011 139.61 82.0539L139.242 82.2105ZM111.482 81.8896L111.337 81.517C112.061 81.2353 112.861 81.0445 113.715 80.95L113.759 81.3476C112.939 81.4382 112.173 81.6207 111.482 81.8896ZM118.468 81.6541C117.647 81.4865 116.857 81.3738 116.119 81.3189L116.148 80.9201C116.903 80.9761 117.711 81.0912 118.548 81.2623L118.468 81.6541ZM137.787 77.6031C137.627 76.7955 137.521 75.9871 137.47 75.2L137.869 75.1746C137.919 75.9439 138.023 76.7349 138.18 77.5254L137.787 77.6031ZM152.154 77.3238C151.425 77.3238 150.679 77.2683 149.936 77.159L149.872 77.1494L149.93 76.7537L149.996 76.7634C150.718 76.8697 151.444 76.9238 152.154 76.9238L152.291 76.9232L152.294 77.3232L152.154 77.3238ZM154.718 77.0668L154.634 76.6757C155.457 76.4984 156.193 76.2277 156.82 75.8711L157.018 76.2187C156.355 76.5957 155.581 76.881 154.718 77.0668ZM147.5 76.6787C146.716 76.4841 145.937 76.2509 145.183 75.9855L145.315 75.6082C146.058 75.8695 146.825 76.099 147.596 76.2904L147.5 76.6787ZM142.943 75.0722C142.208 74.7293 141.489 74.348 140.806 73.9388L141.011 73.5955C141.683 73.9978 142.39 74.3726 143.112 74.7097L142.943 75.0722ZM158.854 74.5715L158.526 74.3433C158.65 74.164 158.764 73.9734 158.864 73.7767C159.111 73.2892 159.271 72.7631 159.339 72.2131L159.736 72.2619C159.662 72.8582 159.489 73.4287 159.221 73.9576C159.113 74.1707 158.989 74.3773 158.854 74.5715ZM137.899 72.8097L137.501 72.7703C137.538 72.3996 137.59 72.0283 137.658 71.6582C137.417 71.4484 137.182 71.234 136.955 71.0162L137.231 70.7271C137.4 70.8882 137.572 71.0474 137.748 71.2043C137.807 70.9277 137.875 70.6525 137.951 70.3797L138.336 70.4867C138.243 70.8238 138.162 71.164 138.094 71.5062C138.4 71.7679 138.717 72.0222 139.04 72.2672L138.799 72.5859C138.531 72.3834 138.268 72.1744 138.011 71.9601C137.965 72.2431 137.928 72.5267 137.899 72.8097ZM159.133 69.9177C158.931 69.2068 158.61 68.489 158.177 67.784L158.518 67.5746C158.97 68.3109 159.306 69.0627 159.517 69.8088L159.133 69.9177ZM135.31 69.2373C135.143 69.033 134.981 68.825 134.822 68.6134C134.499 68.1818 134.19 67.7269 133.904 67.2613L134.245 67.0519C134.524 67.507 134.826 67.9517 135.142 68.3736C135.297 68.5808 135.457 68.7841 135.62 68.9841L135.31 69.2373ZM139.161 68.2724L138.8 68.1009C139.153 67.3564 139.569 66.6511 140.036 66.0052L140.36 66.2396C139.907 66.8658 139.504 67.5498 139.161 68.2724ZM156.731 65.9283C156.529 65.7189 156.316 65.5162 156.1 65.3258C155.729 64.9998 155.336 64.6892 154.931 64.4027L155.162 64.0761C155.579 64.3709 155.983 64.6902 156.364 65.0254C156.588 65.2228 156.809 65.433 157.019 65.6502L156.731 65.9283ZM132.776 65.115C132.448 64.3785 132.167 63.6127 131.939 62.839L132.323 62.7261C132.546 63.483 132.821 64.232 133.141 64.9525L132.776 65.115ZM141.925 64.4828L141.656 64.1863C142.275 63.6259 142.944 63.1496 143.645 62.7707L143.835 63.1226C143.162 63.4863 142.52 63.9439 141.925 64.4828ZM152.893 63.2062C152.167 62.8609 151.422 62.5888 150.678 62.3976L150.778 62.0101C151.546 62.2078 152.316 62.4886 153.065 62.8449L152.893 63.2062ZM146.022 62.2916L145.93 61.9021L145.997 61.8869C146.76 61.7156 147.562 61.642 148.363 61.6631L148.352 62.0631C147.584 62.0427 146.815 62.1134 146.084 62.2771L146.022 62.2916ZM131.411 60.4724C131.287 59.6672 131.22 58.8537 131.21 58.0549L131.61 58.0498C131.62 58.83 131.686 59.6248 131.806 60.4119L131.411 60.4724ZM131.754 55.6863L131.358 55.632C131.469 54.8218 131.643 54.0234 131.876 53.2586L132.258 53.375C132.032 54.1195 131.862 54.8972 131.754 55.6863ZM133.133 51.1806L132.776 51.0002C133.138 50.2849 133.571 49.5904 134.062 48.9359L134.382 49.1761C133.904 49.8121 133.484 50.4865 133.133 51.1806ZM135.956 47.4123L135.681 47.122C136.268 46.565 136.905 46.0527 137.575 45.5998L137.799 45.931C137.148 46.3718 136.528 46.8703 135.956 47.4123ZM139.86 44.7744L139.695 44.4103C140.442 44.0709 141.214 43.7994 141.989 43.6033L142.087 43.9912C141.336 44.1812 140.586 44.4449 139.86 44.7744ZM146.768 43.7515C145.999 43.6308 145.203 43.5914 144.417 43.634L144.396 43.2345C145.21 43.1914 146.033 43.2314 146.83 43.3562L146.768 43.7515Z"
    fill="#D6D4F6" />
  <path d="M170.374 38.6753L143.848 41.1589L145.236 43.0757L170.374 38.6753Z" fill="#DADAF5" />
  <path d="M170.375 38.6753L137.468 49.9209L142.94 42.7573L170.375 38.6753Z" fill="#EAEAFA" />
  <path d="M170.374 38.6754L148.975 37.7566L143.848 41.159L170.374 38.6754Z" fill="#EAEAFA" />
  <path d="M144.245 47.5986L146.653 50.4846L170.374 38.6758L144.245 47.5986Z" fill="#DADAF5" />
  <path d="M144.245 47.5986L145.233 48.7826L170.374 38.6758L144.245 47.5986Z" fill="#C8C8EE" />
  <path d="M31.8786 168.955L35.4006 169.035L36.0722 161.925L31.665 161.952L31.8786 168.955Z"
    fill="#FFC1CD" />
  <path
    d="M31.467 173.216C32.4164 173.767 43.2439 174.309 42.9902 173.245C42.7602 172.281 37.0679 169.349 36.0014 168.807C35.8969 168.754 35.8319 168.63 35.8344 168.494C35.8379 168.309 35.7164 168.157 35.5631 168.153L31.934 168.071C31.7842 168.067 31.665 168.208 31.6522 168.388C31.5892 169.269 30.8996 170.12 30.7139 170.862C30.5088 171.691 30.5175 172.666 31.467 173.216Z"
    fill="#0A121F" />
  <path d="M19.5158 169.106L23.0374 169.186L23.7094 162.076L19.3018 162.103L19.5158 169.106Z"
    fill="#FFC1CD" />
  <path
    d="M19.0421 173.428C19.9916 173.978 30.8191 174.52 30.5654 173.457C30.3354 172.493 24.6431 169.561 23.5766 169.019C23.4721 168.966 23.407 168.842 23.4096 168.705C23.4131 168.52 23.2916 168.368 23.1383 168.364L19.5091 168.282C19.3594 168.279 19.2402 168.42 19.2274 168.599C19.1644 169.48 18.4748 170.332 18.2891 171.074C18.084 171.902 18.0927 172.877 19.0421 173.428Z"
    fill="#0A121F" />
  <path
    d="M13.9141 110.945C13.9141 110.945 15.2605 130.046 15.2605 133.519C15.2605 136.991 17.8325 163.938 18.2419 164.678C18.8148 165.713 25.8022 164.511 26.1282 163.616L24.9462 119.859C24.9462 119.859 30.0193 164.787 30.6926 164.787C31.3658 164.787 37.1363 167.874 37.6171 163.533C38.098 159.192 35.3308 105.465 35.3308 105.465C35.3308 105.465 16.4146 103.228 13.9141 110.945Z"
    fill="#0E0063" />
  <path
    d="M12.108 103.132C12.3801 107.034 13.8158 113.883 15.4601 113.744C17.1043 113.611 19.2232 110.873 20.1148 109.298C21.0064 107.723 24.9085 109.842 27.0331 109.298C29.1521 108.748 29.9047 108.198 30.7268 107.584C31.5489 106.97 34.3568 108.545 35.1789 107.926C36.0009 107.312 33.9457 104.435 33.9457 104.435C33.9457 104.435 37.9173 79.1753 35.723 75.8871C33.5346 72.5986 21.0758 69.588 15.3906 73.2875C14.0764 74.1387 13.1849 75.9855 12.5886 78.3649C12.1312 80.1712 11.8475 82.2785 11.6854 84.5017C11.6854 84.5075 11.6854 84.5075 11.6854 84.5133C11.1296 92.0396 11.9459 100.816 12.108 103.132Z"
    fill="#E8468A" />
  <path opacity="0.5"
    d="M31.6498 81.0308C31.9505 86.0319 31.2178 92.5676 31.5185 97.5688C31.6313 99.4963 32.7944 99.8984 33.5171 101.832C33.7245 102.385 33.9921 102.938 34.3111 103.481L34.0143 105.16C31.9904 104.106 29.9679 103.053 27.9424 101.997L28.2394 100.893C28.9139 94.1987 30.0495 87.5678 31.6498 81.0308Z"
    fill="#E8468A" />
  <path
    d="M20.2071 79.5854C20.1679 81.1288 20.1632 82.6724 20.1655 84.217C20.1864 85.761 20.2293 87.3053 20.3035 88.8496C20.3681 90.3948 20.5082 91.9366 20.6891 93.4767C20.8922 95.014 21.1036 96.5569 21.6405 98.0639C21.7831 98.4379 21.9548 98.8105 22.2235 99.1568C22.353 99.3297 22.5317 99.4941 22.7554 99.6091C22.871 99.6483 23.0227 99.7117 23.1134 99.7123L23.4108 99.7414C24.2019 99.8152 24.9725 99.8184 25.7486 99.8276C27.2969 99.8302 28.8412 99.8105 30.3844 99.7406C33.4704 99.6207 36.5525 99.4457 39.6292 99.1817L30.374 99.2953C28.8327 99.2949 27.2915 99.3307 25.7545 99.3007C24.9886 99.2833 24.2142 99.2697 23.4699 99.1913L23.1918 99.1613C23.0877 99.1555 23.0662 99.1153 22.9967 99.104C22.8823 99.0398 22.7662 98.9424 22.6672 98.8046C22.4648 98.5403 22.3089 98.2033 22.1807 97.8573C21.6621 96.4584 21.4257 94.9223 21.2107 93.4097C21.0061 91.8882 20.8794 90.3548 20.7459 88.8208C20.498 85.7508 20.3713 82.6688 20.2071 79.5854ZM32.3887 106.443L31.1613 106.623C31.5724 106.606 31.9834 106.542 32.3887 106.443Z"
    fill="#BD346C" />
  <path
    d="M13 99.6179C13.3879 101.667 13.8974 103.781 15.2232 105.384C16.9079 107.422 19.681 108.308 22.321 108.308C24.9667 108.314 27.543 107.544 30.073 106.785L31.1614 106.623C28.8341 106.745 26.472 105.651 24.7352 104.041C22.6857 102.148 21.3483 99.6295 20.121 97.1286C17.1568 91.0729 14.6385 84.7913 12.589 78.365C12.1316 80.1714 11.8479 82.2786 11.6858 84.5018C11.6858 84.5076 11.6858 84.5076 11.6858 84.5134C11.6163 89.5792 12.0563 94.6507 13 99.6179Z"
    fill="#BD346C" />
  <path
    d="M37.5684 104.908H41.6615C42.8947 104.908 44.1568 104.908 45.3089 104.463C46.2988 104.081 47.1557 103.374 47.7288 102.477C47.8851 102.222 48.0241 101.95 48.0588 101.655C48.0878 101.36 47.9951 101.035 47.7636 100.85C47.4393 100.595 46.982 100.671 46.5825 100.763C45.9515 100.902 45.3205 101.041 44.6952 101.18C44.4463 101.238 44.1915 101.29 43.9483 101.244C43.6994 101.198 43.4563 101.024 43.4157 100.775C43.3752 100.549 43.5083 100.329 43.6646 100.161C43.8268 99.9991 44.0178 99.8659 44.1568 99.6864C44.3015 99.5069 44.3767 99.2464 44.2668 99.0495C44.1394 98.818 43.821 98.766 43.5778 98.8528C43.3289 98.9396 43.1378 99.1306 42.941 99.2986C41.8989 100.167 40.4747 100.555 39.1373 100.329L37.5684 104.908Z"
    fill="#FFC1CD" />
  <path
    d="M16.5146 73.8631C17.7582 74.1563 18.7526 75.0862 19.2756 76.2519C19.7095 77.2188 20.1787 78.5034 20.207 79.5854C20.2604 81.6231 20.2806 99.0094 23.0898 99.4304C25.899 99.8514 39.6292 99.1817 39.6292 99.1817C39.6292 99.1817 42.2488 104.407 40.7964 105.732C39.6678 106.678 21.2678 107.85 17.9187 105.639C15.1765 103.133 11.772 89.6486 11.9083 82.8064C12.0232 77.0333 13.2589 73.0955 16.5146 73.8631Z"
    fill="#E8468A" />
  <path
    d="M21.8262 72.5973C21.8262 75.5277 22.5493 77.8485 23.479 78.7989C23.7717 79.1019 24.085 79.2637 24.4053 79.2637C24.5396 79.2637 24.667 79.2327 24.7944 79.1708C25.1663 78.9951 25.5107 78.5716 25.8033 77.9586C26.4093 76.6915 26.8054 74.6151 26.8054 72.2667C26.8054 71.9224 26.795 71.5849 26.7778 65.8103H21.8778C21.8709 66.8295 21.8675 67.687 21.8606 68.4102C21.8365 71.8501 21.8262 72.222 21.8262 72.5973Z"
    fill="#FFA6BB" />
  <path
    d="M21.8262 72.5972C21.8262 75.5277 22.5493 77.8484 23.479 78.7989C23.6512 78.8643 23.8233 78.9193 23.9989 78.9711C24.2606 79.0503 24.5258 79.119 24.7944 79.1708C25.1663 78.9951 25.5107 78.5716 25.8033 77.9586C25.5795 77.9897 25.3522 77.9621 25.1491 77.8589C24.6566 77.6109 24.4535 77.0254 24.2917 76.4951C23.7476 74.684 23.2035 72.8693 22.6595 71.0581C22.3943 70.1731 22.1292 69.2915 21.8606 68.4102C21.8365 71.85 21.8262 72.222 21.8262 72.5972Z"
    fill="#F58EA2" />
  <path
    d="M24.3161 79.2638C24.3797 79.247 25.5138 79.9902 26.0259 80.2294C26.5536 80.4749 27.2897 80.1623 27.2897 80.1623C27.2897 80.1623 27.7372 73.2825 26.8063 72.1921C26.7894 72.3386 26.7975 72.9306 26.7905 73.0794C26.7457 73.9672 25.6203 77.9071 24.3161 79.2638ZM24.3161 79.2638C24.2526 79.2474 23.0211 79.9863 22.5042 80.228C21.9716 80.4759 21.2384 80.1682 21.2384 80.1682C21.2384 80.1682 20.8794 73.4196 21.8289 72.3264C21.8436 72.4724 21.8435 72.9563 21.8483 73.1048C21.8799 73.9902 23.029 77.9177 24.3161 79.2638Z"
    fill="#E1E0FF" />
  <path
    d="M29.0957 66.9814C29.453 67.4818 30.0271 67.8009 30.6304 67.9265C31.0839 68.0173 31.5506 68.0044 32.0091 67.9276C32.1778 67.8958 32.2213 67.6756 32.08 67.5776C31.3928 67.114 29.9137 66.1003 29.0856 65.418C28.9742 65.3274 28.8048 65.3827 28.7738 65.5227C28.6683 66.0192 28.7962 66.5633 29.0957 66.9814Z"
    fill="#AA6464" />
  <path
    d="M25.0672 70.8502C25.3588 71.0365 25.6518 71.2203 25.9462 71.4016C26.1312 71.513 26.3204 71.6245 26.5054 71.7359C27.1294 70.1383 28.2212 68.8647 28.2212 68.8647C28.2212 68.8647 28.267 68.8761 28.3542 68.8864C28.9032 68.9726 30.9857 69.2574 31.8636 68.9007C32.789 67.7721 33.1956 66.2625 33.2693 64.5207L33.2691 64.5124C33.2968 64.4579 33.3292 64.4282 33.3704 64.4189C33.6464 64.3541 34.2374 64.464 34.4381 64.2022C34.6348 63.9407 33.262 61.6624 33.262 61.6624C33.2308 61.5678 33.1829 61.4737 33.1265 61.3673C32.974 60.0329 32.7118 58.6224 32.4158 57.1797C30.7218 52.9289 26.9129 56.2735 25.9415 56.3592C24.9659 56.4493 21.0486 59.0796 20.6504 60.2534C20.415 60.9675 20.6477 63.5554 20.8615 65.7086C20.9586 66.6341 21.0455 67.4854 21.0969 68.0684C21.414 68.3299 21.7472 68.5747 22.0762 68.8151C23.0527 69.5221 24.051 70.2011 25.0672 70.8502Z"
    fill="#FFA6BB" />
  <path
    d="M17.3841 60.5044C16.9666 61.7833 17.1988 63.2125 17.7864 64.4243C18.4372 65.7622 19.5104 66.8879 20.8139 67.6046C20.9363 67.7727 21.0726 67.9277 21.226 68.0698C21.6633 68.4754 22.2388 68.7477 22.8359 68.7455C23.6847 68.7408 24.4671 68.157 24.8455 67.3969C24.867 67.3507 24.8885 67.3043 24.91 67.2579C25.4914 66.6649 25.1166 65.4025 25.0718 65.1093C25.0459 64.9642 24.9983 64.8756 24.9128 64.8193C24.6924 64.6719 24.4858 64.5147 24.2966 64.338C24.0095 64.0676 23.774 63.7554 23.6309 63.3821C23.5934 63.2904 23.5562 63.1887 23.5091 63.0799C23.1086 62.1185 23.7671 61.1924 24.4535 60.8977C24.8138 60.7408 25.4741 61.428 26.0239 62.1087C26.5121 62.7205 26.9198 63.3298 26.9497 63.3408C27.0028 63.3591 27.094 63.4492 27.1424 63.0647C27.1424 63.0647 27.1425 63.0615 27.1426 63.0582C27.2633 62.6157 27.414 61.2817 27.5033 60.2043C27.5035 60.2009 27.5035 60.2009 27.5035 60.2009L27.504 60.1842C27.5707 59.4146 28.123 58.7804 28.8728 58.6118C31.1861 58.0942 35.8158 56.8443 36.1173 56.3C37.2697 54.2279 34.605 52.3701 32.2386 52.534C32.1814 52.5388 32.1277 52.5406 32.0772 52.5458C32.0526 52.3607 32.0145 52.1749 31.9629 51.9957C31.7074 51.1192 31.0667 50.3384 30.2142 50.0177C29.3584 49.6968 28.3024 49.9 27.7014 50.5863C27.0565 49.8841 26.2447 49.3456 25.3599 49.0005C25.359 49.0003 25.3582 49.0001 25.3573 48.9999C25.1036 48.9587 24.8495 48.9309 24.5914 48.9264C23.5623 48.9023 22.4714 49.262 21.8628 50.0925C21.5688 50.4995 21.3996 50.9943 21.0631 51.3665C20.5077 51.9873 19.5972 52.1478 18.7626 52.1261C18.7581 52.126 18.7536 52.1259 18.7491 52.1258C17.8555 52.1042 17.062 52.7017 16.8823 53.5774C16.6072 54.9182 16.7606 56.3489 17.3475 57.5883C17.5433 57.9933 17.7828 58.3962 17.8196 58.8469C17.8627 59.4218 17.5649 59.9563 17.3841 60.5044Z"
    fill="#0B0B3A" />
  <path
    d="M17.3832 60.5044C16.9657 61.7833 17.1979 63.2125 17.7855 64.4243C18.4363 65.7622 19.5095 66.8879 20.813 67.6046C20.9354 67.7727 21.0717 67.9277 21.2251 68.0698C21.6624 68.4754 22.2379 68.7477 22.835 68.7455C23.0296 68.7446 23.2218 68.7135 23.4046 68.6551C22.8612 68.6557 22.3387 68.4051 21.9406 68.0343C21.7969 67.9059 21.6737 67.7613 21.561 67.6069C20.363 66.9505 19.3744 65.9145 18.7774 64.6822C18.2372 63.5691 18.0217 62.2545 18.4058 61.0785C18.5718 60.5769 18.8482 60.0855 18.8072 59.5542C18.7726 59.1406 18.5522 58.7717 18.3723 58.3972C17.8328 57.2573 17.6912 55.9416 17.9462 54.7113C18.1113 53.9045 18.8389 53.3562 19.6602 53.3741L19.6736 53.3745C20.441 53.3975 21.2774 53.2482 21.791 52.6766C22.0998 52.337 22.2543 51.882 22.5238 51.5077C23.0835 50.743 24.0864 50.4108 25.035 50.4326C25.2696 50.4396 25.5037 50.4633 25.7374 50.5005L25.7408 50.5006C26.553 50.8203 27.2996 51.3155 27.8941 51.9607C28.4464 51.33 29.4181 51.141 30.2043 51.4363C30.9871 51.7315 31.576 52.4502 31.8101 53.2557C31.8588 53.4215 31.894 53.5902 31.9157 53.7621C31.9628 53.7568 32.0132 53.7548 32.0636 53.7496C33.9628 53.6189 36.0711 54.9031 35.8756 56.5007C36.002 56.4239 36.0844 56.3593 36.1164 56.3C37.2688 54.2279 34.6041 52.3701 32.2377 52.534C32.1805 52.5388 32.1268 52.5406 32.0763 52.5458C32.0517 52.3607 32.0136 52.1749 31.962 51.9957C31.7065 51.1192 31.0658 50.3384 30.2133 50.0177C29.3575 49.6968 28.3015 49.9 27.7005 50.5863C27.0541 49.8825 26.2451 49.3451 25.3598 49L25.3564 48.9999C25.1028 48.9587 24.8486 48.9309 24.5905 48.9264C23.5614 48.9023 22.4705 49.262 21.8619 50.0925C21.5679 50.4995 21.3987 50.9943 21.0622 51.3665C20.5068 51.9873 19.5963 52.1478 18.7617 52.1261L18.7483 52.1257C17.8533 52.1055 17.0605 52.7023 16.88 53.5758C16.6049 54.9193 16.7598 56.3496 17.3466 57.5883C17.5424 57.9933 17.7819 58.3962 17.8187 58.8469C17.8618 59.4218 17.564 59.9563 17.3832 60.5044Z"
    fill="#0B0B3A" />
  <path
    d="M30.0586 66.6627C30.2871 66.928 30.6293 67.0793 30.978 67.1193C31.2399 67.1473 31.5039 67.1158 31.76 67.0485C31.854 67.0218 31.8673 66.8947 31.7821 66.8463C31.3683 66.619 30.477 66.1206 29.9719 65.7765C29.9041 65.7308 29.8109 65.771 29.8005 65.852C29.7664 66.1391 29.8671 66.441 30.0586 66.6627Z"
    fill="white" />
  <path
    d="M31.5869 61.7122C31.5989 61.3724 31.4849 61.0926 31.3324 61.0872C31.1798 61.0818 31.0464 61.3529 31.0344 61.6926C31.0224 62.0324 31.1364 62.3122 31.2889 62.3176C31.4415 62.323 31.5749 62.0519 31.5869 61.7122Z"
    fill="#230E0D" />
  <path
    d="M32.0587 60.6018C32.1193 60.3502 31.9628 60.0501 31.7094 59.9103C31.4507 59.7541 31.1313 59.7605 30.8688 59.8513C30.3407 60.0397 29.9842 60.5932 30.0856 61.0992C30.3814 60.7002 30.6903 60.4521 31.0378 60.3251C31.2081 60.2593 31.3844 60.2399 31.5537 60.2694C31.7238 60.3101 31.9191 60.3921 32.0587 60.6018Z"
    fill="#F58EA2" />
  <path
    d="M24.7412 103.986C26.5012 104.044 28.267 104.072 30.0328 104.078C31.9548 104.09 36.0193 103.904 37.8719 103.388C41.5366 102.358 42.4394 99.4469 43.4062 95.7648L45.3168 93.3101C38.8674 96.0079 32.528 98.9605 26.3101 102.156C25.6212 102.509 24.8801 102.932 24.5038 103.58C24.4054 103.754 24.5386 103.98 24.7412 103.986Z"
    fill="#3E22B3" />
  <path
    d="M34.2182 103.065C35.0634 105.393 50.2606 99.7363 51.9858 98.7347C53.7053 97.733 57.9606 83.5375 57.9953 81.8931C58.0358 80.249 57.5958 80.6484 57.4742 80.6484C57.4545 80.2004 40.8515 86.7088 37.8308 88.0705C34.9555 89.3666 33.3787 100.738 34.2182 103.065Z"
    fill="#5731EB" />
  <path
    d="M46.906 93.2183C47.1907 92.4954 47.1032 91.784 46.7107 91.6294C46.3181 91.4748 45.769 91.9354 45.4843 92.6583C45.1996 93.3813 45.287 94.0926 45.6796 94.2473C46.0722 94.4019 46.6213 93.9412 46.906 93.2183Z"
    fill="#E1E0FF" />
  <path d="M160.644 153.203L160.414 153.251L160.604 153.318L160.644 153.203Z" fill="#231F20" />
  <path d="M160.644 153.798L160.414 153.845L160.604 153.912L160.644 153.798Z" fill="#231F20" />
  <path d="M160.644 154.392L160.414 154.439L160.604 154.506L160.644 154.392Z" fill="#231F20" />
  <path d="M160.644 154.986L160.414 155.033L160.604 155.1L160.644 154.986Z" fill="#231F20" />
  <path d="M160.644 155.581L160.414 155.628L160.604 155.695L160.644 155.581Z" fill="#231F20" />
  <path d="M160.644 156.175L160.414 156.222L160.604 156.289L160.644 156.175Z" fill="#231F20" />
  <path d="M160.644 156.769L160.414 156.816L160.604 156.883L160.644 156.769Z" fill="#231F20" />
  <path d="M160.644 157.363L160.414 157.41L160.604 157.477L160.644 157.363Z" fill="#231F20" />
  <path d="M160.644 157.958L160.414 158.005L160.604 158.072L160.644 157.958Z" fill="#231F20" />
  <path d="M160.644 158.552L160.414 158.599L160.604 158.666L160.644 158.552Z" fill="#231F20" />
  <path d="M160.644 159.146L160.414 159.193L160.604 159.26L160.644 159.146Z" fill="#231F20" />
  <path d="M160.644 159.74L160.414 159.788L160.604 159.854L160.644 159.74Z" fill="#231F20" />
  <path d="M160.644 160.335L160.414 160.382L160.604 160.449L160.644 160.335Z" fill="#231F20" />
  <path d="M160.644 160.929L160.414 160.976L160.604 161.043L160.644 160.929Z" fill="#231F20" />
  <path d="M167.404 153.571L167.807 153.599L167.524 153.401L167.404 153.571Z" fill="#231F20" />
  <path d="M166.835 155.865L167.238 155.893L166.955 155.695L166.835 155.865Z" fill="#231F20" />
  <path d="M166.373 158.086L166.776 158.114L166.493 157.915L166.373 158.086Z" fill="#231F20" />
  <path d="M165.911 160.307L166.314 160.335L166.031 160.136L165.911 160.307Z" fill="#231F20" />
  <path d="M165.448 162.527L165.852 162.555L165.568 162.357L165.448 162.527Z" fill="#231F20" />
  <path
    d="M163.546 162.868H161.559C161.024 162.868 160.587 162.43 160.587 161.895V134.4C160.587 133.866 161.024 133.428 161.559 133.428H163.546C164.081 133.428 164.518 133.866 164.518 134.4V161.895C164.518 162.43 164.081 162.868 163.546 162.868Z"
    fill="#53B0A6" />
  <path
    d="M160.754 134.608C160.754 134.608 161.745 133.611 162.552 136.049C163.36 138.487 162.955 162.825 162.955 162.825C162.955 162.825 164.884 163.172 164.518 156.59V137.085C164.518 137.085 165.044 134.16 163.387 133.621C162.315 133.272 160.921 133.823 160.754 134.608Z"
    fill="#5EBFB1" />
  <path
    d="M164.434 155.798C164.434 155.798 164.251 151.406 166.324 148.116C168.396 144.826 171.017 142.876 172.053 140.621C173.089 138.366 173.76 137.329 174.004 136.781C174.247 136.232 176.198 134.891 177.356 136.781C178.514 138.67 177.295 142.571 174.552 144.826C171.809 147.082 169.067 150.251 167.787 153.055C166.507 155.859 166.019 162.015 166.019 162.015L165.958 162.868H163.459L164.434 155.798Z"
    fill="#53B0A6" />
  <path
    d="M177.792 138.418C177.792 138.418 179.072 137.32 179.438 137.93C179.803 138.539 179.011 138.844 177.792 138.418Z"
    fill="#99CC6A" />
  <path
    d="M175.158 144.206C175.158 144.206 177.368 144.058 177.273 144.987C177.178 145.916 176.105 145.613 175.158 144.206Z"
    fill="#5EBFB1" />
  <path
    d="M167.926 152.111C167.926 152.111 171.084 151.9 170.949 153.228C170.814 154.556 169.279 154.123 167.926 152.111ZM163.32 137.484C163.32 137.484 166.118 135.471 166.757 136.776C167.396 138.081 165.729 138.565 163.32 137.484ZM161.245 140.888C161.245 140.888 159.837 138.019 158.744 138.807C157.65 139.594 158.802 140.718 161.245 140.888ZM160.962 149.071C160.962 149.071 159.265 147.85 158.878 148.641C158.49 149.433 159.501 149.726 160.962 149.071ZM161.622 154.102C161.622 154.102 158.428 151.803 157.698 153.293C156.968 154.783 158.871 155.335 161.622 154.102ZM172.07 140.75C172.07 140.75 170.498 139.854 170.981 139.263C171.465 138.673 172.06 139.364 172.07 140.75ZM168.924 146.198C168.924 146.198 166.266 144.682 167.084 143.684C167.901 142.686 168.907 143.854 168.924 146.198Z"
    fill="#53B0A6" />
  <path
    d="M175.451 135.845C175.451 135.845 176.259 140.803 173.333 143.546C170.407 146.289 167.969 149.296 166.568 152.394C165.166 155.493 163.459 162.868 163.459 162.868H165.958C165.958 162.868 166.447 155.96 167.489 153.805C168.531 151.649 170.55 147.702 173.982 145.309C177.729 142.698 179.528 135.775 175.451 135.845Z"
    fill="#5EBFB1" />
  <path d="M160.644 139.535L160.414 139.582L160.604 139.649L160.644 139.535Z" fill="#231F20" />
  <path d="M160.644 140.129L160.414 140.177L160.604 140.243L160.644 140.129Z" fill="#231F20" />
  <path d="M160.644 140.724L160.414 140.771L160.604 140.838L160.644 140.724Z" fill="#231F20" />
  <path d="M160.665 140.793L160.395 140.849L160.618 140.927L160.665 140.793Z" fill="#231F20" />
  <path d="M160.665 141.492L160.395 141.547L160.618 141.626L160.665 141.492Z" fill="#231F20" />
  <path d="M160.665 142.19L160.395 142.245L160.618 142.324L160.665 142.19Z" fill="#231F20" />
  <path d="M160.665 142.889L160.395 142.944L160.618 143.023L160.665 142.889Z" fill="#231F20" />
  <path d="M160.665 143.587L160.395 143.642L160.618 143.721L160.665 143.587Z" fill="#231F20" />
  <path d="M160.665 144.285L160.395 144.341L160.618 144.419L160.665 144.285Z" fill="#231F20" />
  <path d="M160.665 144.984L160.395 145.039L160.618 145.118L160.665 144.984Z" fill="#231F20" />
  <path d="M160.665 145.682L160.395 145.737L160.618 145.816L160.665 145.682Z" fill="#231F20" />
  <path d="M160.665 146.381L160.395 146.436L160.618 146.515L160.665 146.381Z" fill="#231F20" />
  <path d="M160.665 147.079L160.395 147.134L160.618 147.213L160.665 147.079Z" fill="#231F20" />
  <path d="M160.665 147.777L160.395 147.832L160.618 147.911L160.665 147.777Z" fill="#231F20" />
  <path d="M160.644 147.855L160.414 147.902L160.604 147.969L160.644 147.855Z" fill="#231F20" />
  <path d="M160.644 148.449L160.414 148.497L160.604 148.563L160.644 148.449Z" fill="#231F20" />
  <path d="M160.644 149.044L160.414 149.091L160.604 149.158L160.644 149.044Z" fill="#231F20" />
  <path d="M160.644 149.638L160.414 149.685L160.604 149.752L160.644 149.638Z" fill="#231F20" />
  <path d="M160.644 150.232L160.414 150.279L160.604 150.346L160.644 150.232Z" fill="#231F20" />
  <path d="M160.644 150.827L160.414 150.873L160.604 150.941L160.644 150.827Z" fill="#231F20" />
  <path d="M160.644 151.421L160.414 151.468L160.604 151.535L160.644 151.421Z" fill="#231F20" />
  <path d="M160.644 152.015L160.414 152.062L160.604 152.129L160.644 152.015Z" fill="#231F20" />
  <path d="M160.644 152.609L160.414 152.657L160.604 152.723L160.644 152.609Z" fill="#231F20" />
  <path d="M160.645 134.826L160.318 134.892L160.588 134.988L160.645 134.826Z" fill="#231F20" />
  <path d="M160.645 135.669L160.318 135.736L160.588 135.831L160.645 135.669Z" fill="#231F20" />
  <path d="M160.645 136.512L160.318 136.579L160.588 136.674L160.645 136.512Z" fill="#231F20" />
  <path d="M160.645 137.355L160.318 137.422L160.588 137.517L160.645 137.355Z" fill="#231F20" />
  <path d="M160.645 138.198L160.318 138.265L160.588 138.36L160.645 138.198Z" fill="#231F20" />
  <path d="M160.645 139.042L160.318 139.108L160.588 139.204L160.645 139.042Z" fill="#231F20" />
  <path d="M160.645 139.885L160.318 139.951L160.588 140.047L160.645 139.885Z" fill="#231F20" />
  <path d="M160.645 134.423L160.318 134.49L160.588 134.585L160.645 134.423Z" fill="#231F20" />
  <path d="M160.965 133.381L160.636 133.329L160.854 133.512L160.965 133.381Z" fill="#231F20" />
  <path d="M161.303 133.877L161.071 133.84L161.225 133.969L161.303 133.877Z" fill="#231F20" />
  <path d="M161.965 133.536L161.773 133.4L161.855 133.585L161.965 133.536Z" fill="#231F20" />
  <path d="M166.574 147.93L166.244 147.697L166.384 148.014L166.574 147.93Z" fill="#231F20" />
  <path d="M167.569 146.583L167.238 146.349L167.378 146.667L167.569 146.583Z" fill="#231F20" />
  <path d="M169.274 144.248L168.944 144.015L169.084 144.332L169.274 144.248Z" fill="#231F20" />
  <path d="M170.731 142.695L170.401 142.462L170.541 142.779L170.731 142.695Z" fill="#231F20" />
  <path d="M172.032 141.014L171.702 140.781L171.842 141.098L172.032 141.014Z" fill="#231F20" />
  <path d="M173.059 138.691L172.729 138.458L172.868 138.775L173.059 138.691Z" fill="#231F20" />
  <path d="M174.187 136.591L173.856 136.359L173.996 136.675L174.187 136.591Z" fill="#231F20" />
  <path d="M175.811 135.844L175.636 135.479L175.604 135.824L175.811 135.844Z" fill="#231F20" />
  <path d="M177.305 136.649L177.427 136.264L177.167 136.493L177.305 136.649Z" fill="#231F20" />
  <path d="M177.441 140.649L177.772 140.417L177.427 140.441L177.441 140.649Z" fill="#231F20" />
  <path d="M176.217 142.963L176.602 143.088L176.374 142.827L176.217 142.963Z" fill="#231F20" />
  <path d="M174.426 145.004L174.81 145.128L174.583 144.867L174.426 145.004Z" fill="#231F20" />
  <path d="M172.865 146.192L173.25 146.317L173.022 146.056L172.865 146.192Z" fill="#231F20" />
  <path d="M171.51 147.573L171.895 147.697L171.667 147.435L171.51 147.573Z" fill="#231F20" />
  <path d="M170.017 149.107L170.401 149.231L170.173 148.97L170.017 149.107Z" fill="#231F20" />
  <path d="M168.559 151.475L168.962 151.503L168.678 151.305L168.559 151.475Z" fill="#231F20" />
  <path d="M177.63 139.053L177.967 138.829L177.621 138.845L177.63 139.053Z" fill="#231F20" />
  <path d="M162.629 133.407L162.477 133.228L162.51 133.427L162.629 133.407Z" fill="#231F20" />
  <path d="M164.489 135.012L164.605 134.808L164.43 134.907L164.489 135.012Z" fill="#231F20" />
  <path d="M164.577 135.805L164.693 135.601L164.518 135.7L164.577 135.805Z" fill="#231F20" />
  <path d="M164.533 136.577L164.737 136.46L164.536 136.457L164.533 136.577Z" fill="#231F20" />
  <path d="M164.494 138.347L164.698 138.229L164.497 138.226L164.494 138.347Z" fill="#231F20" />
  <path d="M164.494 139.435L164.698 139.317L164.497 139.313L164.494 139.435Z" fill="#231F20" />
  <path d="M164.494 140.522L164.698 140.405L164.497 140.401L164.494 140.522Z" fill="#231F20" />
  <path d="M164.494 141.61L164.698 141.493L164.497 141.489L164.494 141.61Z" fill="#231F20" />
  <path d="M164.494 142.698L164.698 142.581L164.497 142.577L164.494 142.698Z" fill="#231F20" />
  <path d="M164.494 143.785L164.698 143.668L164.497 143.665L164.494 143.785Z" fill="#231F20" />
  <path d="M164.494 144.873L164.698 144.756L164.497 144.752L164.494 144.873Z" fill="#231F20" />
  <path d="M164.494 145.961L164.698 145.844L164.497 145.84L164.494 145.961Z" fill="#231F20" />
  <path d="M164.494 147.049L164.698 146.932L164.497 146.928L164.494 147.049Z" fill="#231F20" />
  <path d="M164.494 148.137L164.698 148.019L164.497 148.016L164.494 148.137Z" fill="#231F20" />
  <path d="M164.494 149.224L164.698 149.107L164.497 149.103L164.494 149.224Z" fill="#231F20" />
  <path d="M164.494 150.312L164.698 150.195L164.497 150.191L164.494 150.312Z" fill="#231F20" />
  <path d="M164.494 151.4L164.698 151.283L164.497 151.279L164.494 151.4Z" fill="#231F20" />
  <path d="M164.494 152.488L164.698 152.371L164.497 152.367L164.494 152.488Z" fill="#231F20" />
  <path d="M164.009 134.088L164.027 133.854L163.91 134.018L164.009 134.088Z" fill="#231F20" />
  <path d="M163.313 133.609L163.332 133.375L163.215 133.539L163.313 133.609Z" fill="#231F20" />
  <path
    d="M176.991 138.716C176.991 138.716 179.885 136.236 180.712 137.614C181.538 138.991 179.747 139.68 176.991 138.716Z"
    fill="#5EBFB1" />
  <path
    d="M173.921 156.308V164.735C173.921 164.88 173.913 165.018 173.905 165.163C173.881 165.608 173.816 166.037 173.711 166.449C172.943 169.531 170.161 171.811 166.837 171.811H163.82C160.505 171.811 157.723 169.531 156.954 166.449C156.849 166.037 156.785 165.608 156.76 165.163C156.752 165.018 156.744 164.88 156.744 164.735V156.308H173.921Z"
    fill="#FFC1CD" />
  <path
    d="M175.562 158.773H155.103C154.745 158.773 154.455 158.483 154.455 158.125V156.801C154.455 156.443 154.745 156.153 155.103 156.153H175.562C175.92 156.153 176.21 156.443 176.21 156.801V158.125C176.21 158.483 175.92 158.773 175.562 158.773Z"
    fill="#F58EA2" />
  <path d="M173.922 160.707H156.745V161.993H173.922V160.707Z" fill="#F58EA2" />
  <path
    d="M173.905 165.163C173.88 165.608 173.816 166.037 173.711 166.449H156.954C156.849 166.037 156.784 165.608 156.76 165.163H173.905Z"
    fill="#F58EA2" />
  <path
    d="M159.576 162.728C159.208 162.728 158.91 163.026 158.91 163.394C158.91 163.761 159.208 164.06 159.576 164.06C159.944 164.06 160.242 163.761 160.242 163.394C160.242 163.026 159.944 162.728 159.576 162.728ZM163.414 162.728C163.047 162.728 162.749 163.026 162.749 163.394C162.749 163.761 163.047 164.06 163.414 164.06C163.782 164.06 164.08 163.761 164.08 163.394C164.08 163.026 163.782 162.728 163.414 162.728ZM167.253 162.728C166.885 162.728 166.587 163.026 166.587 163.394C166.587 163.761 166.885 164.06 167.253 164.06C167.621 164.06 167.919 163.761 167.919 163.394C167.919 163.026 167.621 162.728 167.253 162.728ZM171.091 162.728C170.724 162.728 170.426 163.026 170.426 163.394C170.426 163.761 170.724 164.06 171.091 164.06C171.459 164.06 171.757 163.761 171.757 163.394C171.757 163.026 171.459 162.728 171.091 162.728Z"
    fill="#F58EA2" />
  <path
    d="M83.9478 34.5061V39.693C83.9478 40.821 83.0312 41.7377 81.9031 41.7377H73.3991L68.5647 44.1212L70.2904 41.7377H69.5719C68.4439 41.7377 67.5273 40.821 67.5273 39.693V34.5061C67.5273 33.378 68.4439 32.4614 69.5719 32.4614H81.9031C83.0312 32.4614 83.9478 33.378 83.9478 34.5061Z"
    fill="#FFA6BB" />
  <path
    d="M42.4033 32.8667V38.0536C42.4033 39.1816 43.3198 40.0983 44.4479 40.0983H52.9519L57.7864 42.4818L56.0607 40.0983H56.7792C57.9072 40.0983 58.8237 39.1816 58.8237 38.0536V32.8667C58.8237 31.7385 57.9072 30.822 56.7792 30.822H44.4479C43.3198 30.822 42.4033 31.7385 42.4033 32.8667Z"
    fill="#E8468A" />
  <path
    d="M81.8517 34.8656C81.8517 35.1141 81.6502 35.3154 81.3984 35.3154H70.0743C69.8225 35.3154 69.6211 35.1141 69.6211 34.8656C69.6211 34.6138 69.8225 34.4124 70.0743 34.4124H81.3984C81.6502 34.4124 81.8517 34.6138 81.8517 34.8656ZM81.8517 37.1052C81.8517 37.3536 81.6502 37.555 81.3984 37.555H70.0743C69.8225 37.555 69.6211 37.3536 69.6211 37.1052C69.6211 36.8534 69.8225 36.6519 70.0743 36.6519H81.3984C81.6502 36.6519 81.8517 36.8534 81.8517 37.1052ZM75.8086 39.3447C75.8086 39.5931 75.6071 39.7945 75.3553 39.7945H70.0743C69.8225 39.7945 69.6211 39.5931 69.6211 39.3447C69.6211 39.0929 69.8225 38.8914 70.0743 38.8914H75.3553C75.6071 38.8914 75.8086 39.0929 75.8086 39.3447Z"
    fill="white" />
  <path
    d="M46.4291 36.4068C47.0317 36.4068 47.5203 35.9182 47.5203 35.3156C47.5203 34.7129 47.0317 34.2244 46.4291 34.2244C45.8264 34.2244 45.3379 34.7129 45.3379 35.3156C45.3379 35.9182 45.8264 36.4068 46.4291 36.4068Z"
    fill="white" />
  <path
    d="M50.6137 36.4068C51.2163 36.4068 51.7049 35.9182 51.7049 35.3156C51.7049 34.7129 51.2163 34.2244 50.6137 34.2244C50.011 34.2244 49.5225 34.7129 49.5225 35.3156C49.5225 35.9182 50.011 36.4068 50.6137 36.4068Z"
    fill="white" />
  <path
    d="M54.7992 36.4068C55.4019 36.4068 55.8904 35.9182 55.8904 35.3156C55.8904 34.7129 55.4019 34.2244 54.7992 34.2244C54.1966 34.2244 53.708 34.7129 53.708 35.3156C53.708 35.9182 54.1966 36.4068 54.7992 36.4068Z"
    fill="white" />
  <path
    d="M54.8447 48.7234V53.9103C54.8447 55.0383 55.7613 55.955 56.8893 55.955H65.3933L70.2278 58.3385L68.5021 55.955H69.2206C70.3486 55.955 71.2651 55.0383 71.2651 53.9103V48.7234C71.2651 47.5952 70.3486 46.6787 69.2206 46.6787H56.8893C55.7613 46.6787 54.8447 47.5952 54.8447 48.7234Z"
    fill="#53B0A6" />
  <path
    d="M60.3393 48.5953C60.3242 48.4147 60.4299 48.2718 60.6029 48.2718H61.1441C61.3172 48.2718 61.4298 48.4147 61.4153 48.5953L61.1517 51.6641C61.1366 51.8296 61.0239 51.9347 60.8735 51.9347C60.7231 51.9347 60.618 51.8296 60.6029 51.6641L60.3393 48.5953ZM60.8735 52.484C61.1819 52.484 61.4077 52.7094 61.4077 53.0026V53.0781C61.4077 53.3713 61.1819 53.5972 60.8735 53.5972C60.5727 53.5972 60.3393 53.3713 60.3393 53.0781V53.0026C60.3393 52.7094 60.5727 52.484 60.8735 52.484ZM63.8529 51.9347C63.6798 51.9347 63.5516 51.807 63.5294 51.6339L63.454 50.9871C63.4238 50.7838 63.544 50.6334 63.7472 50.6108C64.4545 50.5434 64.8453 50.2723 64.8453 49.7984V49.7839C64.8453 49.3624 64.5219 49.0691 63.9806 49.0691C63.5817 49.0691 63.2583 49.212 62.9575 49.4826C62.8826 49.5429 62.7845 49.5882 62.6794 49.5882C62.4459 49.5882 62.2578 49.4001 62.2578 49.1742C62.2578 49.0616 62.3031 48.9413 62.4088 48.8508C62.8071 48.4751 63.3111 48.2266 64.0033 48.2266C65.0561 48.2266 65.7709 48.8136 65.7709 49.7537V49.7688C65.7709 50.7165 65.0862 51.145 64.2512 51.2879L64.2211 51.6339C64.1909 51.7994 64.0707 51.9347 63.8976 51.9347H63.8529ZM63.8529 52.484C64.1612 52.484 64.3865 52.7094 64.3865 53.0026V53.0781C64.3865 53.3713 64.1612 53.5972 63.8529 53.5972C63.544 53.5972 63.3187 53.3713 63.3187 53.0781V53.0026C63.3187 52.7094 63.544 52.484 63.8529 52.484Z"
    fill="white" />
</svg>