<svg xmlns="http://www.w3.org/2000/svg" width="200" height="200" viewBox="0 0 200 200" fill="none">
  <g clip-path="url(#clip0_200_12502)">
    <path d="M88.256 176.994L79.572 184.364C76.202 187.224 71.078 186.42 68.744 182.666L50.816 153.82L58.516 151.13L72.958 148.572L88.994 166.682C91.68 169.718 91.348 174.37 88.256 176.994Z" fill="url(#paint0_linear_200_12502)"/>
    <path d="M141.752 57.856C120.04 26.572 90.642 9.39797 76.094 19.496C73.732 21.134 71.908 23.39 70.6 26.154H70.598C70.22 26.958 69.886 27.8 69.594 28.684C64.736 43.356 71.72 69.044 88.434 93.504C88.644 93.812 88.854 94.12 89.066 94.424C106.998 120.258 130.17 136.47 145.89 135.646C147.536 135.56 149.102 135.288 150.572 134.818H150.578C152.066 134.34 153.45 133.664 154.726 132.782C169.274 122.684 163.466 89.138 141.752 57.856ZM152.078 128.964C151.202 129.57 150.218 130.05 149.164 130.39L149.13 130.402C148.068 130.736 146.896 130.94 145.648 131.006C145.35 131.022 145.042 131.028 144.732 131.028C138.032 131.028 129.366 127.38 120.328 120.756C116.272 117.782 112.26 114.31 108.37 110.422C102.904 104.96 97.674 98.672 92.886 91.776C92.678 91.478 92.476 91.18 92.272 90.884C87.2 83.458 82.962 75.798 79.736 68.258C77.98 64.168 76.526 60.114 75.396 56.15C72.41 45.69 71.918 36.456 74.008 30.146C74.224 29.488 74.47 28.862 74.738 28.278L74.802 28.142C75.78 26.074 77.106 24.452 78.744 23.318C80.718 21.946 83.188 21.254 86.088 21.254C92.79 21.254 101.458 24.902 110.492 31.528C120.252 38.684 129.74 48.706 137.934 60.508C148.058 75.094 154.922 90.56 157.258 104.058C159.352 116.15 157.462 125.228 152.076 128.966L152.078 128.964Z" fill="url(#paint1_linear_200_12502)"/>
    <path d="M154.074 127.154C153.474 127.852 152.808 128.458 152.078 128.964C151.202 129.57 150.218 130.05 149.164 130.39L149.13 130.402C148.068 130.736 146.896 130.94 145.648 131.006C145.35 131.022 145.042 131.028 144.732 131.028C144.45 131.028 144.168 131.022 143.88 131.008C142.884 130.964 141.848 130.844 140.78 130.65C139.678 130.45 138.54 130.172 137.37 129.816C135.28 129.186 133.09 128.308 130.828 127.202C130.306 126.948 129.778 126.68 129.25 126.396C126.358 124.872 123.364 122.98 120.33 120.756C120.272 120.714 120.218 120.672 120.16 120.63C119.59 120.21 119.018 119.78 118.45 119.34C118.058 119.036 117.668 118.73 117.276 118.418C116.824 118.058 116.37 117.688 115.92 117.312C113.778 115.54 111.654 113.63 109.566 111.6C109.168 111.212 108.77 110.82 108.374 110.424C108.732 110.196 109.086 109.962 109.434 109.716C115.986 105.104 120.268 97.4799 120.268 88.8579C120.268 74.7739 108.852 63.3579 94.768 63.3579C89.148 63.3579 83.954 65.1779 79.74 68.2579C77.984 64.1679 76.53 60.1139 75.4 56.1499C72.414 45.6899 71.922 36.4559 74.012 30.1459C74.228 29.4879 74.474 28.8619 74.742 28.2779L74.806 28.1419C75.784 26.0739 77.11 24.4519 78.748 23.3179C80.722 21.9459 83.192 21.2539 86.092 21.2539C88.5 21.2539 91.162 21.7259 94.004 22.6359C94.558 22.8159 95.118 23.0079 95.684 23.2199C97.544 23.9079 99.468 24.7779 101.44 25.8139C101.962 26.0879 102.486 26.3739 103.016 26.6699C103.31 26.8359 103.604 27.0059 103.902 27.1799C104.19 27.3479 104.478 27.5179 104.768 27.6939L105.758 28.3039L105.77 28.3099C107.328 29.2879 108.908 30.3619 110.498 31.5279C111.128 31.9899 111.758 32.4639 112.386 32.9479L112.506 33.0399L113.834 34.0919C116.276 36.0559 118.692 38.1979 121.068 40.4959C121.61 41.0199 122.152 41.5539 122.688 42.0939C123.366 42.7719 124.036 43.4619 124.702 44.1659C125.102 44.5859 125.504 45.0139 125.9 45.4459C127.856 47.5639 129.776 49.7859 131.644 52.1019C132.032 52.5779 132.414 53.0579 132.792 53.5419C134.558 55.7839 136.276 58.1099 137.942 60.5099C148.066 75.0959 154.93 90.5619 157.266 104.06C159.076 114.512 157.91 122.712 154.082 127.158L154.074 127.154Z" fill="url(#paint2_linear_200_12502)"/>
    <path d="M145.892 135.648L72.956 148.572L58.516 151.132L55.988 148.702C55.556 148.288 55.128 147.868 54.706 147.448C46.71 139.504 40.04 130.378 34.91 120.424C36.504 120.08 38.028 119.546 39.456 118.848C46.182 115.574 50.816 108.67 50.816 100.686C50.816 92.702 45.906 85.396 38.86 82.246L70.6 26.156C70.222 26.956 69.888 27.8 69.594 28.684C64.736 43.356 71.722 69.042 88.434 93.504C88.644 93.812 88.854 94.12 89.068 94.424C107 120.258 130.17 136.47 145.892 135.648Z" fill="url(#paint3_linear_200_12502)"/>
    <path d="M58.516 151.132L50.816 153.82L42.226 156.82C32.378 160.258 21.466 156.352 16.04 147.446L12.018 140.852C6.70201 132.128 8.06401 120.938 15.216 113.744C18.918 118.11 24.446 120.882 30.62 120.882C32.092 120.882 33.526 120.724 34.91 120.424C40.04 130.378 46.71 139.504 54.706 147.448C55.128 147.868 55.556 148.288 55.988 148.702L58.516 151.132Z" fill="url(#paint4_linear_200_12502)"/>
    <g opacity="0.5">
      <path d="M72.984 86.036C72.774 86.036 72.57 85.926 72.46 85.73C65.144 72.686 62.656 62.834 61.856 56.866C60.982 50.338 61.856 46.942 61.892 46.8C61.978 46.48 62.306 46.29 62.626 46.374C62.946 46.46 63.136 46.788 63.052 47.108C63.036 47.17 62.202 50.51 63.06 56.808C63.856 62.656 66.316 72.32 73.506 85.144C73.668 85.432 73.566 85.798 73.276 85.96C73.184 86.012 73.082 86.036 72.984 86.036ZM105.7 126.554C105.586 126.554 105.472 126.522 105.372 126.456C96.358 120.534 88.99 111.24 84.396 104.486C79.426 97.18 76.538 91.18 76.51 91.12C76.368 90.822 76.494 90.462 76.792 90.32C77.09 90.178 77.45 90.304 77.592 90.602C77.704 90.838 89.082 114.318 106.03 125.452C106.306 125.634 106.384 126.006 106.202 126.284C106.086 126.46 105.896 126.554 105.7 126.554ZM59.872 147.01C59.728 147.01 59.582 146.958 59.468 146.852C48.894 137.178 38.43 118.328 38.326 118.138C38.166 117.848 38.272 117.482 38.562 117.322C38.852 117.162 39.216 117.268 39.378 117.558C39.482 117.746 49.852 136.426 60.28 145.966C60.524 146.19 60.542 146.57 60.318 146.814C60.2 146.944 60.038 147.008 59.876 147.008L59.872 147.01Z" fill="#CCD2D6"/>
    </g>
    <path d="M120.264 88.8559C120.264 97.9339 115.516 105.908 108.37 110.422C102.904 104.96 97.674 98.6719 92.886 91.7759C92.678 91.4779 92.476 91.1799 92.272 90.8839C87.2 83.4579 82.962 75.7979 79.736 68.2579C83.95 65.1779 89.144 63.3579 94.764 63.3579C108.848 63.3579 120.264 74.7739 120.264 88.8579V88.8559Z" fill="url(#paint5_linear_200_12502)"/>
    <path d="M50.816 100.686C50.816 108.67 46.182 115.574 39.456 118.848C38.028 119.546 36.504 120.08 34.91 120.424C33.526 120.724 32.092 120.882 30.62 120.882C24.446 120.882 18.918 118.11 15.216 113.744C12.228 110.224 10.426 105.666 10.426 100.686C10.426 95.7059 12.182 91.2599 15.106 87.7579C18.808 83.3159 24.384 80.4919 30.62 80.4919C33.554 80.4919 36.344 81.1179 38.86 82.2459C45.906 85.3959 50.816 92.4679 50.816 100.686Z" fill="url(#paint6_linear_200_12502)"/>
    <path d="M38.222 102.676C38.222 105.618 37.562 107.888 36.24 109.484C34.918 111.08 33.056 111.878 30.652 111.878C28.248 111.878 26.352 111.076 25.026 109.47C23.7 107.864 23.036 105.6 23.036 102.678V98.698C23.036 95.756 23.696 93.486 25.018 91.89C26.34 90.294 28.208 89.496 30.622 89.496C33.036 89.496 34.906 90.3 36.232 91.904C37.558 93.51 38.222 95.778 38.222 98.712V102.676ZM33.18 98.052C33.18 96.486 32.976 95.316 32.566 94.544C32.156 93.772 31.508 93.384 30.622 93.384C29.736 93.384 29.124 93.744 28.73 94.462C28.336 95.18 28.124 96.268 28.094 97.724V103.29C28.094 104.916 28.298 106.106 28.708 106.858C29.116 107.612 29.766 107.988 30.654 107.988C31.542 107.988 32.146 107.622 32.554 106.888C32.962 106.154 33.172 105.006 33.182 103.44V98.054L33.18 98.052Z" fill="url(#paint7_linear_200_12502)"/>
    <path d="M96.114 53.8659C96.116 53.8499 96.11 53.8399 96.112 53.8259C96.272 49.0399 96.074 40.5259 92.976 37.2859C91.464 35.7039 90.066 34.4019 88.822 33.4079C88.818 33.4059 88.81 33.3959 88.804 33.3919C91.482 33.0119 95.346 31.9199 99.552 30.5299C99.626 30.6119 99.702 30.6899 99.788 30.7539C100.558 31.3679 101.432 32.1839 102.386 33.1819C103.592 34.4459 104.216 38.1359 104.054 43.0559C104.036 43.5339 104.186 43.9959 104.47 44.3679C101.774 47.9359 98.914 51.2939 96.112 53.8659H96.114ZM119.292 61.5179C119.228 61.4919 119.168 61.4559 119.11 61.4099C115.624 58.6859 109.08 54.1039 104.422 54.0679C101.62 54.0479 99.384 54.3399 97.858 54.6299C100.642 51.9879 103.44 48.6719 106.068 45.1839C106.228 45.1839 106.392 45.1719 106.554 45.1379C107.476 44.9359 108.994 44.6999 110.982 44.7139C112.886 44.7299 116.182 46.4279 119.798 49.2559C119.95 49.3779 120.122 49.4719 120.3 49.5439L119.29 61.5199L119.292 61.5179ZM131.636 52.0979C130.532 52.5079 129.502 52.9779 128.608 53.5179C125.156 55.5999 122.636 58.3519 121.154 60.2499L122.064 49.4359C122.328 49.2899 122.562 49.0859 122.744 48.8319C123.324 48.0199 124.388 46.6859 125.894 45.4419C125.498 45.0099 125.098 44.5839 124.696 44.1619C123.724 44.9759 122.926 45.8199 122.306 46.5499L122.682 42.0899C122.146 41.5499 121.604 41.0159 121.062 40.4919L120.466 47.5599C118.058 45.7219 113.986 42.9879 110.998 42.9619C109.63 42.9559 108.468 43.0539 107.54 43.1879C109.708 40.1919 112.062 36.8879 113.828 34.0899L112.5 33.0379L112.38 32.9459C110.528 35.8839 108.092 39.4199 105.816 42.5519C105.904 38.7219 105.57 33.9819 103.65 31.9739C102.878 31.1659 102.15 30.4639 101.474 29.8839C102.866 29.4059 104.358 28.8199 105.766 28.3059L105.754 28.2999L104.764 27.6899C104.474 27.5159 104.186 27.3439 103.898 27.1759C103.234 27.4119 102.57 27.6499 101.91 27.8779C102.27 27.5059 102.644 27.1019 103.012 26.6679C102.484 26.3719 101.958 26.0859 101.436 25.8119C100.772 26.5719 100.132 27.1999 99.66 27.6339C99.31 27.9599 99.086 28.3959 99.024 28.8619C95.24 30.1159 91.758 31.1239 89.234 31.5599C91.328 29.5659 94.008 26.5979 95.676 23.2179C95.11 23.0059 94.55 22.8119 93.996 22.6339C92.194 26.1619 89.214 29.2079 87.564 30.7319C86.996 31.2579 86.688 32.0039 86.716 32.7819C86.742 33.5659 87.114 34.2939 87.73 34.7799C88.912 35.7219 90.248 36.9719 91.712 38.4959C93.648 40.5239 94.616 46.0919 94.36 53.7719C94.334 54.5999 94.684 55.3779 95.318 55.9079C95.954 56.4399 96.788 56.6419 97.6 56.4659C99.018 56.1559 101.352 55.7959 104.406 55.8179C108.698 55.8519 115.364 60.7039 118.028 62.7879C118.608 63.2439 119.33 63.4359 120.058 63.3299C120.784 63.2239 121.416 62.8399 121.842 62.2439C123.062 60.5359 125.676 57.3299 129.506 55.0159C130.446 54.4479 131.566 53.9599 132.78 53.5419C132.402 53.0579 132.018 52.5759 131.632 52.1019L131.636 52.0979Z" fill="url(#paint8_linear_200_12502)"/>
    <path d="M153.676 126.808C152.444 125.932 151.04 124.756 149.5 123.316C147.454 121.394 146.186 115.888 146.026 108.206C146.008 107.376 145.618 106.62 144.954 106.124C144.29 105.628 143.446 105.472 142.646 105.69C141.244 106.078 138.934 106.564 135.886 106.708C131.596 106.908 124.678 102.42 121.902 100.486C121.3 100.062 120.568 99.91 119.848 100.054C119.128 100.2 118.518 100.616 118.124 101.236C117.002 103.008 114.566 106.35 110.862 108.87C110.424 109.168 109.944 109.45 109.43 109.716C109.082 109.962 108.728 110.196 108.37 110.424C108.766 110.82 109.164 111.212 109.562 111.6C110.39 111.208 111.162 110.782 111.846 110.314C115.18 108.048 117.548 105.164 118.924 103.188L118.604 114.036C118.348 114.198 118.124 114.412 117.958 114.676C117.546 115.324 116.862 116.296 115.918 117.314C116.37 117.69 116.824 118.06 117.274 118.42C117.752 117.9 118.166 117.394 118.518 116.93L118.448 119.342C119.016 119.782 119.588 120.212 120.158 120.632L120.3 115.82C122.804 117.526 127.02 120.034 130.006 119.896C131.372 119.832 132.524 119.668 133.446 119.486C131.95 121.806 130.54 124.154 129.25 126.396C129.778 126.68 130.306 126.948 130.828 127.202C132.174 124.87 133.65 122.426 135.202 120.026C135.31 123.47 135.798 127.63 137.372 129.816C138.542 130.172 139.68 130.452 140.782 130.65C140.264 130.228 139.712 129.74 139.134 129.196C137.862 128 137.038 124.348 136.934 119.428C136.926 118.95 136.75 118.496 136.448 118.138C138.946 114.43 141.618 110.922 144.276 108.202C144.278 108.218 144.282 108.228 144.282 108.242C144.382 113.03 145.038 121.522 148.308 124.59C149.906 126.086 151.372 127.312 152.668 128.236C152.672 128.238 152.68 128.244 152.686 128.252C150.418 128.702 147.312 129.714 143.884 131.01C144.172 131.024 144.454 131.03 144.736 131.03C145.046 131.03 145.354 131.024 145.652 131.008C146.9 130.942 148.072 130.738 149.134 130.404L149.168 130.392C150.224 130.054 151.206 129.574 152.082 128.966C152.812 128.46 153.478 127.852 154.078 127.156C153.958 127.028 153.824 126.91 153.68 126.808H153.676ZM134.806 117.412C134.646 117.42 134.486 117.44 134.324 117.488C133.412 117.738 131.912 118.056 129.924 118.15C128.022 118.238 124.638 116.722 120.874 114.094C120.714 113.984 120.542 113.898 120.358 113.836L120.716 101.822C120.78 101.844 120.842 101.878 120.902 101.92C124.532 104.454 131.316 108.672 135.968 108.456C138.766 108.326 140.984 107.912 142.49 107.538C139.854 110.328 137.24 113.792 134.806 117.416V117.412Z" fill="url(#paint9_linear_200_12502)"/>
    <path d="M113.42 160.368C111.498 160.368 109.94 161.926 109.94 163.848C109.94 165.77 111.498 167.328 113.42 167.328C115.342 167.328 116.9 165.77 116.9 163.848C116.9 161.926 115.342 160.368 113.42 160.368Z" fill="url(#paint10_linear_200_12502)"/>
    <path d="M39.89 36.584C42.0715 36.584 43.84 34.8155 43.84 32.634C43.84 30.4524 42.0715 28.684 39.89 28.684C37.7085 28.684 35.94 30.4524 35.94 32.634C35.94 34.8155 37.7085 36.584 39.89 36.584Z" fill="url(#paint11_linear_200_12502)"/>
    <path d="M168.198 68.6034C170.804 67.5238 172.042 64.5358 170.962 61.9294C169.882 59.3231 166.894 58.0854 164.288 59.165C161.682 60.2446 160.444 63.2326 161.524 65.8389C162.603 68.4453 165.591 69.6829 168.198 68.6034Z" fill="url(#paint12_linear_200_12502)"/>
    <path d="M140.904 163.667C146.444 162.6 150.07 157.243 149.004 151.703C147.937 146.163 142.58 142.536 137.04 143.603C131.5 144.67 127.873 150.026 128.94 155.567C130.007 161.107 135.363 164.734 140.904 163.667Z" fill="url(#paint13_linear_200_12502)"/>
    <path d="M29.9264 66.06C33.9483 65.2855 36.5808 61.3973 35.8063 57.3755C35.0318 53.3536 31.1436 50.7211 27.1217 51.4956C23.0999 52.2701 20.4674 56.1583 21.2419 60.1802C22.0164 64.202 25.9046 66.8345 29.9264 66.06Z" fill="url(#paint14_linear_200_12502)"/>
    <path d="M43.186 176.256C45.5796 176.256 47.52 174.316 47.52 171.922C47.52 169.528 45.5796 167.588 43.186 167.588C40.7924 167.588 38.852 169.528 38.852 171.922C38.852 174.316 40.7924 176.256 43.186 176.256Z" fill="url(#paint15_linear_200_12502)"/>
    <path d="M12.698 116.782C13.436 115.71 14.276 114.692 15.218 113.744C12.23 110.222 10.426 105.666 10.426 100.686C10.426 95.7061 12.184 91.2601 15.108 87.7581C16.91 85.5941 19.16 83.8161 21.712 82.5601H17.444C7.81198 82.5601 0.00198364 90.3681 0.00198364 100.002C0.00198364 104.818 1.95398 109.178 5.10998 112.332C7.18798 114.41 9.78998 115.962 12.698 116.782Z" fill="url(#paint16_linear_200_12502)"/>
    <path d="M200 100.002C200 95.186 198.048 90.824 194.892 87.67C191.734 84.512 187.376 82.562 182.56 82.562H163.858C160.302 82.562 156.996 81.496 154.238 79.668C165.066 103.44 165.902 125.03 154.728 132.786C153.454 133.67 152.068 134.344 150.58 134.82H150.574C149.104 135.292 147.54 135.564 145.892 135.65L88.088 145.894C85.214 149.42 80.992 151.8 76.208 152.246L88.992 166.684C91.678 169.72 91.346 174.372 88.254 176.996L79.57 184.366C76.2 187.226 71.076 186.422 68.742 182.668L50.814 153.822L42.224 156.82C34.422 159.546 25.954 157.656 20.074 152.324H17.44C7.80799 152.324 -0.00201416 160.132 -0.00201416 169.762C-0.00201416 174.578 1.94999 178.938 5.10599 182.094C8.26399 185.252 12.622 187.202 17.438 187.202H182.554C192.186 187.202 199.996 179.392 199.996 169.76C199.996 164.944 198.044 160.584 194.888 157.43C191.73 154.272 187.372 152.322 182.556 152.322H179.642C174.826 152.322 170.466 150.37 167.31 147.214C164.152 144.056 162.202 139.698 162.202 134.882C162.202 125.25 170.012 117.44 179.644 117.44H182.558C192.19 117.44 200 109.632 200 100.002ZM43.186 176.256C40.792 176.256 38.85 174.314 38.85 171.92C38.85 169.526 40.792 167.586 43.186 167.586C45.58 167.586 47.52 169.528 47.52 171.92C47.52 174.312 45.578 176.256 43.186 176.256ZM113.42 167.328C111.496 167.328 109.938 165.77 109.938 163.848C109.938 161.926 111.496 160.366 113.42 160.366C115.344 160.366 116.9 161.924 116.9 163.848C116.9 165.772 115.342 167.328 113.42 167.328ZM138.974 163.848C133.33 163.848 128.758 159.274 128.758 153.632C128.758 147.99 133.33 143.416 138.974 143.416C144.618 143.416 149.188 147.988 149.188 153.632C149.188 159.276 144.616 163.848 138.974 163.848Z" fill="url(#paint17_linear_200_12502)"/>
    <path d="M38.448 82.066C38.586 82.124 38.724 82.184 38.862 82.244L39.052 81.906C38.852 81.962 38.65 82.016 38.448 82.064V82.066Z" fill="url(#paint18_linear_200_12502)"/>
    <path d="M17.442 47.68H34.33C39.146 47.68 43.506 49.632 46.662 52.788C48.774 54.9 50.344 57.554 51.152 60.522L70.598 26.156H70.6C71.908 23.39 73.732 21.134 76.094 19.496C90.642 9.39802 120.038 26.572 141.752 57.856C143.4 60.23 144.954 62.616 146.416 65.004C146.478 55.424 154.26 47.678 163.854 47.678H182.556C192.188 47.678 199.998 39.868 199.998 30.236C199.998 25.42 198.046 21.06 194.89 17.904C191.732 14.746 187.374 12.796 182.558 12.796H17.442C7.81 12.796 0 20.606 0 30.238C0 35.054 1.952 39.414 5.108 42.57C8.266 45.728 12.624 47.678 17.44 47.678L17.442 47.68ZM39.89 28.684C42.07 28.684 43.838 30.452 43.838 32.634C43.838 34.816 42.07 36.582 39.89 36.582C37.71 36.582 35.94 34.814 35.94 32.634C35.94 30.454 37.708 28.684 39.89 28.684Z" fill="url(#paint19_linear_200_12502)"/>
  </g>
  <defs>
    <linearGradient id="paint0_linear_200_12502" x1="75.716" y1="173.082" x2="59.476" y2="136.01" gradientUnits="userSpaceOnUse">
      <stop stop-color="#CCD2D6" stop-opacity="0.7"/>
      <stop offset="1" stop-color="#CCD2D6"/>
    </linearGradient>
    <linearGradient id="paint1_linear_200_12502" x1="68.082" y1="76.14" x2="162.74" y2="76.14" gradientUnits="userSpaceOnUse">
      <stop stop-color="#CCD2D6" stop-opacity="0.25"/>
      <stop offset="1" stop-color="#CCD2D6" stop-opacity="0.5"/>
    </linearGradient>
    <linearGradient id="paint2_linear_200_12502" x1="141.7" y1="57.0839" x2="83.794" y2="99.0579" gradientUnits="userSpaceOnUse">
      <stop stop-color="#CCD2D6" stop-opacity="0.7"/>
      <stop offset="1" stop-color="#CCD2D6"/>
    </linearGradient>
    <linearGradient id="paint3_linear_200_12502" x1="59.734" y1="118.924" x2="93.742" y2="92.27" gradientUnits="userSpaceOnUse">
      <stop stop-color="#CCD2D6" stop-opacity="0.25"/>
      <stop offset="1" stop-color="#CCD2D6" stop-opacity="0.5"/>
    </linearGradient>
    <linearGradient id="paint4_linear_200_12502" x1="8.78601" y1="135.902" x2="58.516" y2="135.902" gradientUnits="userSpaceOnUse">
      <stop stop-color="#CCD2D6" stop-opacity="0.3"/>
      <stop offset="1" stop-color="#CCD2D6" stop-opacity="0.5"/>
    </linearGradient>
    <linearGradient id="paint5_linear_200_12502" x1="121.664" y1="69.0799" x2="82.908" y2="97.5719" gradientUnits="userSpaceOnUse">
      <stop stop-color="#CCD2D6" stop-opacity="0.2"/>
      <stop offset="1" stop-color="#CCD2D6" stop-opacity="0.6"/>
    </linearGradient>
    <linearGradient id="paint6_linear_200_12502" x1="30.62" y1="80.4919" x2="30.62" y2="120.882" gradientUnits="userSpaceOnUse">
      <stop stop-color="#CCD2D6" stop-opacity="0.25"/>
      <stop offset="1" stop-color="#CCD2D6" stop-opacity="0.5"/>
    </linearGradient>
    <linearGradient id="paint7_linear_200_12502" x1="30.628" y1="95.74" x2="30.628" y2="114.786" gradientUnits="userSpaceOnUse">
      <stop stop-color="#CCD2D6" stop-opacity="0.5"/>
      <stop offset="1" stop-color="#CCD2D6"/>
    </linearGradient>
    <linearGradient id="paint8_linear_200_12502" x1="86.72" y1="42.9939" x2="132.784" y2="42.9939" gradientUnits="userSpaceOnUse">
      <stop stop-color="#CCD2D6"/>
      <stop offset="1" stop-color="#CCD2D6"/>
    </linearGradient>
    <linearGradient id="paint9_linear_200_12502" x1="108.37" y1="115.514" x2="154.074" y2="115.514" gradientUnits="userSpaceOnUse">
      <stop stop-color="#CCD2D6"/>
      <stop offset="1" stop-color="#CCD2D6"/>
    </linearGradient>
    <linearGradient id="paint10_linear_200_12502" x1="113.42" y1="37.834" x2="113.42" y2="200.012" gradientUnits="userSpaceOnUse">
      <stop stop-color="#CCD2D6" stop-opacity="0.25"/>
      <stop offset="1" stop-color="#CCD2D6" stop-opacity="0.5"/>
    </linearGradient>
    <linearGradient id="paint11_linear_200_12502" x1="39.89" y1="37.834" x2="39.89" y2="200.012" gradientUnits="userSpaceOnUse">
      <stop stop-color="#CCD2D6" stop-opacity="0.25"/>
      <stop offset="1" stop-color="#CCD2D6" stop-opacity="0.5"/>
    </linearGradient>
    <linearGradient id="paint12_linear_200_12502" x1="166.243" y1="37.8342" x2="166.243" y2="200.012" gradientUnits="userSpaceOnUse">
      <stop stop-color="#CCD2D6" stop-opacity="0.25"/>
      <stop offset="1" stop-color="#CCD2D6" stop-opacity="0.5"/>
    </linearGradient>
    <linearGradient id="paint13_linear_200_12502" x1="138.973" y1="37.8363" x2="138.973" y2="200.014" gradientUnits="userSpaceOnUse">
      <stop stop-color="#CCD2D6" stop-opacity="0.25"/>
      <stop offset="1" stop-color="#CCD2D6" stop-opacity="0.5"/>
    </linearGradient>
    <linearGradient id="paint14_linear_200_12502" x1="28.5247" y1="37.833" x2="28.5247" y2="200.011" gradientUnits="userSpaceOnUse">
      <stop stop-color="#CCD2D6" stop-opacity="0.25"/>
      <stop offset="1" stop-color="#CCD2D6" stop-opacity="0.5"/>
    </linearGradient>
    <linearGradient id="paint15_linear_200_12502" x1="43.186" y1="37.8339" x2="43.186" y2="200.012" gradientUnits="userSpaceOnUse">
      <stop stop-color="#CCD2D6" stop-opacity="0.25"/>
      <stop offset="1" stop-color="#CCD2D6" stop-opacity="0.5"/>
    </linearGradient>
    <linearGradient id="paint16_linear_200_12502" x1="10.854" y1="54.9921" x2="10.854" y2="188.034" gradientUnits="userSpaceOnUse">
      <stop stop-color="#CCD2D6" stop-opacity="0.1"/>
      <stop offset="1" stop-color="#CCD2D6" stop-opacity="0.25"/>
    </linearGradient>
    <linearGradient id="paint17_linear_200_12502" x1="100" y1="54.992" x2="100" y2="188.034" gradientUnits="userSpaceOnUse">
      <stop stop-color="#CCD2D6" stop-opacity="0.1"/>
      <stop offset="1" stop-color="#CCD2D6" stop-opacity="0.25"/>
    </linearGradient>
    <linearGradient id="paint18_linear_200_12502" x1="38.75" y1="54.992" x2="38.75" y2="188.034" gradientUnits="userSpaceOnUse">
      <stop stop-color="#CCD2D6" stop-opacity="0.1"/>
      <stop offset="1" stop-color="#CCD2D6" stop-opacity="0.25"/>
    </linearGradient>
    <linearGradient id="paint19_linear_200_12502" x1="100" y1="54.992" x2="100" y2="188.034" gradientUnits="userSpaceOnUse">
      <stop stop-color="#CCD2D6" stop-opacity="0.1"/>
      <stop offset="1" stop-color="#CCD2D6" stop-opacity="0.25"/>
    </linearGradient>
    <clipPath id="clip0_200_12502">
      <rect width="200" height="200" fill="white"/>
    </clipPath>
  </defs>
</svg>