<svg xmlns="http://www.w3.org/2000/svg" width="200" height="200" viewBox="0 0 200 200" fill="none">
  <g clip-path="url(#clip0_521_18876)">
    <g opacity="0.25">
      <path d="M14.708 82.6741C12.656 87.5661 12.976 92.2261 14.038 103.832C14.272 106.396 14.546 108.936 14.858 111.436L14.336 111.48C12.29 111.652 10.864 113.588 11.304 115.596L11.412 116.094C4.608 112.958 0 106.928 0 100.002C0 94.9261 2.478 90.3281 6.48 87.0021C8.778 85.0901 11.582 83.5981 14.708 82.6741Z" fill="#CCD2D6"/>
      <path d="M151.868 136.768C151.868 146.922 161.77 155.152 173.988 155.152H177.882C190.096 155.152 200 163.382 200 173.536C200 178.612 197.522 183.208 193.52 186.534C189.52 189.862 183.988 191.918 177.882 191.918H22.118C9.904 191.918 0 183.688 0 173.536C0 168.46 2.478 163.864 6.48 160.538C10.018 157.596 14.752 155.646 20.02 155.234L23.514 171.128C23.87 172.76 25.362 173.886 27.03 173.79L115.046 168.536C117.298 168.404 118.794 166.152 118.05 164.022L117.456 162.326H118.468C119.094 162.326 119.536 161.712 119.344 161.118L113.142 142.164C112.902 141.432 111.926 141.298 111.502 141.938L110.726 143.096L98.092 106.996C97.578 105.532 96.144 104.602 94.602 104.734L78.498 106.086L72.658 104.584C72.042 104.428 71.712 103.762 71.956 103.176L79.468 85.186C79.772 84.458 79.186 83.668 78.398 83.752L37.708 88.046C37.22 85.812 36.79 83.656 36.42 81.616H51.788C57.896 81.616 63.422 79.558 67.426 76.23C69.386 74.602 70.982 72.67 72.096 70.522C83.746 67.302 92.302 56.624 92.302 43.952C92.302 28.728 79.958 16.384 64.734 16.384C49.51 16.384 37.168 28.728 37.168 43.952C37.168 44.252 37.172 44.55 37.184 44.85H22.118C9.904 44.848 0 36.618 0 26.464C0 21.388 2.478 16.794 6.48 13.468C10.482 10.14 16.012 8.08203 22.118 8.08203H177.884C190.098 8.08203 200.002 16.312 200.002 26.464C200.002 31.54 197.524 36.138 193.522 39.464C189.522 42.79 183.99 44.848 177.884 44.848H172.148C166.598 44.848 161.526 46.548 157.642 49.354L124.342 39.554C123.756 39.382 123.128 39.594 122.766 40.086C120.916 42.616 114.82 50.7 105.602 60.414C98.216 68.196 90.306 73.014 85.792 75.384C84.564 76.034 84.854 77.884 86.228 78.096C91.248 78.876 97.242 78.892 101.344 78.766L97.238 81.38C95.794 82.3 95.422 84.244 96.424 85.632L101.294 92.376L99.532 97.348C99.144 98.442 100.136 99.528 101.258 99.232L105.456 98.142L110.644 105.322L106.81 107.098C106.3 107.334 106.182 108.006 106.58 108.402L116.618 118.37C117.126 118.874 117.994 118.516 117.994 117.798V115.502L128.664 130.282C129.646 131.636 131.548 131.922 132.878 130.908L192.04 85.876C196.904 89.248 200.002 94.324 200.002 100.002C200.002 105.078 197.524 109.674 193.522 113C189.522 116.328 183.99 118.386 177.884 118.386H173.99C167.882 118.386 162.352 120.442 158.348 123.77C154.348 127.096 151.87 131.692 151.87 136.768H151.868Z" fill="#CCD2D6"/>
      <path d="M47.1142 65.148C45.8502 70.426 41.0982 74.352 35.4282 74.352C35.3622 74.352 35.3002 74.352 35.2362 74.35H35.2342C34.6582 70.346 34.3422 67.264 34.1902 65.598C34.1242 64.876 33.3922 64.418 32.7162 64.676C31.1222 65.284 28.3202 66.55 25.3202 68.838C24.1122 66.964 23.4102 64.734 23.4102 62.338C23.4102 55.7 28.7902 50.322 35.4262 50.322C36.3002 50.322 37.1522 50.414 37.9722 50.594C39.4042 56.384 42.6662 61.452 47.1122 65.15L47.1142 65.148Z" fill="#CCD2D6"/>
    </g>
    <g opacity="0.5">
      <path d="M99.3888 151.326C93.2529 154.522 73.4849 163.82 54.1929 162.12C48.0449 161.576 43.0629 160.604 38.9969 159.02C38.9969 159.02 38.9909 159.018 38.9789 159.014C38.9769 159.014 38.9708 159.012 38.9649 159.008C38.9448 159 38.9149 158.988 38.8729 158.97C37.6209 158.45 27.4289 153.772 27.8569 139.806C28.2469 127.078 42.7489 120.464 46.9289 118.816C47.5229 118.584 47.7829 117.892 47.4969 117.32C46.1629 114.626 44.9529 111.832 43.8649 108.996C41.1509 101.948 39.1588 94.65 37.7149 88.046L78.4029 83.75C79.1908 83.666 79.7789 84.458 79.4729 85.186L71.9609 103.176C71.7169 103.762 72.0468 104.428 72.6628 104.586L78.5049 106.088L93.7689 110.014C94.5189 110.208 94.8029 111.122 94.2929 111.706L78.8448 129.364C78.3728 129.906 78.5749 130.752 79.2429 131.016L99.3489 139.022C100.155 139.34 100.237 140.446 99.4909 140.886L92.6569 144.896C91.9128 145.33 91.9909 146.426 92.7849 146.754L99.3028 149.448C100.121 149.786 100.173 150.922 99.3888 151.33V151.326Z" fill="#CCD2D6"/>
    </g>
    <path d="M58.9275 162.924C57.3315 162.924 55.7355 162.858 54.1395 162.718C47.7895 162.156 42.7715 161.132 38.7975 159.586C38.7635 159.576 38.7375 159.564 38.7195 159.556L38.6355 159.522C37.4295 159.02 26.8155 154.186 27.2555 139.788C27.6535 126.766 42.2455 120.018 46.7075 118.258C46.8355 118.208 46.9295 118.112 46.9795 117.986C47.0295 117.856 47.0215 117.714 46.9595 117.588C45.6595 114.966 44.4295 112.148 43.3035 109.212C40.8855 102.93 38.8075 95.852 37.1275 88.174L36.9835 87.52L78.3375 83.154C78.9215 83.092 79.4795 83.336 79.8275 83.808C80.1775 84.278 80.2495 84.88 80.0235 85.42L72.5115 103.408C72.4435 103.57 72.4895 103.708 72.5235 103.776C72.5575 103.842 72.6375 103.962 72.8075 104.006L93.9135 109.434C94.4695 109.578 94.9035 109.99 95.0715 110.54C95.2395 111.088 95.1155 111.672 94.7375 112.102L79.2895 129.758C79.1935 129.868 79.1575 130.012 79.1935 130.154C79.2275 130.294 79.3235 130.404 79.4575 130.458L99.5655 138.464C100.149 138.694 100.545 139.23 100.595 139.858C100.645 140.49 100.337 141.08 99.7915 141.402L92.9555 145.412C92.7415 145.536 92.7315 145.74 92.7375 145.822C92.7435 145.904 92.7815 146.104 93.0075 146.198L99.5275 148.892C100.125 149.14 100.513 149.694 100.541 150.34C100.569 150.982 100.231 151.564 99.6615 151.86C94.3995 154.6 76.9135 162.926 58.9255 162.926L58.9275 162.924ZM39.2355 158.47C43.1015 159.972 48.0115 160.972 54.2435 161.522C55.8055 161.66 57.3735 161.724 58.9375 161.724C76.6455 161.724 93.9115 153.5 99.1095 150.794C99.3315 150.678 99.3475 150.472 99.3435 150.39C99.3395 150.306 99.3055 150.098 99.0695 150L92.5515 147.308C91.9715 147.07 91.5855 146.532 91.5415 145.906C91.4975 145.28 91.8075 144.694 92.3495 144.378L99.1815 140.368C99.3955 140.242 99.4035 140.036 99.3975 139.952C99.3915 139.87 99.3515 139.67 99.1215 139.58L79.0135 131.574C78.5215 131.38 78.1515 130.954 78.0255 130.438C77.8995 129.92 78.0335 129.37 78.3855 128.968L93.8335 111.31C93.9795 111.144 93.9455 110.962 93.9235 110.892C93.9015 110.822 93.8275 110.65 93.6115 110.594L72.5075 105.166C72.0475 105.048 71.6595 104.736 71.4475 104.31C71.2355 103.884 71.2175 103.386 71.4015 102.946L78.9135 84.956C79.0015 84.748 78.9055 84.584 78.8615 84.524C78.8155 84.464 78.6875 84.324 78.4595 84.348L38.4375 88.572C40.0775 95.938 42.0875 102.734 44.4175 108.78C45.5315 111.682 46.7455 114.466 48.0275 117.052C48.2395 117.476 48.2635 117.974 48.0935 118.416C47.9255 118.854 47.5775 119.202 47.1395 119.374C42.8515 121.064 28.8255 127.534 28.4495 139.822C28.0335 153.416 37.9635 157.942 39.0955 158.414L39.1715 158.446C39.1975 158.454 39.2175 158.462 39.2295 158.468L39.2355 158.47Z" fill="#CCD2D6"/>
    <g opacity="0.25">
      <path d="M46.9256 118.816C42.7456 120.462 28.2436 127.076 27.8536 139.806C27.4256 153.772 37.6176 158.45 38.8696 158.97C38.9116 158.988 38.9416 159 38.9616 159.008C38.3696 158.832 29.9256 156.136 24.3636 146.182C19.4876 137.46 16.5656 125.052 14.8596 111.436C14.5476 108.936 14.2736 106.398 14.0396 103.832C12.5236 87.286 12.5236 84.858 18.7456 75.75C23.5016 68.792 29.9436 65.732 32.7176 64.678C33.3956 64.42 34.1276 64.878 34.1916 65.6C34.4896 68.87 35.4216 77.594 37.7116 88.048C39.1556 94.654 41.1476 101.95 43.8616 108.998C43.9856 109.328 44.1136 109.654 44.2456 109.982C44.5456 110.74 44.8556 111.498 45.1736 112.248C45.3076 112.572 45.4476 112.894 45.5876 113.214C45.7396 113.562 45.8916 113.906 46.0476 114.252C46.1996 114.596 46.3576 114.942 46.5176 115.284C46.6756 115.622 46.8336 115.958 46.9936 116.292C47.1576 116.636 47.3256 116.982 47.4956 117.324C47.7816 117.894 47.5216 118.588 46.9276 118.82L46.9256 118.816Z" fill="#CCD2D6"/>
    </g>
    <path d="M38.7934 159.584C38.4194 159.474 29.5854 156.756 23.8414 146.474C19.3994 138.526 16.1774 126.764 14.2674 111.51C13.9574 109.028 13.6814 106.462 13.4454 103.886C11.9094 87.126 11.9554 84.63 18.2534 75.41C23.1494 68.248 29.8514 65.124 32.5074 64.114C33.0074 63.924 33.5514 63.976 34.0054 64.258C34.4574 64.54 34.7454 65.008 34.7934 65.542C35.0914 68.808 36.0274 77.526 38.3014 87.916C39.9674 95.534 42.0274 102.554 44.4254 108.78C44.5494 109.11 44.6754 109.432 44.8054 109.756C45.1254 110.566 45.4274 111.302 45.7274 112.01C45.8594 112.328 45.9934 112.638 46.1274 112.948L46.1374 112.972C46.2874 113.316 46.4374 113.658 46.5934 114C46.7394 114.332 46.8954 114.676 47.0594 115.026C47.2174 115.364 47.3734 115.698 47.5314 116.028C47.6954 116.374 47.8634 116.716 48.0314 117.054C48.2434 117.478 48.2674 117.976 48.0974 118.418C47.9294 118.856 47.5814 119.204 47.1454 119.374C42.8554 121.066 28.8294 127.536 28.4534 139.824C28.0374 153.418 37.9674 157.944 39.0994 158.416L39.1974 158.458L38.7894 159.584H38.7934ZM33.1094 65.204C33.0494 65.204 32.9894 65.216 32.9314 65.238C30.3814 66.208 23.9454 69.208 19.2414 76.088C13.1494 85.006 13.1134 87.132 14.6374 103.776C14.8714 106.34 15.1474 108.89 15.4554 111.36C17.3474 126.46 20.5214 138.076 24.8874 145.888C26.9574 149.594 29.4334 152.27 31.7354 154.174C29.2234 151.088 27.0494 146.468 27.2534 139.786C27.6514 126.764 42.2434 120.016 46.7054 118.256C46.8314 118.206 46.9254 118.11 46.9754 117.984C47.0254 117.854 47.0174 117.712 46.9554 117.586C46.7834 117.24 46.6134 116.892 46.4474 116.544C46.2874 116.212 46.1294 115.874 45.9694 115.532C45.8014 115.174 45.6414 114.822 45.4934 114.49C45.3374 114.15 45.1854 113.802 45.0314 113.45L45.0214 113.426C44.8834 113.11 44.7454 112.792 44.6134 112.474C44.3114 111.764 44.0054 111.018 43.6834 110.202C43.5514 109.874 43.4234 109.544 43.2974 109.21C40.8794 102.93 38.8014 95.852 37.1214 88.174C34.8314 77.716 33.8894 68.94 33.5914 65.652C33.5774 65.496 33.4934 65.36 33.3634 65.278C33.2854 65.23 33.1974 65.204 33.1074 65.204H33.1094Z" fill="#CCD2D6"/>
    <g opacity="0.5">
      <path d="M182.746 58.148C182.236 60.456 180.952 65.5661 178.402 71.8861C175.818 78.2881 171.94 85.93 166.258 93.1381C155.624 106.626 143.98 111.198 139.662 112.504C138.774 112.772 137.864 112.152 137.796 111.228L137.44 106.412C137.378 105.594 136.648 104.99 135.83 105.084L125.564 106.256C124.524 106.376 123.706 105.388 124.016 104.39L126.98 94.824C127.316 93.74 126.328 92.7081 125.232 92.9961L105.452 98.1441L101.256 99.236C100.134 99.53 99.1397 98.4461 99.5277 97.3521L101.288 92.38L105.466 80.5921C105.81 79.6201 105.06 78.6101 104.03 78.6621C103.282 78.7021 102.37 78.7401 101.34 78.7681C97.2377 78.8921 91.2437 78.8781 86.2237 78.098C84.8517 77.8841 84.5597 76.034 85.7877 75.3861C90.3017 73.0161 98.2117 68.2 105.598 60.416C114.816 50.702 120.912 42.62 122.762 40.0901C123.124 39.5981 123.752 39.3841 124.338 39.5561L181.738 56.4501C182.47 56.666 182.908 57.4081 182.744 58.1501L182.746 58.148Z" fill="#CCD2D6"/>
    </g>
    <path d="M139.236 113.166C138.826 113.166 138.424 113.042 138.076 112.804C137.562 112.45 137.242 111.892 137.196 111.27L136.84 106.454C136.822 106.224 136.714 106.014 136.534 105.866C136.354 105.718 136.128 105.652 135.896 105.678L125.63 106.85C124.942 106.93 124.264 106.658 123.82 106.124C123.376 105.59 123.236 104.874 123.442 104.212L126.406 94.6461C126.498 94.3481 126.424 94.036 126.208 93.81C125.992 93.584 125.684 93.4961 125.382 93.576L101.406 99.816C100.674 100.008 99.8976 99.78 99.3836 99.222C98.8696 98.662 98.7076 97.8681 98.9616 97.1521L104.902 80.392C104.998 80.12 104.954 79.832 104.782 79.6C104.61 79.37 104.35 79.246 104.062 79.262C103.19 79.308 102.28 79.344 101.358 79.37C97.2136 79.496 91.2076 79.482 86.1316 78.694C85.2516 78.558 84.5876 77.9 84.4396 77.018C84.2916 76.126 84.7096 75.28 85.5076 74.858C89.6456 72.684 97.7016 67.866 105.164 60.006C114.44 50.232 120.608 42.022 122.278 39.738C122.788 39.044 123.684 38.742 124.508 38.982L181.908 55.876C182.936 56.18 183.562 57.236 183.33 58.282C182.782 60.756 181.486 65.844 178.956 72.116C175.728 80.116 171.614 87.3141 166.726 93.514C156.04 107.07 144.358 111.714 139.832 113.082C139.636 113.142 139.434 113.17 139.234 113.17L139.236 113.166ZM135.998 104.472C136.472 104.472 136.926 104.634 137.298 104.94C137.732 105.298 137.994 105.804 138.036 106.364L138.392 111.182C138.41 111.438 138.544 111.67 138.756 111.816C138.97 111.964 139.236 112.006 139.486 111.93C143.904 110.596 155.31 106.056 165.784 92.768C170.6 86.6581 174.658 79.558 177.842 71.664C180.34 65.472 181.618 60.458 182.158 58.02C182.254 57.588 181.994 57.15 181.568 57.024L124.168 40.132C123.826 40.032 123.456 40.158 123.244 40.446C121.564 42.742 115.356 51.004 106.032 60.83C98.4516 68.816 90.2676 73.712 86.0656 75.918C85.6636 76.13 85.5736 76.522 85.6216 76.818C85.6456 76.958 85.7636 77.42 86.3136 77.506C91.2976 78.28 97.2256 78.294 101.32 78.168C102.234 78.142 103.134 78.106 103.998 78.062C104.682 78.026 105.332 78.334 105.742 78.882C106.152 79.432 106.26 80.146 106.03 80.792L100.09 97.5521C99.9816 97.8541 100.048 98.174 100.264 98.41C100.48 98.644 100.792 98.736 101.098 98.656L125.074 92.416C125.804 92.226 126.55 92.438 127.07 92.9821C127.592 93.528 127.77 94.2821 127.546 95.0021L124.582 104.568C124.496 104.846 124.552 105.134 124.738 105.36C124.924 105.584 125.198 105.696 125.488 105.66L135.754 104.488C135.834 104.478 135.914 104.474 135.992 104.474L135.998 104.472Z" fill="#CCD2D6"/>
    <g opacity="0.5">
      <path d="M115.049 168.534L27.0305 173.786C25.3625 173.884 23.8705 172.758 23.5145 171.126L11.3065 115.592C10.8665 113.586 12.2925 111.65 14.3385 111.478L14.8625 111.434C16.5685 125.052 19.4906 137.458 24.3665 146.18C29.9286 156.136 38.3726 158.832 38.9646 159.006C38.9706 159.008 38.9765 159.012 38.9785 159.012C38.9905 159.016 38.9965 159.018 38.9965 159.018C43.0625 160.602 48.0445 161.574 54.1925 162.118C73.4845 163.818 93.2525 154.52 99.3885 151.324C100.173 150.916 100.121 149.782 99.3026 149.442L92.7846 146.748C91.9906 146.422 91.9126 145.324 92.6565 144.89L99.4906 140.88C100.237 140.44 100.153 139.334 99.3485 139.016L79.2425 131.01C78.5745 130.746 78.3726 129.898 78.8446 129.358L94.2925 111.7C94.8046 111.118 94.5185 110.202 93.7685 110.008L78.5045 106.082L94.6066 104.73C96.1486 104.6 97.5826 105.53 98.0965 106.992L110.731 143.092L98.8406 160.892C98.4326 161.502 98.8706 162.322 99.6066 162.322H117.461L118.055 164.02C118.801 166.148 117.303 168.398 115.053 168.532L115.049 168.534Z" fill="#CCD2D6"/>
    </g>
    <path d="M26.8254 174.394C24.9494 174.394 23.3334 173.106 22.9294 171.256L10.7214 115.722C10.4754 114.596 10.7254 113.418 11.4094 112.492C12.0934 111.566 13.1434 110.978 14.2894 110.882L15.3874 110.788L15.4594 111.36C17.3514 126.46 20.5254 138.076 24.8914 145.888C30.3994 155.748 38.7814 158.328 39.1354 158.432L39.1934 158.452C39.2134 158.458 39.2274 158.464 39.2374 158.47C43.1034 159.972 48.0134 160.972 54.2454 161.522C73.5014 163.22 93.4534 153.74 99.1114 150.794C99.3354 150.678 99.3514 150.472 99.3474 150.39C99.3434 150.306 99.3094 150.098 99.0734 150L92.5554 147.308C91.9754 147.07 91.5894 146.532 91.5454 145.906C91.5014 145.28 91.8114 144.694 92.3534 144.378L99.1854 140.368C99.3994 140.242 99.4074 140.036 99.4014 139.952C99.3954 139.87 99.3554 139.67 99.1254 139.58L79.0174 131.574C78.5254 131.38 78.1554 130.954 78.0294 130.438C77.9034 129.92 78.0374 129.37 78.3894 128.968L93.8374 111.31C93.9834 111.144 93.9494 110.962 93.9274 110.892C93.9054 110.822 93.8314 110.65 93.6154 110.594L74.9214 105.784L94.5534 104.134C96.3654 103.982 98.0554 105.074 98.6594 106.794L111.391 143.176L111.225 143.424L99.3354 161.224C99.2394 161.366 99.2934 161.5 99.3194 161.552C99.3474 161.602 99.4294 161.722 99.6034 161.722H117.881L118.617 163.82C119.035 165.014 118.873 166.302 118.173 167.354C117.473 168.406 116.347 169.054 115.085 169.13L27.0674 174.382C26.9854 174.386 26.9054 174.39 26.8254 174.39V174.394ZM14.3394 112.082C13.5554 112.162 12.8434 112.57 12.3754 113.204C11.8974 113.854 11.7214 114.678 11.8934 115.464L24.1014 170.998C24.3974 172.348 25.6134 173.268 26.9974 173.188L115.015 167.936C115.899 167.884 116.685 167.43 117.175 166.694C117.665 165.958 117.779 165.056 117.485 164.22L117.031 162.924H99.6034C99.0414 162.924 98.5274 162.616 98.2614 162.12C97.9974 161.624 98.0254 161.028 98.3374 160.56L110.061 143.01L97.5274 107.194C97.1034 105.99 95.9214 105.226 94.6554 105.332L82.0814 106.388L93.9154 109.432C94.4714 109.576 94.9054 109.988 95.0734 110.538C95.2414 111.086 95.1174 111.67 94.7394 112.1L79.2914 129.756C79.1954 129.866 79.1594 130.01 79.1954 130.152C79.2294 130.292 79.3254 130.402 79.4594 130.456L99.5674 138.462C100.151 138.692 100.547 139.228 100.597 139.856C100.647 140.488 100.339 141.078 99.7934 141.4L92.9574 145.41C92.7434 145.534 92.7334 145.738 92.7394 145.82C92.7454 145.902 92.7834 146.102 93.0094 146.196L99.5294 148.89C100.127 149.138 100.515 149.692 100.543 150.338C100.571 150.98 100.233 151.562 99.6634 151.86C94.4014 154.6 76.9154 162.924 58.9274 162.924C57.3314 162.924 55.7354 162.858 54.1394 162.718C47.7894 162.156 42.7714 161.132 38.7974 159.586C38.7834 159.582 38.7714 159.578 38.7594 159.572C38.0534 159.356 29.4654 156.54 23.8414 146.472C19.4554 138.624 16.2594 127.056 14.3394 112.08V112.082Z" fill="#CCD2D6"/>
    <g opacity="0.5">
      <path d="M193.587 84.698L132.879 130.91C131.547 131.924 129.643 131.64 128.665 130.284L117.993 115.504V103.178C117.993 102.59 117.381 102.198 116.847 102.446L110.643 105.324L105.457 98.142L125.237 92.994C126.333 92.708 127.321 93.738 126.985 94.822L124.021 104.388C123.711 105.386 124.529 106.372 125.569 106.254L135.835 105.082C136.653 104.988 137.383 105.592 137.445 106.41L137.801 111.226C137.869 112.15 138.777 112.77 139.667 112.502C143.987 111.196 155.629 106.626 166.263 93.136C171.945 85.928 175.823 78.288 178.407 71.884L193.179 79.698C195.101 80.714 195.321 83.378 193.591 84.694L193.587 84.698ZM105.469 80.59L101.291 92.378L96.4231 85.634C95.4211 84.246 95.7931 82.302 97.2351 81.382L101.343 78.766C102.375 78.738 103.287 78.698 104.033 78.66C105.061 78.608 105.813 79.618 105.469 80.59Z" fill="#CCD2D6"/>
    </g>
    <path d="M131.085 132.118C130.909 132.118 130.731 132.104 130.551 132.078C129.589 131.936 128.745 131.424 128.175 130.636L117.389 115.698V103.178C117.389 103.08 117.329 103.028 117.293 103.004C117.257 102.98 117.183 102.948 117.095 102.99L110.441 106.076L104.451 97.782L125.079 92.414C125.809 92.224 126.555 92.436 127.075 92.98C127.597 93.526 127.775 94.28 127.551 95L124.587 104.566C124.501 104.844 124.557 105.132 124.743 105.358C124.929 105.582 125.201 105.692 125.493 105.658L135.759 104.486C136.317 104.422 136.863 104.584 137.297 104.942C137.731 105.3 137.993 105.806 138.035 106.366L138.391 111.184C138.409 111.44 138.543 111.672 138.755 111.818C138.969 111.966 139.235 112.008 139.485 111.932C143.903 110.598 155.309 106.058 165.783 92.77C170.599 86.66 174.657 79.56 177.841 71.666L178.091 71.05L193.451 79.176C194.535 79.75 195.243 80.822 195.343 82.044C195.443 83.266 194.921 84.438 193.945 85.18L133.237 131.392C132.607 131.872 131.857 132.124 131.081 132.124L131.085 132.118ZM118.591 115.31L129.149 129.934C129.527 130.458 130.089 130.798 130.727 130.892C131.367 130.986 132.001 130.824 132.513 130.432L193.221 84.22C193.869 83.726 194.217 82.948 194.151 82.136C194.085 81.324 193.615 80.612 192.893 80.232L178.707 72.7281C175.517 80.4801 171.489 87.47 166.729 93.51C156.043 107.066 144.361 111.71 139.835 113.078C139.235 113.26 138.595 113.16 138.079 112.806C137.565 112.452 137.245 111.894 137.199 111.272L136.843 106.456C136.825 106.226 136.717 106.016 136.537 105.868C136.357 105.72 136.131 105.654 135.899 105.68L125.633 106.852C124.945 106.932 124.267 106.66 123.823 106.126C123.379 105.592 123.239 104.876 123.445 104.214L126.409 94.648C126.501 94.35 126.427 94.038 126.211 93.812C125.995 93.586 125.687 93.4981 125.385 93.5781L106.453 98.504L110.837 104.574L116.593 101.904C117.031 101.702 117.535 101.736 117.943 101.996C118.349 102.256 118.593 102.698 118.593 103.182V115.314L118.591 115.31ZM101.475 93.656L95.9365 85.9841C95.3545 85.1781 95.1365 84.196 95.3225 83.218C95.5085 82.242 96.0745 81.41 96.9125 80.874L101.161 78.17L101.327 78.166C102.239 78.14 103.139 78.104 104.003 78.06C104.687 78.024 105.337 78.332 105.747 78.88C106.157 79.43 106.265 80.1441 106.035 80.7901L101.475 93.656ZM101.527 79.362L97.5585 81.888C97.0005 82.242 96.6265 82.796 96.5025 83.444C96.3785 84.092 96.5225 84.746 96.9105 85.282L101.111 91.098L104.907 80.3901C105.003 80.1181 104.959 79.83 104.787 79.598C104.615 79.368 104.355 79.244 104.067 79.26C103.247 79.302 102.393 79.338 101.529 79.362H101.527Z" fill="#CCD2D6"/>
    <g opacity="0.25">
      <path d="M118.472 162.326H99.6062C98.8682 162.326 98.4322 161.506 98.8402 160.896L110.73 143.096L111.506 141.936C111.932 141.296 112.906 141.43 113.146 142.162L119.346 161.118C119.54 161.712 119.096 162.324 118.472 162.324V162.326Z" fill="#CCD2D6"/>
    </g>
    <path d="M118.47 162.926H99.6038C99.0418 162.926 98.5278 162.618 98.2618 162.122C97.9978 161.626 98.0258 161.03 98.3378 160.562L111.004 141.602C111.328 141.116 111.89 140.862 112.47 140.94C113.052 141.018 113.528 141.416 113.712 141.974L119.914 160.932C120.064 161.394 119.984 161.906 119.698 162.298C119.408 162.696 118.962 162.924 118.47 162.924V162.926ZM112.264 142.128C112.192 142.128 112.082 142.15 112.002 142.27L111.226 143.43L99.3358 161.23C99.2398 161.372 99.2938 161.506 99.3198 161.558C99.3478 161.608 99.4298 161.728 99.6038 161.728H118.47C118.61 161.728 118.692 161.646 118.728 161.596C118.764 161.546 118.818 161.442 118.774 161.306L112.574 142.35C112.516 142.176 112.37 142.14 112.31 142.132C112.298 142.132 112.282 142.13 112.264 142.13V142.128Z" fill="#CCD2D6"/>
    <g opacity="0.25">
      <path d="M117.99 103.176V117.8C117.99 118.516 117.122 118.876 116.614 118.37L106.574 108.404C106.176 108.008 106.292 107.336 106.804 107.098L110.638 105.322L116.842 102.444C117.376 102.196 117.988 102.588 117.988 103.176H117.99Z" fill="#CCD2D6"/>
    </g>
    <path d="M117.182 119.206C116.818 119.206 116.46 119.064 116.192 118.796L106.154 108.83C105.828 108.506 105.68 108.042 105.76 107.588C105.84 107.134 106.136 106.748 106.554 106.554L116.594 101.898C117.032 101.696 117.536 101.73 117.944 101.99C118.35 102.25 118.594 102.692 118.594 103.176V117.8C118.594 118.37 118.254 118.878 117.728 119.098C117.552 119.172 117.368 119.206 117.186 119.206H117.182ZM117.182 102.968C117.156 102.968 117.126 102.974 117.096 102.988L107.056 107.642C106.97 107.682 106.946 107.754 106.94 107.794C106.932 107.834 106.932 107.91 106.998 107.978L117.038 117.944C117.124 118.028 117.216 118.008 117.264 117.988C117.312 117.968 117.39 117.918 117.39 117.8V103.176C117.39 103.078 117.33 103.026 117.294 103.002C117.27 102.988 117.232 102.968 117.182 102.968Z" fill="#CCD2D6"/>
    <g opacity="0.5">
      <path d="M64.7379 71.516C79.9622 71.516 92.3039 59.1743 92.3039 43.95C92.3039 28.7258 79.9622 16.384 64.7379 16.384C49.5136 16.384 37.1719 28.7258 37.1719 43.95C37.1719 59.1743 49.5136 71.516 64.7379 71.516Z" fill="#CCD2D6"/>
    </g>
    <path d="M64.7363 72.118C49.2043 72.118 36.5703 59.482 36.5703 43.952C36.5703 28.422 49.2063 15.786 64.7363 15.786C80.2663 15.786 92.9023 28.422 92.9023 43.952C92.9023 59.482 80.2663 72.118 64.7363 72.118ZM64.7363 16.984C49.8663 16.984 37.7703 29.082 37.7703 43.95C37.7703 58.818 49.8683 70.916 64.7363 70.916C79.6043 70.916 91.7023 58.818 91.7023 43.95C91.7023 29.082 79.6043 16.984 64.7363 16.984Z" fill="#CCD2D6"/>
    <path d="M76.9714 51.178C77.6634 51.868 77.6634 52.992 76.9714 53.682L74.4694 56.188C73.7774 56.878 72.6554 56.878 71.9634 56.188L64.7374 48.962L57.5114 56.188C56.8194 56.878 55.6974 56.878 55.0054 56.188L52.5034 53.682C51.8114 52.992 51.8114 51.868 52.5034 51.178L59.7294 43.952L52.5034 36.722C51.8114 36.032 51.8114 34.908 52.5034 34.22L55.0054 31.714C55.6974 31.024 56.8194 31.024 57.5114 31.714L64.7374 38.94L71.9634 31.714C72.6554 31.024 73.7774 31.024 74.4694 31.714L76.9714 34.22C77.6634 34.91 77.6634 36.034 76.9714 36.722L69.7454 43.952L76.9714 51.178Z" fill="#CCD2D6"/>
    <path d="M168.899 71.682C168.825 71.682 168.749 71.668 168.677 71.638C153.641 65.63 138.647 58.854 124.149 52.3C123.847 52.164 123.713 51.808 123.849 51.506C123.985 51.204 124.341 51.07 124.643 51.206C139.131 57.754 154.111 64.526 169.123 70.524C169.431 70.646 169.581 70.996 169.457 71.304C169.363 71.538 169.137 71.682 168.899 71.682ZM131.553 67.046C131.471 67.046 131.387 67.028 131.307 66.992C129.225 66.056 127.083 65.184 124.941 64.4C124.629 64.286 124.469 63.942 124.583 63.63C124.697 63.318 125.041 63.16 125.353 63.272C127.523 64.066 129.693 64.948 131.799 65.896C132.101 66.032 132.237 66.388 132.101 66.69C132.001 66.912 131.783 67.044 131.553 67.044V67.046ZM155.593 77.712C155.511 77.712 155.429 77.696 155.349 77.66L135.351 68.738C135.049 68.604 134.913 68.248 135.047 67.946C135.181 67.644 135.537 67.508 135.839 67.642L155.837 76.564C156.139 76.7 156.275 77.054 156.141 77.356C156.041 77.58 155.823 77.712 155.593 77.712ZM138.513 85.122C138.421 85.122 138.327 85.1 138.239 85.056L113.521 72.36C113.227 72.208 113.111 71.846 113.261 71.552C113.413 71.258 113.773 71.14 114.069 71.292L138.787 83.988C139.081 84.14 139.197 84.502 139.047 84.796C138.941 85.004 138.731 85.122 138.513 85.122ZM145.097 88.544C145.003 88.544 144.909 88.522 144.821 88.476L141.597 86.798C141.303 86.644 141.189 86.282 141.341 85.988C141.495 85.694 141.857 85.58 142.151 85.734L145.375 87.412C145.669 87.566 145.783 87.928 145.631 88.222C145.523 88.428 145.315 88.544 145.099 88.544H145.097Z" fill="#CCD2D6"/>
    <path d="M74.5773 147.188C74.3193 147.188 74.0833 147.022 74.0033 146.764C69.2493 131.19 65.2253 115.196 62.0453 99.228C61.9813 98.904 62.1913 98.588 62.5173 98.522C62.8413 98.458 63.1593 98.668 63.2233 98.994C66.3973 114.924 70.4113 130.878 75.1533 146.414C75.2493 146.73 75.0713 147.066 74.7553 147.164C74.6973 147.182 74.6373 147.19 74.5793 147.19L74.5773 147.188ZM55.2193 105.626C54.9633 105.626 54.7253 105.46 54.6453 105.202L53.7613 102.336C53.6633 102.02 53.8413 101.684 54.1573 101.586C54.4733 101.488 54.8093 101.666 54.9073 101.982L55.7913 104.848C55.8893 105.164 55.7113 105.5 55.3953 105.598C55.3373 105.616 55.2773 105.624 55.2193 105.624V105.626ZM61.8973 135.78C61.6213 135.78 61.3733 135.588 61.3113 135.308L56.0053 110.906C55.9353 110.582 56.1393 110.262 56.4633 110.192C56.7873 110.12 57.1073 110.326 57.1773 110.65L62.4833 135.052C62.5533 135.376 62.3493 135.696 62.0253 135.766C61.9833 135.776 61.9393 135.78 61.8973 135.78Z" fill="#CCD2D6"/>
  </g>
  <defs>
    <clipPath id="clip0_521_18876">
      <rect width="200" height="200" fill="white"/>
    </clipPath>
  </defs>
</svg>