<svg xmlns="http://www.w3.org/2000/svg" width="200" height="200" viewBox="0 0 200 200" fill="none">
  <g clip-path="url(#clip0_156_10323)">
    <path d="M81.9819 98.926C81.9819 98.898 81.9859 98.87 81.9859 98.842C81.9859 98.822 81.9859 98.802 81.9879 98.782C81.9859 98.83 81.9839 98.878 81.9819 98.928V98.926Z" fill="url(#paint0_linear_156_10323)"/>
    <path d="M182.558 152.324H162.604L159.086 166.07C157.734 171.352 152.974 175.048 147.524 175.048H57.0299C51.5739 175.048 46.8159 171.352 45.4659 166.07L37.7619 135.962C37.4939 140.346 35.6079 144.294 32.6899 147.214C29.5319 150.372 25.1739 152.322 20.3579 152.322H17.4439C12.6279 152.322 8.26791 154.274 5.11191 157.43C1.95391 160.584 0.00390625 164.944 0.00390625 169.76C0.00390625 179.392 7.81391 187.202 17.4459 187.202H182.562C187.378 187.202 191.738 185.25 194.894 182.094C198.052 178.936 200.002 174.578 200.002 169.762C200.002 160.13 192.192 152.324 182.56 152.324H182.558Z" fill="url(#paint1_linear_156_10323)"/>
    <path d="M82.386 95.6021C82.392 95.5741 82.398 95.5461 82.404 95.5181C82.406 95.5061 82.408 95.4921 82.412 95.4801C82.404 95.5201 82.394 95.5621 82.386 95.6021Z" fill="url(#paint2_linear_156_10323)"/>
    <path d="M182.558 82.5601H165.67C156.038 82.5601 148.232 74.7521 148.232 65.1181C148.232 64.4581 148.272 63.8061 148.344 63.1641H124.574L117.766 69.2061C116.28 70.5241 113.932 69.4701 113.932 67.4821V63.1641H106.512C103.982 63.1641 101.93 61.1121 101.93 58.5821V31.9201C101.93 29.3901 103.982 27.3381 106.512 27.3381H153.094C155.624 27.3381 157.676 29.3901 157.676 31.9201V49.6221C160.072 48.3841 162.788 47.6801 165.672 47.6801H182.56C187.376 47.6801 191.736 45.7281 194.892 42.5721C198.05 39.4141 200 35.0561 200 30.2401C200 20.6081 192.19 12.7981 182.558 12.7981H17.442C12.626 12.7981 8.266 14.7501 5.11 17.9061C1.952 21.0621 0 25.4221 0 30.2381C0 39.8701 7.81 47.6801 17.442 47.6801H36.144C45.776 47.6801 53.586 55.4881 53.586 65.1181C53.586 69.9341 51.634 74.2961 48.478 77.4501C45.32 80.6081 40.962 82.5581 36.146 82.5581H17.444C12.628 82.5581 8.268 84.5101 5.112 87.6661C1.954 90.8201 0.004 95.1821 0.004 99.9981C0.004 109.63 7.814 117.436 17.446 117.436H20.36C26.568 117.436 32.016 120.684 35.106 125.57L33.69 120.034L31.62 111.946H28.078C24.998 111.946 22.5 109.448 22.5 106.368V93.0821C22.5 90.0041 24.996 87.5041 28.078 87.5041H84.22L64.076 53.9101C62.936 52.0041 63.554 49.5361 65.458 48.3941L74.112 43.2061C76.016 42.0661 78.486 42.6821 79.626 44.5881L100.554 79.4901C100.572 79.4901 100.59 79.4901 100.608 79.4861C100.85 79.4661 101.092 79.4501 101.336 79.4401C101.4 79.4381 101.462 79.4361 101.526 79.4321C101.758 79.4241 101.99 79.4181 102.222 79.4181C102.24 79.4181 102.26 79.4181 102.278 79.4181C102.346 79.4181 102.412 79.4201 102.48 79.4221C102.598 79.4221 102.716 79.4241 102.834 79.4281C102.924 79.4301 103.014 79.4341 103.104 79.4381C103.204 79.4421 103.304 79.4461 103.404 79.4521C103.496 79.4581 103.588 79.4641 103.682 79.4701C103.778 79.4761 103.876 79.4841 103.972 79.4921C104.064 79.5001 104.156 79.5081 104.248 79.5161C104.344 79.5261 104.442 79.5361 104.538 79.5461C104.628 79.5561 104.718 79.5661 104.808 79.5761C104.912 79.5881 105.016 79.6041 105.12 79.6181C105.2 79.6301 105.282 79.6401 105.362 79.6521C105.536 79.6781 105.71 79.7081 105.882 79.7381C105.96 79.7521 106.04 79.7681 106.118 79.7841C106.222 79.8041 106.324 79.8241 106.428 79.8441C106.512 79.8621 106.598 79.8801 106.682 79.9001C106.778 79.9221 106.874 79.9421 106.97 79.9661C107.056 79.9861 107.14 80.0061 107.224 80.0281C107.32 80.0521 107.414 80.0761 107.51 80.1021C107.592 80.1241 107.676 80.1461 107.758 80.1701C107.858 80.1981 107.956 80.2261 108.054 80.2561C108.13 80.2781 108.208 80.3001 108.284 80.3241C108.414 80.3641 108.542 80.4061 108.67 80.4481C108.752 80.4741 108.832 80.5021 108.912 80.5301C109.04 80.5741 109.17 80.6201 109.296 80.6661C109.366 80.6921 109.436 80.7201 109.508 80.7461C109.608 80.7841 109.708 80.8221 109.808 80.8621C109.882 80.8921 109.954 80.9221 110.028 80.9521C110.124 80.9921 110.22 81.0321 110.314 81.0721C110.386 81.1041 110.458 81.1341 110.53 81.1661C110.628 81.2101 110.726 81.2541 110.824 81.3001C110.89 81.3301 110.956 81.3621 111.022 81.3921C111.136 81.4461 111.25 81.5021 111.362 81.5601C111.41 81.5841 111.458 81.6061 111.506 81.6321C111.664 81.7141 111.822 81.7961 111.978 81.8821C112.02 81.9041 112.062 81.9281 112.104 81.9521C112.22 82.0161 112.336 82.0821 112.452 82.1481C112.508 82.1801 112.562 82.2121 112.616 82.2461C112.718 82.3061 112.82 82.3681 112.92 82.4301C112.976 82.4641 113.032 82.5001 113.088 82.5341C113.19 82.5981 113.29 82.6641 113.392 82.7281C113.442 82.7621 113.494 82.7941 113.544 82.8281C113.656 82.9041 113.768 82.9801 113.88 83.0581C113.916 83.0841 113.952 83.1081 113.99 83.1341C114.29 83.3461 114.584 83.5661 114.87 83.7941C114.896 83.8141 114.922 83.8361 114.948 83.8581C115.064 83.9521 115.18 84.0461 115.294 84.1401C115.328 84.1681 115.362 84.1981 115.396 84.2261C115.504 84.3181 115.612 84.4101 115.718 84.5041C115.75 84.5321 115.782 84.5601 115.814 84.5901C115.928 84.6921 116.04 84.7941 116.152 84.8981C116.174 84.9181 116.194 84.9381 116.216 84.9561C116.626 85.3421 117.02 85.7461 117.396 86.1661C117.404 86.1761 117.412 86.1841 117.42 86.1941C117.536 86.3241 117.652 86.4561 117.764 86.5901C117.776 86.6041 117.788 86.6181 117.8 86.6321C117.914 86.7661 118.026 86.9021 118.136 87.0401C118.142 87.0481 118.148 87.0541 118.154 87.0621C118.272 87.2101 118.388 87.3581 118.502 87.5101H176.482C179.562 87.5101 182.06 90.0081 182.06 93.0881V106.374C182.06 109.452 179.564 111.952 176.482 111.952H172.94L171.534 117.442H182.562C187.378 117.442 191.738 115.49 194.894 112.334C198.052 109.18 200.002 104.82 200.002 100.004C200.002 90.3701 192.192 82.5621 182.56 82.5621L182.558 82.5601Z" fill="url(#paint3_linear_156_10323)"/>
    <path d="M82.7901 93.9821C82.8001 93.9481 82.8101 93.9161 82.8201 93.8841C82.8241 93.8721 82.8261 93.8601 82.8301 93.8501C82.8161 93.8941 82.8021 93.9381 82.7881 93.9841L82.7901 93.9821Z" fill="url(#paint4_linear_156_10323)"/>
    <path d="M82.5559 94.8622C82.5559 94.8622 82.5579 94.8542 82.5599 94.8482C82.5699 94.8062 82.5799 94.7642 82.5899 94.7222C82.5779 94.7682 82.5679 94.8142 82.5579 94.8602L82.5559 94.8622Z" fill="url(#paint5_linear_156_10323)"/>
    <path d="M172.936 111.95L170.866 120.038L159.086 166.072C157.734 171.354 152.974 175.05 147.524 175.05H57.0302C51.5742 175.05 46.8162 171.354 45.4662 166.072L33.6862 120.038L31.6162 111.95H86.0542C89.7602 116.864 95.6462 120.04 102.276 120.04C108.906 120.04 114.792 116.864 118.498 111.95H172.936Z" fill="url(#paint6_linear_156_10323)"/>
    <path d="M101.966 120.036H33.686L31.616 111.948H86.054C89.702 116.784 95.462 119.938 101.966 120.036Z" fill="url(#paint7_linear_156_10323)"/>
    <path d="M172.936 111.95L170.866 120.038H102.586C109.09 119.94 114.85 116.788 118.498 111.95H172.936Z" fill="url(#paint8_linear_156_10323)"/>
    <path d="M103.69 125.504H100.862C98.6903 125.504 96.9299 127.264 96.9299 129.436V159.482C96.9299 161.653 98.6903 163.414 100.862 163.414H103.69C105.862 163.414 107.622 161.653 107.622 159.482V129.436C107.622 127.264 105.862 125.504 103.69 125.504Z" fill="url(#paint9_linear_156_10323)"/>
    <path d="M68.8002 125.528L66.0088 125.981C63.8653 126.33 62.4101 128.35 62.7584 130.493L67.5777 160.15C67.926 162.294 69.946 163.749 72.0895 163.401L74.8808 162.947C77.0243 162.599 78.4796 160.579 78.1313 158.435L73.3119 128.778C72.9636 126.635 70.9436 125.179 68.8002 125.528Z" fill="url(#paint10_linear_156_10323)"/>
    <path d="M129.657 162.949L132.449 163.403C134.592 163.751 136.612 162.296 136.961 160.152L141.78 130.495C142.128 128.352 140.673 126.332 138.529 125.983L135.738 125.53C133.595 125.181 131.575 126.637 131.226 128.78L126.407 158.437C126.059 160.581 127.514 162.601 129.657 162.949Z" fill="url(#paint11_linear_156_10323)"/>
    <path d="M182.054 93.086V106.372C182.054 109.45 179.558 111.95 176.476 111.95H118.496C121.064 108.55 122.584 104.318 122.584 99.73C122.584 95.142 121.062 90.91 118.496 87.51H176.476C179.556 87.51 182.054 90.008 182.054 93.088V93.086Z" fill="url(#paint12_linear_156_10323)"/>
    <path d="M81.9661 99.728C81.9661 104.316 83.4881 108.548 86.0541 111.948H28.0741C24.9941 111.948 22.4961 109.45 22.4961 106.37V93.084C22.4961 90.006 24.9921 87.506 28.0741 87.506H86.0541C83.4861 90.906 81.9661 95.138 81.9661 99.726V99.728Z" fill="url(#paint13_linear_156_10323)"/>
    <path d="M100.55 79.4919C94.6302 79.9899 89.4342 83.026 86.0542 87.5079C85.7062 87.97 85.3782 88.444 85.0702 88.934L64.0702 53.914C62.9302 52.008 63.5482 49.54 65.4522 48.398L74.1062 43.21C76.0102 42.07 78.4802 42.686 79.6202 44.592L100.548 79.4939L100.55 79.4919Z" fill="url(#paint14_linear_156_10323)"/>
    <path d="M122.586 99.7279C122.586 104.316 121.064 108.548 118.498 111.948C114.85 116.784 109.09 119.938 102.586 120.036C102.482 120.038 102.38 120.038 102.276 120.038C102.172 120.038 102.07 120.038 101.966 120.036C95.4621 119.938 89.7021 116.786 86.0541 111.948C83.4861 108.548 81.9661 104.316 81.9661 99.7279C81.9661 95.7619 83.1021 92.0619 85.0721 88.9339C85.3801 88.4439 85.7081 87.9699 86.0561 87.5079C89.4361 83.0259 94.6341 79.9879 100.552 79.4919C101.12 79.4439 101.696 79.4199 102.278 79.4199C108.908 79.4199 114.794 82.5959 118.5 87.5099C121.068 90.9099 122.588 95.1419 122.588 99.7299L122.586 99.7279Z" fill="url(#paint15_linear_156_10323)"/>
    <path d="M112.73 99.7279C112.73 105.502 108.05 110.182 102.276 110.182C96.502 110.182 92.084 105.76 91.834 100.212C91.826 100.052 91.822 99.8899 91.822 99.7279C91.822 93.9539 96.502 89.2739 102.276 89.2739C104.03 89.2739 105.682 89.7039 107.132 90.4699C110.46 92.2179 112.73 95.7099 112.73 99.7279Z" fill="url(#paint16_linear_156_10323)"/>
    <path d="M118.446 169.09H102.276C101.944 169.09 101.676 168.822 101.676 168.49C101.676 168.158 101.944 167.89 102.276 167.89H118.446C118.778 167.89 119.046 168.158 119.046 168.49C119.046 168.822 118.778 169.09 118.446 169.09ZM150.788 169.09H129.14C128.808 169.09 128.54 168.822 128.54 168.49C128.54 168.158 128.808 167.89 129.14 167.89H150.788C151.12 167.89 151.388 168.158 151.388 168.49C151.388 168.822 151.12 169.09 150.788 169.09Z" fill="#CCD2D6"/>
    <path d="M74.2861 106.492H39.5001C39.1681 106.492 38.9001 106.224 38.9001 105.892C38.9001 105.56 39.1681 105.292 39.5001 105.292H74.2861C74.6181 105.292 74.8861 105.56 74.8861 105.892C74.8861 106.224 74.6181 106.492 74.2861 106.492ZM140.942 106.492H129.138C128.806 106.492 128.538 106.224 128.538 105.892C128.538 105.56 128.806 105.292 129.138 105.292H140.942C141.274 105.292 141.542 105.56 141.542 105.892C141.542 106.224 141.274 106.492 140.942 106.492Z" fill="#CCD2D6"/>
    <path d="M153.092 27.3359H106.51C103.98 27.3359 101.928 29.3879 101.928 31.9179V58.5799C101.928 61.1099 103.98 63.1619 106.51 63.1619H113.93V67.4799C113.93 69.4679 116.276 70.5219 117.764 69.2039L124.572 63.1619H153.09C155.62 63.1619 157.672 61.1099 157.672 58.5799V31.9179C157.672 29.3879 155.62 27.3359 153.09 27.3359H153.092Z" fill="url(#paint17_linear_156_10323)"/>
    <path d="M137.638 46.7279C137.638 49.7639 136.956 52.1079 135.592 53.7539C134.228 55.4019 132.306 56.2239 129.824 56.2239C127.342 56.2239 125.386 55.3959 124.018 53.7379C122.648 52.0799 121.964 49.7439 121.964 46.7279V42.6199C121.964 39.5839 122.646 37.2419 124.01 35.5939C125.374 33.9479 127.302 33.1239 129.792 33.1239C132.282 33.1239 134.214 33.9519 135.582 35.6099C136.952 37.2679 137.636 39.6099 137.636 42.6359V46.7279H137.638ZM132.434 41.9559C132.434 40.3399 132.222 39.1319 131.8 38.3339C131.378 37.5359 130.708 37.1379 129.792 37.1379C128.876 37.1379 128.246 37.5079 127.838 38.2499C127.432 38.9919 127.212 40.1139 127.182 41.6159V47.3599C127.182 49.0379 127.392 50.2659 127.814 51.0419C128.236 51.8199 128.906 52.2079 129.822 52.2079C130.738 52.2079 131.36 51.8299 131.784 51.0719C132.206 50.3159 132.422 49.1279 132.432 47.5119V41.9519L132.434 41.9559Z" fill="url(#paint18_linear_156_10323)"/>
    <path d="M75.0061 82.6862C74.9941 82.6862 74.9821 82.6862 74.9701 82.6862C74.1741 82.6382 73.3721 82.5882 72.5701 82.5322C72.2401 82.5082 71.9901 82.2222 72.0141 81.8922C72.0381 81.5622 72.3221 81.3122 72.654 81.3362C73.4541 81.3922 74.2501 81.4422 75.0441 81.4902C75.3741 81.5102 75.6261 81.7942 75.6061 82.1262C75.5861 82.4442 75.3221 82.6902 75.0081 82.6902L75.0061 82.6862ZM67.7581 82.0702C67.7321 82.0702 67.7061 82.0702 67.68 82.0642C65.8841 81.8322 64.2941 81.5402 62.8201 81.1702C62.4981 81.0902 62.3041 80.7642 62.3841 80.4422C62.4641 80.1202 62.7901 79.9242 63.1121 80.0062C64.5401 80.3642 66.0861 80.6482 67.8361 80.8742C68.1641 80.9162 68.396 81.2182 68.354 81.5462C68.314 81.8482 68.056 82.0702 67.7601 82.0702H67.7581ZM58.3601 79.6122C58.278 79.6122 58.1921 79.5942 58.1121 79.5582C57.0381 79.0702 56.0201 78.5082 55.0801 77.8842C54.6561 77.6022 54.2341 77.2962 53.8241 76.9702C53.5641 76.7642 53.5221 76.3862 53.7281 76.1282C53.9341 75.8682 54.3121 75.8262 54.5701 76.0322C54.9541 76.3362 55.3501 76.6242 55.7441 76.8882C56.6301 77.4762 57.5921 78.0082 58.6081 78.4682C58.9101 78.6042 59.0441 78.9602 58.9061 79.2622C58.8061 79.4842 58.588 79.6142 58.3601 79.6142V79.6122ZM50.7861 73.6342C50.6081 73.6342 50.4301 73.5542 50.3121 73.4022C49.2761 72.0682 48.4001 70.6322 47.7081 69.1302C47.5701 68.8282 47.7021 68.4722 48.0021 68.3342C48.3041 68.1962 48.6601 68.3282 48.7981 68.6282C49.4501 70.0462 50.278 71.4042 51.26 72.6642C51.4641 72.9262 51.4161 73.3022 51.1541 73.5062C51.0441 73.5922 50.9141 73.6322 50.7861 73.6322V73.6342ZM46.8041 64.8402C46.6281 64.8402 46.4641 64.7622 46.3521 64.6342C45.8441 64.6262 45.3501 64.5802 44.8801 64.4942C44.5541 64.4342 44.3381 64.1222 44.3981 63.7962C44.4581 63.4702 44.7701 63.2542 45.0961 63.3142C45.4141 63.3722 45.7461 63.4102 46.0881 63.4262C46.0281 62.8642 45.9961 62.3062 45.9961 61.7582C45.9961 60.9182 46.0681 60.0862 46.2121 59.2842C46.2701 58.9582 46.5821 58.7402 46.9081 58.7982C47.2341 58.8562 47.4521 59.1682 47.3941 59.4942C47.2641 60.2262 47.1981 60.9882 47.1981 61.7582C47.1981 62.2982 47.2301 62.8482 47.2941 63.4022C48.0341 63.3402 48.8241 63.1962 49.6521 62.9682C49.9701 62.8802 50.3021 63.0682 50.3901 63.3882C50.4781 63.7082 50.2901 64.0382 49.9701 64.1262C49.0301 64.3842 48.1281 64.5462 47.2821 64.6082C47.1921 64.7242 47.0601 64.8082 46.9061 64.8342C46.8721 64.8402 46.8401 64.8422 46.8081 64.8422L46.8041 64.8402ZM40.6821 62.3402C40.5461 62.3402 40.4101 62.2942 40.2981 62.2022C39.1421 61.2402 38.0121 59.9862 36.9421 58.4722C36.7501 58.2022 36.814 57.8262 37.086 57.6362C37.356 57.4442 37.7321 57.5102 37.9221 57.7802C38.9321 59.2082 39.9901 60.3862 41.0661 61.2802C41.3201 61.4922 41.3561 61.8702 41.1441 62.1242C41.0261 62.2662 40.8541 62.3402 40.6821 62.3402ZM54.198 62.1002C54.0221 62.1002 53.8481 62.0242 53.7301 61.8762C53.5221 61.6182 53.564 61.2402 53.8221 61.0322C54.1381 60.7782 54.4221 60.5022 54.666 60.2122C55.3321 59.4182 55.7281 58.3702 55.7281 57.4102C55.7281 57.3802 55.7281 57.3522 55.7281 57.3222C55.7201 56.9902 55.9821 56.7162 56.3121 56.7062C56.6361 56.6982 56.9181 56.9602 56.9281 57.2902C56.9281 57.3302 56.9281 57.3682 56.9281 57.4082C56.9281 58.6622 56.4381 59.9642 55.5841 60.9822C55.2901 61.3322 54.95 61.6642 54.5721 61.9662C54.462 62.0542 54.3281 62.0982 54.1961 62.0982L54.198 62.1002ZM48.9461 55.7042C48.7881 55.7042 48.6281 55.6422 48.5101 55.5182C48.2821 55.2782 48.2921 54.8982 48.5321 54.6702C49.0541 54.1742 49.6361 53.7862 50.2641 53.5142C51.2661 53.0802 52.4821 52.9882 53.5801 53.2622C53.9021 53.3422 54.0981 53.6682 54.0181 53.9902C53.9381 54.3122 53.6121 54.5082 53.2901 54.4282C52.4461 54.2182 51.5041 54.2862 50.7421 54.6182C50.2441 54.8342 49.7801 55.1442 49.3601 55.5442C49.2441 55.6542 49.0961 55.7082 48.9461 55.7082V55.7042ZM34.9441 54.5362C34.7241 54.5362 34.5141 54.4162 34.4081 54.2062C33.708 52.8262 33.0341 51.3082 32.4061 49.6982C32.2861 49.3902 32.4381 49.0422 32.7461 48.9202C33.0541 48.8002 33.4021 48.9522 33.5241 49.2602C34.1401 50.8362 34.798 52.3162 35.4801 53.6622C35.6301 53.9582 35.5121 54.3182 35.2161 54.4682C35.1301 54.5122 35.0361 54.5322 34.9461 54.5322L34.9441 54.5362ZM31.3621 45.4642C31.1061 45.4642 30.8681 45.2982 30.7881 45.0402C30.5501 44.2622 30.3241 43.4782 30.1201 42.7122C30.0341 42.3922 30.2241 42.0622 30.5441 41.9782C30.8641 41.8922 31.1921 42.0822 31.2781 42.4022C31.4801 43.1542 31.7001 43.9222 31.9341 44.6882C32.0321 45.0042 31.854 45.3402 31.536 45.4382C31.478 45.4562 31.4181 45.4642 31.3601 45.4642H31.3621Z" fill="#CCD2D6"/>
    <path d="M33.7311 30.0812C37.8365 28.8205 40.678 26.2142 40.0778 24.2597C39.4777 22.3052 35.6631 21.7427 31.5577 23.0033C27.4523 24.2639 24.6108 26.8703 25.211 28.8248C25.8111 30.7793 29.6257 31.3418 33.7311 30.0812Z" fill="url(#paint19_linear_156_10323)"/>
    <path d="M30.9356 38.8609C33.469 37.8131 34.1922 33.7465 32.5508 29.778C30.9094 25.8095 27.5251 23.4418 24.9917 24.4896C22.4583 25.5374 21.7351 29.604 23.3765 33.5725C25.0179 37.541 28.4022 39.9087 30.9356 38.8609Z" fill="url(#paint20_linear_156_10323)"/>
    <path d="M39.5952 32.6348C40.192 30.6793 37.3459 28.0779 33.2383 26.8244C29.1308 25.571 25.3171 26.1401 24.7204 28.0957C24.1237 30.0512 26.9697 32.6526 31.0773 33.9061C35.1849 35.1595 38.9985 34.5904 39.5952 32.6348Z" fill="url(#paint21_linear_156_10323)"/>
  </g>
  <defs>
    <linearGradient id="paint0_linear_156_10323" x1="81.9859" y1="45.4932" x2="81.9859" y2="188.963" gradientUnits="userSpaceOnUse">
      <stop stop-color="#CCD2D6" stop-opacity="0.1"/>
      <stop offset="1" stop-color="#CCD2D6" stop-opacity="0.25"/>
    </linearGradient>
    <linearGradient id="paint1_linear_156_10323" x1="99.9999" y1="45.494" x2="99.9999" y2="188.962" gradientUnits="userSpaceOnUse">
      <stop stop-color="#CCD2D6" stop-opacity="0.1"/>
      <stop offset="1" stop-color="#CCD2D6" stop-opacity="0.25"/>
    </linearGradient>
    <linearGradient id="paint2_linear_156_10323" x1="82.4" y1="-0.00237936" x2="82.4" y2="-0.00237936" gradientUnits="userSpaceOnUse">
      <stop stop-color="#CCD2D6" stop-opacity="0.1"/>
      <stop offset="1" stop-color="#CCD2D6" stop-opacity="0.25"/>
    </linearGradient>
    <linearGradient id="paint3_linear_156_10323" x1="100" y1="45.4941" x2="100" y2="188.962" gradientUnits="userSpaceOnUse">
      <stop stop-color="#CCD2D6" stop-opacity="0.1"/>
      <stop offset="1" stop-color="#CCD2D6" stop-opacity="0.25"/>
    </linearGradient>
    <linearGradient id="paint4_linear_156_10323" x1="82.8121" y1="-0.00177969" x2="82.8121" y2="-0.00177969" gradientUnits="userSpaceOnUse">
      <stop stop-color="#CCD2D6" stop-opacity="0.1"/>
      <stop offset="1" stop-color="#CCD2D6" stop-opacity="0.25"/>
    </linearGradient>
    <linearGradient id="paint5_linear_156_10323" x1="82.5719" y1="-0.00148183" x2="82.5719" y2="188.964" gradientUnits="userSpaceOnUse">
      <stop stop-color="#CCD2D6" stop-opacity="0.1"/>
      <stop offset="1" stop-color="#CCD2D6" stop-opacity="0.25"/>
    </linearGradient>
    <linearGradient id="paint6_linear_156_10323" x1="102.276" y1="141.392" x2="102.276" y2="201.9" gradientUnits="userSpaceOnUse">
      <stop stop-color="#CCD2D6" stop-opacity="0.5"/>
      <stop offset="1" stop-color="#CCD2D6"/>
    </linearGradient>
    <linearGradient id="paint7_linear_156_10323" x1="66.792" y1="123.622" x2="66.792" y2="109.318" gradientUnits="userSpaceOnUse">
      <stop stop-color="#CCD2D6" stop-opacity="0"/>
      <stop offset="1" stop-color="#CCD2D6"/>
    </linearGradient>
    <linearGradient id="paint8_linear_156_10323" x1="137.76" y1="123.622" x2="137.76" y2="109.318" gradientUnits="userSpaceOnUse">
      <stop stop-color="#CCD2D6" stop-opacity="0"/>
      <stop offset="1" stop-color="#CCD2D6"/>
    </linearGradient>
    <linearGradient id="paint9_linear_156_10323" x1="102.276" y1="136.642" x2="102.276" y2="182.176" gradientUnits="userSpaceOnUse">
      <stop stop-color="#CCD2D6" stop-opacity="0.5"/>
      <stop offset="1" stop-color="#CCD2D6" stop-opacity="0.8"/>
    </linearGradient>
    <linearGradient id="paint10_linear_156_10323" x1="70.4513" y1="136.644" x2="70.4513" y2="182.178" gradientUnits="userSpaceOnUse">
      <stop stop-color="#CCD2D6" stop-opacity="0.5"/>
      <stop offset="1" stop-color="#CCD2D6" stop-opacity="0.8"/>
    </linearGradient>
    <linearGradient id="paint11_linear_156_10323" x1="134.085" y1="136.654" x2="134.085" y2="182.188" gradientUnits="userSpaceOnUse">
      <stop stop-color="#CCD2D6" stop-opacity="0.5"/>
      <stop offset="1" stop-color="#CCD2D6" stop-opacity="0.8"/>
    </linearGradient>
    <linearGradient id="paint12_linear_156_10323" x1="150.276" y1="92.574" x2="150.276" y2="136.356" gradientUnits="userSpaceOnUse">
      <stop stop-color="#CCD2D6" stop-opacity="0.4"/>
      <stop offset="1" stop-color="#CCD2D6"/>
    </linearGradient>
    <linearGradient id="paint13_linear_156_10323" x1="54.2761" y1="92.574" x2="54.2761" y2="136.356" gradientUnits="userSpaceOnUse">
      <stop stop-color="#CCD2D6" stop-opacity="0.4"/>
      <stop offset="1" stop-color="#CCD2D6"/>
    </linearGradient>
    <linearGradient id="paint14_linear_156_10323" x1="80.9442" y1="64.586" x2="99.0202" y2="92.6199" gradientUnits="userSpaceOnUse">
      <stop stop-color="#CCD2D6" stop-opacity="0.5"/>
      <stop offset="1" stop-color="#CCD2D6"/>
    </linearGradient>
    <linearGradient id="paint15_linear_156_10323" x1="102.276" y1="86.4459" x2="102.276" y2="123.444" gradientUnits="userSpaceOnUse">
      <stop stop-color="#CCD2D6" stop-opacity="0.25"/>
      <stop offset="1" stop-color="#CCD2D6" stop-opacity="0.5"/>
    </linearGradient>
    <linearGradient id="paint16_linear_156_10323" x1="102.276" y1="89.5099" x2="102.276" y2="111.638" gradientUnits="userSpaceOnUse">
      <stop stop-color="#CCD2D6" stop-opacity="0.5"/>
      <stop offset="1" stop-color="#CCD2D6"/>
    </linearGradient>
    <linearGradient id="paint17_linear_156_10323" x1="129.802" y1="31.0939" x2="129.802" y2="69.8079" gradientUnits="userSpaceOnUse">
      <stop stop-color="#CCD2D6" stop-opacity="0.25"/>
      <stop offset="1" stop-color="#CCD2D6" stop-opacity="0.5"/>
    </linearGradient>
    <linearGradient id="paint18_linear_156_10323" x1="129.802" y1="35.0419" x2="129.802" y2="54.8119" gradientUnits="userSpaceOnUse">
      <stop stop-color="#CCD2D6" stop-opacity="0.5"/>
      <stop offset="1" stop-color="#CCD2D6"/>
    </linearGradient>
    <linearGradient id="paint19_linear_156_10323" x1="25.129" y1="26.5457" x2="40.157" y2="26.5457" gradientUnits="userSpaceOnUse">
      <stop stop-color="#CCD2D6" stop-opacity="0.25"/>
      <stop offset="1" stop-color="#CCD2D6" stop-opacity="0.7"/>
    </linearGradient>
    <linearGradient id="paint20_linear_156_10323" x1="22.4945" y1="31.6767" x2="33.4285" y2="31.6767" gradientUnits="userSpaceOnUse">
      <stop stop-color="#CCD2D6" stop-opacity="0.5"/>
      <stop offset="1" stop-color="#CCD2D6"/>
    </linearGradient>
    <linearGradient id="paint21_linear_156_10323" x1="24.6379" y1="30.3667" x2="39.6719" y2="30.3667" gradientUnits="userSpaceOnUse">
      <stop stop-color="#CCD2D6" stop-opacity="0.25"/>
      <stop offset="1" stop-color="#CCD2D6" stop-opacity="0.7"/>
    </linearGradient>
    <clipPath id="clip0_156_10323">
      <rect width="200" height="200" fill="white"/>
    </clipPath>
  </defs>
</svg>