<svg xmlns="http://www.w3.org/2000/svg" width="200" height="200" viewBox="0 0 200 200" fill="none">
  <path d="M18.358 41.8922H21.426C26.494 41.8922 31.084 43.9462 34.406 47.2702C36.316 49.1802 37.802 51.5082 38.726 54.1042C39.4 52.9342 40.274 51.9042 41.302 51.0562L41.48 50.9102L55.218 39.5002C57.55 37.5622 60.484 36.5022 63.516 36.5022H128.584C131.614 36.5022 134.55 37.5622 136.882 39.5002L139.676 41.8942H146.388C156.526 41.8942 164.746 33.6762 164.746 23.5382C164.746 18.4702 162.692 13.8802 159.368 10.5582C156.044 7.23418 151.456 5.18018 146.388 5.18018H18.358C8.22 5.17818 0 13.3982 0 23.5362C0 28.6042 2.054 33.1942 5.378 36.5142C8.702 39.8382 13.29 41.8922 18.358 41.8922Z" fill="url(#paint0_linear_118_4365)"/>
  <path d="M158.942 84.7424H180.742C182.708 84.7424 184.3 86.3364 184.3 88.3004V115.072C193.004 113.634 199.644 106.078 199.644 96.9644C199.644 91.8964 197.59 87.3064 194.266 83.9864C190.942 80.6624 186.354 78.6084 181.286 78.6084H157.88L158.942 84.7424Z" fill="url(#paint1_linear_118_4365)"/>
  <path d="M194.622 157.412C191.298 154.088 186.71 152.034 181.642 152.034H174.376C173.054 152.034 171.768 151.892 170.524 151.626L173.148 166.776C174.334 173.62 169.066 179.882 162.118 179.882H29.552C22.604 179.882 17.336 173.622 18.522 166.776L21.074 152.034H18.358C8.22 152.034 0 160.254 0 170.392C0 175.46 2.054 180.05 5.378 183.372C8.702 186.696 13.29 188.75 18.358 188.75H181.642C191.78 188.75 200 180.53 200 170.392C200 165.324 197.946 160.734 194.622 157.412Z" fill="url(#paint2_linear_118_4365)"/>
  <path d="M18.358 115.322H27.432L27.806 113.164H19.696C17.994 113.164 16.47 112.284 15.618 110.81C14.768 109.336 14.768 107.576 15.618 106.1L30.822 79.7661C31.518 78.5621 32.66 77.7541 33.982 77.4981L34.792 72.8281C31.444 76.3841 26.696 78.6081 21.426 78.6081H18.358C8.22 78.6081 0 86.8261 0 96.9641C0 102.032 2.054 106.624 5.378 109.944C8.702 113.268 13.29 115.322 18.358 115.322Z" fill="url(#paint3_linear_118_4365)"/>
  <path d="M150.264 56.2619C148.33 54.7059 145.878 53.7858 143.24 53.7858H48.43C45.824 53.7858 43.4 54.6819 41.478 56.2059L55.216 44.7958C57.548 42.8578 60.482 41.7979 63.514 41.7979H128.582C131.612 41.7979 134.548 42.8578 136.88 44.7958L150.262 56.2619H150.264Z" fill="url(#paint4_linear_118_4365)"/>
  <path d="M162.118 185.18H29.5519C22.6039 185.18 17.3359 178.92 18.5219 172.074L27.8059 118.46H50.1039C51.8059 118.46 53.3319 117.58 54.1819 116.106C55.0339 114.632 55.0339 112.872 54.1819 111.396L38.9779 85.0617C38.1279 83.5877 36.6019 82.7077 34.8999 82.7077C34.5879 82.7077 34.2799 82.7377 33.9819 82.7937L37.3979 63.0697C37.8679 60.3497 39.2979 58.0037 41.3019 56.3497L41.4799 56.2037C43.4019 54.6797 45.8259 53.7837 48.4319 53.7837H143.24C145.878 53.7837 148.332 54.7037 150.264 56.2597C150.276 56.2697 150.284 56.2757 150.294 56.2857L150.37 56.3517C151.372 57.1777 152.228 58.1797 152.894 59.3117C153.56 60.4457 154.036 61.7097 154.27 63.0717L158.94 90.0397H141.69C139.724 90.0397 138.132 91.6337 138.132 93.5977V132.648C138.132 134.614 139.726 136.206 141.69 136.206H166.936L173.148 172.074C174.334 178.918 169.066 185.18 162.118 185.18Z" fill="url(#paint5_linear_118_4365)"/>
  <path d="M162.118 185.18H29.5519C22.6039 185.18 17.3359 178.92 18.5219 172.074L27.8059 118.46H50.1039C51.8059 118.46 53.3319 117.58 54.1819 116.106C55.0339 114.632 55.0339 112.872 54.1819 111.396L38.9779 85.0617C38.1279 83.5877 36.6019 82.7077 34.8999 82.7077C34.5879 82.7077 34.2799 82.7377 33.9819 82.7937L37.3979 63.0697C37.8679 60.3497 39.2979 58.0037 41.3019 56.3497L41.4799 56.2037C43.4019 54.6797 45.8259 53.7837 48.4319 53.7837H143.24C145.878 53.7837 148.332 54.7037 150.264 56.2597C150.276 56.2697 150.284 56.2757 150.294 56.2857L150.37 56.3517C151.372 57.1777 152.228 58.1797 152.894 59.3117C153.56 60.4457 154.036 61.7097 154.27 63.0717L158.94 90.0397H141.69C139.724 90.0397 138.132 91.6337 138.132 93.5977V132.648C138.132 134.614 139.726 136.206 141.69 136.206H166.936L173.148 172.074C174.334 178.918 169.066 185.18 162.118 185.18Z" fill="url(#paint6_linear_118_4365)"/>
  <path d="M73.2641 77.4599C76.7612 77.4599 79.5961 74.625 79.5961 71.1279C79.5961 67.6308 76.7612 64.7959 73.2641 64.7959C69.7671 64.7959 66.9321 67.6308 66.9321 71.1279C66.9321 74.625 69.7671 77.4599 73.2641 77.4599Z" fill="url(#paint7_linear_118_4365)"/>
  <path d="M118.408 77.4599C121.905 77.4599 124.74 74.625 124.74 71.1279C124.74 67.6308 121.905 64.7959 118.408 64.7959C114.911 64.7959 112.076 67.6308 112.076 71.1279C112.076 74.625 114.911 77.4599 118.408 77.4599Z" fill="url(#paint8_linear_118_4365)"/>
  <path d="M97.0681 115.816C88.6601 115.816 82.1861 113.068 77.8301 107.646C72.4501 100.952 71.3401 91.3298 71.3541 84.4358C71.3701 77.0078 72.6641 71.0558 72.6761 70.9978C72.7481 70.6738 73.0661 70.4698 73.3921 70.5418C73.7161 70.6138 73.9201 70.9338 73.8481 71.2578C73.8361 71.3158 72.5661 77.1618 72.5541 84.4658C72.5421 91.1578 73.6101 100.482 78.7661 106.898C82.8821 112.02 89.0401 114.616 97.0661 114.616C105.092 114.616 110.988 112.068 114.814 107.042C124.166 94.7558 117.894 71.5218 117.828 71.2878C117.74 70.9678 117.928 70.6378 118.246 70.5498C118.566 70.4618 118.896 70.6498 118.984 70.9678C119 71.0278 120.636 77.0198 121.062 84.4818C121.456 91.4138 120.858 101.08 115.768 107.768C111.704 113.108 105.41 115.816 97.0661 115.816H97.0681Z" fill="#CCD2D6"/>
  <path d="M82.6201 147.01C85.7615 147.01 88.3081 144.463 88.3081 141.322C88.3081 138.18 85.7615 135.634 82.6201 135.634C79.4787 135.634 76.9321 138.18 76.9321 141.322C76.9321 144.463 79.4787 147.01 82.6201 147.01Z" fill="url(#paint9_linear_118_4365)"/>
  <path d="M108.68 147.01C111.822 147.01 114.368 144.463 114.368 141.322C114.368 138.18 111.822 135.634 108.68 135.634C105.539 135.634 102.992 138.18 102.992 141.322C102.992 144.463 105.539 147.01 108.68 147.01Z" fill="url(#paint10_linear_118_4365)"/>
  <path d="M108.682 161.19H82.9901C82.6581 161.19 82.3901 160.922 82.3901 160.59C82.3901 160.258 82.6581 159.99 82.9901 159.99H108.682C109.014 159.99 109.282 160.258 109.282 160.59C109.282 160.922 109.014 161.19 108.682 161.19Z" fill="#CCD2D6"/>
  <path d="M112.076 176.384H22.0399C21.7079 176.384 21.4399 176.116 21.4399 175.784C21.4399 175.452 21.7079 175.184 22.0399 175.184H112.076C112.408 175.184 112.676 175.452 112.676 175.784C112.676 176.116 112.408 176.384 112.076 176.384ZM157.856 176.384H118.408C118.076 176.384 117.808 176.116 117.808 175.784C117.808 175.452 118.076 175.184 118.408 175.184H157.856C158.188 175.184 158.456 175.452 158.456 175.784C158.456 176.116 158.188 176.384 157.856 176.384Z" fill="#CCD2D6"/>
  <path d="M64.6237 48.4397C64.3197 48.4397 64.0597 48.2117 64.0277 47.9037C64.0217 47.8497 63.8857 46.5457 63.8857 44.3937C63.8857 43.9437 63.8917 43.4837 63.9037 43.0257C63.9117 42.6937 64.1877 42.4377 64.5197 42.4417C64.8517 42.4497 65.1117 42.7257 65.1037 43.0577C65.0917 43.5057 65.0857 43.9557 65.0857 44.3957C65.0857 46.4777 65.2197 47.7657 65.2197 47.7797C65.2537 48.1097 65.0157 48.4037 64.6857 48.4397C64.6637 48.4417 64.6437 48.4437 64.6217 48.4437L64.6237 48.4397ZM64.8457 38.8477C64.8217 38.8477 64.7997 38.8477 64.7757 38.8437C64.4457 38.8057 64.2117 38.5077 64.2497 38.1777C64.4397 36.5477 64.7037 34.9357 65.0377 33.3817C65.1077 33.0577 65.4257 32.8517 65.7497 32.9197C66.0737 32.9897 66.2797 33.3077 66.2117 33.6317C65.8877 35.1477 65.6277 36.7217 65.4437 38.3137C65.4077 38.6197 65.1497 38.8437 64.8477 38.8437L64.8457 38.8477ZM149.796 34.4477C149.766 34.4477 149.734 34.4457 149.702 34.4397C149.468 34.4037 149.23 34.3557 148.996 34.2997C147.534 33.9457 146.216 33.3037 145.082 32.3957C144.824 32.1877 144.782 31.8117 144.988 31.5517C145.194 31.2937 145.572 31.2517 145.832 31.4577C146.844 32.2677 147.972 32.8157 149.28 33.1317C149.482 33.1797 149.686 33.2217 149.888 33.2537C150.216 33.3037 150.44 33.6117 150.388 33.9397C150.342 34.2357 150.086 34.4477 149.796 34.4477ZM154.46 33.7057C154.236 33.7057 154.022 33.5797 153.918 33.3657C153.774 33.0677 153.9 32.7077 154.198 32.5657C155.418 31.9797 156.64 31.0497 157.826 29.8057C158.056 29.5657 158.434 29.5577 158.674 29.7857C158.914 30.0137 158.922 30.3937 158.694 30.6337C157.406 31.9837 156.068 32.9977 154.716 33.6457C154.632 33.6857 154.544 33.7057 154.456 33.7057H154.46ZM66.8737 29.4717C66.8117 29.4717 66.7477 29.4617 66.6857 29.4417C66.3717 29.3377 66.1997 28.9997 66.3037 28.6837C66.8217 27.1097 67.4277 25.5857 68.1037 24.1557C68.2457 23.8557 68.6037 23.7277 68.9017 23.8697C69.2017 24.0117 69.3297 24.3697 69.1877 24.6677C68.5337 26.0537 67.9457 27.5317 67.4437 29.0577C67.3597 29.3097 67.1257 29.4697 66.8737 29.4697V29.4717ZM142.468 28.8117C142.256 28.8117 142.05 28.6997 141.942 28.4997C141.322 27.3677 140.76 26.0617 140.174 24.3917C140.13 24.2637 140.082 24.1377 140.034 24.0097C139.916 23.6997 140.072 23.3537 140.382 23.2357C140.692 23.1177 141.038 23.2737 141.156 23.5837C141.208 23.7217 141.258 23.8577 141.306 23.9957C141.87 25.6017 142.406 26.8497 142.994 27.9237C143.152 28.2137 143.046 28.5797 142.756 28.7377C142.664 28.7877 142.566 28.8117 142.468 28.8117ZM99.0937 27.7017C98.3477 27.7017 97.5777 27.5937 96.8037 27.3777C96.4837 27.2897 96.2977 26.9577 96.3857 26.6397C96.4737 26.3197 96.8057 26.1337 97.1237 26.2217C98.6517 26.6457 100.126 26.5837 101.44 26.0437C101.746 25.9177 102.098 26.0637 102.224 26.3697C102.35 26.6757 102.204 27.0277 101.898 27.1537C101.014 27.5177 100.07 27.7017 99.0957 27.7017H99.0937ZM92.8617 25.0317C92.6937 25.0317 92.5277 24.9617 92.4097 24.8257C91.3277 23.5857 90.7557 21.9437 90.7557 20.0757V19.9817C90.7597 19.6517 91.0277 19.3877 91.3557 19.3877H91.3617C91.6937 19.3917 91.9597 19.6617 91.9557 19.9937V20.0757C91.9557 21.6717 92.4117 23.0037 93.3137 24.0357C93.5317 24.2857 93.5057 24.6637 93.2557 24.8817C93.1417 24.9817 93.0017 25.0297 92.8617 25.0297V25.0317ZM105.226 24.0937C105.116 24.0937 105.006 24.0637 104.906 24.0017C104.626 23.8257 104.542 23.4537 104.718 23.1737C105.496 21.9417 105.998 20.4717 106.17 18.9237C106.206 18.5937 106.506 18.3557 106.832 18.3937C107.162 18.4297 107.398 18.7277 107.362 19.0557C107.17 20.7837 106.606 22.4277 105.732 23.8137C105.618 23.9937 105.424 24.0937 105.224 24.0937H105.226ZM70.9857 20.8257C70.8717 20.8257 70.7577 20.7937 70.6557 20.7277C70.3797 20.5457 70.3017 20.1737 70.4837 19.8977C71.3877 18.5217 72.3937 17.2217 73.4717 16.0317C73.6937 15.7857 74.0737 15.7677 74.3197 15.9897C74.5657 16.2117 74.5837 16.5917 74.3617 16.8377C73.3237 17.9817 72.3577 19.2317 71.4877 20.5557C71.3717 20.7317 71.1817 20.8257 70.9857 20.8257ZM138.356 20.1637C138.164 20.1637 137.974 20.0717 137.858 19.8997C137.36 19.1617 136.806 18.4217 136.21 17.7057C135.8 17.2117 135.36 16.7257 134.908 16.2597C134.676 16.0217 134.682 15.6417 134.918 15.4117C135.156 15.1797 135.536 15.1857 135.766 15.4217C136.242 15.9097 136.702 16.4197 137.132 16.9377C137.754 17.6857 138.334 18.4557 138.854 19.2277C139.04 19.5017 138.966 19.8757 138.692 20.0597C138.59 20.1297 138.472 20.1617 138.358 20.1617L138.356 20.1637ZM92.4957 15.9657C92.4097 15.9657 92.3217 15.9477 92.2377 15.9077C91.9377 15.7657 91.8117 15.4077 91.9537 15.1077C92.5537 13.8477 93.3437 12.7037 94.2377 11.7997C94.4717 11.5637 94.7237 11.3317 94.9877 11.1097C95.2417 10.8977 95.6197 10.9297 95.8337 11.1837C96.0457 11.4377 96.0137 11.8157 95.7597 12.0297C95.5237 12.2277 95.2997 12.4337 95.0937 12.6437C94.2937 13.4537 93.5837 14.4857 93.0397 15.6257C92.9377 15.8417 92.7217 15.9677 92.4977 15.9677L92.4957 15.9657ZM106.276 14.8537C106.026 14.8537 105.792 14.6957 105.708 14.4437C105.384 13.4777 104.916 12.5757 104.318 11.7677C104.016 11.3597 103.69 10.9737 103.346 10.6217C103.116 10.3837 103.12 10.0037 103.358 9.77368C103.596 9.54368 103.976 9.54768 104.206 9.78568C104.586 10.1757 104.948 10.6037 105.28 11.0537C105.954 11.9637 106.48 12.9757 106.844 14.0617C106.95 14.3757 106.78 14.7157 106.466 14.8217C106.402 14.8437 106.338 14.8537 106.276 14.8537ZM77.4157 13.7597C77.2397 13.7597 77.0637 13.6817 76.9457 13.5337C76.7397 13.2737 76.7837 12.8957 77.0417 12.6897C78.3037 11.6877 79.6697 10.7717 81.0997 9.96968C81.3897 9.80768 81.7537 9.90968 81.9157 10.1997C82.0777 10.4897 81.9757 10.8537 81.6857 11.0157C80.3097 11.7877 78.9977 12.6657 77.7857 13.6297C77.6757 13.7177 77.5437 13.7597 77.4137 13.7597H77.4157ZM131.688 13.3297C131.568 13.3297 131.446 13.2937 131.342 13.2197C130.082 12.3257 128.722 11.5257 127.296 10.8397C126.998 10.6957 126.872 10.3377 127.016 10.0397C127.16 9.74168 127.518 9.61568 127.816 9.75968C129.3 10.4757 130.72 11.3097 132.034 12.2437C132.304 12.4357 132.368 12.8097 132.176 13.0797C132.06 13.2437 131.874 13.3317 131.686 13.3317L131.688 13.3297ZM99.5197 9.78968C99.2817 9.78968 99.0577 9.64768 98.9617 9.41368C98.8377 9.10568 98.9877 8.75768 99.2957 8.63368C100.1 8.31168 100.964 8.01568 101.938 7.73168C102.604 7.53768 103.288 7.35968 103.974 7.20568C104.298 7.13368 104.618 7.33568 104.69 7.65968C104.762 7.98368 104.56 8.30368 104.236 8.37568C103.574 8.52368 102.914 8.69568 102.274 8.88168C101.338 9.15568 100.51 9.43768 99.7417 9.74568C99.6677 9.77568 99.5937 9.78968 99.5177 9.78968H99.5197ZM123.086 9.16768C123.028 9.16768 122.97 9.15968 122.912 9.14168C121.422 8.69168 119.874 8.32768 118.316 8.06568C117.99 8.00968 117.768 7.70168 117.824 7.37368C117.88 7.04768 118.19 6.82568 118.516 6.88168C120.126 7.15368 121.722 7.52768 123.26 7.99368C123.576 8.08968 123.756 8.42368 123.66 8.74168C123.582 9.00168 123.344 9.16768 123.086 9.16768ZM85.7377 9.06968C85.4957 9.06968 85.2677 8.92168 85.1757 8.68168C85.0577 8.37168 85.2137 8.02568 85.5237 7.90768C87.1057 7.30768 88.6857 6.84768 90.2217 6.53968C90.5477 6.47568 90.8637 6.68568 90.9277 7.00968C90.9937 7.33368 90.7817 7.65168 90.4577 7.71568C88.9857 8.01168 87.4697 8.45368 85.9477 9.02968C85.8777 9.05568 85.8057 9.06968 85.7357 9.06968H85.7377ZM99.8037 8.18168C99.7317 8.18168 99.6577 8.16768 99.5877 8.14168C98.2477 7.62168 96.7357 7.33368 95.0957 7.28768C94.7637 7.27768 94.5037 7.00168 94.5137 6.66968C94.5237 6.33768 94.8017 6.07768 95.1317 6.08768C96.9097 6.13968 98.5557 6.45368 100.024 7.02168C100.332 7.14168 100.486 7.48968 100.366 7.79768C100.274 8.03568 100.046 8.18168 99.8057 8.18168H99.8037ZM108.848 7.66568C108.54 7.66568 108.278 7.42968 108.25 7.11568C108.222 6.78568 108.468 6.49568 108.798 6.46768C110.396 6.33168 112.044 6.29968 113.67 6.36968C114.002 6.38368 114.258 6.66368 114.244 6.99568C114.23 7.32768 113.946 7.57968 113.618 7.56968C112.042 7.50168 110.446 7.53368 108.898 7.66368C108.882 7.66368 108.864 7.66568 108.846 7.66568H108.848Z" fill="#CCD2D6"/>
  <path d="M173.121 17.9532C174.638 16.6592 173.664 13.0271 170.945 9.84068C168.227 6.65427 164.793 5.12021 163.277 6.41426C161.76 7.7083 162.734 11.3404 165.453 14.5268C168.171 17.7132 171.605 19.2473 173.121 17.9532Z" fill="url(#paint11_linear_118_4365)"/>
  <path d="M172.14 22.8066C175.569 20.3999 177.102 16.6747 175.565 14.486C174.029 12.2974 170.004 12.4741 166.576 14.8807C163.148 17.2873 161.615 21.0125 163.151 23.2012C164.688 25.3899 168.712 25.2132 172.14 22.8066Z" fill="url(#paint12_linear_118_4365)"/>
  <path d="M173.9 17.5979C174.432 15.6766 171.592 13.2122 167.555 12.0936C163.519 10.975 159.815 11.6257 159.282 13.547C158.75 15.4683 161.59 17.9327 165.627 19.0513C169.663 20.17 173.367 19.5193 173.9 17.5979Z" fill="url(#paint13_linear_118_4365)"/>
  <path d="M54.182 111.398L38.978 85.064C38.128 83.59 36.602 82.71 34.9 82.71C34.588 82.71 34.28 82.74 33.982 82.796C32.658 83.052 31.518 83.86 30.822 85.064L15.618 111.398C14.768 112.872 14.768 114.634 15.618 116.108C16.47 117.582 17.994 118.462 19.696 118.462H50.104C51.806 118.462 53.332 117.582 54.182 116.108C55.034 114.634 55.034 112.872 54.182 111.398ZM36.696 96.068L36.268 105.904H33.572L33.148 96.068H36.696ZM36.216 110.168C35.864 110.48 35.424 110.636 34.898 110.636C34.372 110.636 33.928 110.48 33.576 110.168C33.224 109.854 33.048 109.454 33.048 108.966C33.048 108.478 33.224 108.08 33.576 107.766C33.928 107.452 34.368 107.296 34.898 107.296C35.428 107.296 35.864 107.452 36.216 107.766C36.566 108.08 36.744 108.48 36.744 108.966C36.744 109.452 36.566 109.854 36.216 110.168Z" fill="url(#paint14_linear_118_4365)"/>
  <path d="M36.7439 108.966C36.7439 109.454 36.5659 109.854 36.2159 110.168C35.8639 110.48 35.4239 110.636 34.8979 110.636C34.3719 110.636 33.9279 110.48 33.5759 110.168C33.2239 109.854 33.0479 109.454 33.0479 108.966C33.0479 108.478 33.2239 108.08 33.5759 107.766C33.9279 107.452 34.3679 107.296 34.8979 107.296C35.4279 107.296 35.8639 107.452 36.2159 107.766C36.5659 108.08 36.7439 108.48 36.7439 108.966Z" fill="url(#paint15_linear_118_4365)"/>
  <path d="M36.6959 96.0679L36.2679 105.904H33.5719L33.1479 96.0679H36.6959Z" fill="url(#paint16_linear_118_4365)"/>
  <path d="M164.282 109.958V116.432C164.27 118.314 164.018 119.694 163.526 120.576C163.036 121.458 162.274 121.898 161.244 121.898C160.214 121.898 159.396 121.446 158.906 120.54C158.414 119.636 158.168 118.206 158.168 116.252V109.562C158.204 107.812 158.458 106.504 158.932 105.642C159.406 104.778 160.164 104.348 161.208 104.348C162.252 104.348 163.054 104.812 163.544 105.74C164.036 106.67 164.282 108.076 164.282 109.958Z" fill="url(#paint17_linear_118_4365)"/>
  <path d="M180.742 90.0396H141.69C139.726 90.0396 138.132 91.6315 138.132 93.5975V132.648C138.132 134.614 139.726 136.206 141.69 136.206H180.742C182.708 136.206 184.3 134.614 184.3 132.648V93.5975C184.3 91.6315 182.708 90.0396 180.742 90.0396ZM170.342 115.514C170.342 119.052 169.548 121.778 167.96 123.696C167.178 124.642 166.238 125.352 165.142 125.832C164.01 126.328 162.71 126.574 161.242 126.574C158.33 126.574 156.074 125.608 154.482 123.676C152.886 121.748 152.09 119.026 152.09 115.514V110.73C152.09 107.194 152.884 104.468 154.472 102.548C155.952 100.764 157.998 99.8095 160.614 99.6855C160.808 99.6755 161.008 99.6715 161.208 99.6715C164.108 99.6715 166.356 100.636 167.95 102.566C169.544 104.498 170.342 107.224 170.342 110.748V115.514Z" fill="url(#paint18_linear_118_4365)"/>
  <path d="M167.95 102.565C166.356 100.635 164.108 99.6714 161.208 99.6714C161.008 99.6714 160.808 99.6754 160.614 99.6854C157.998 99.8094 155.952 100.763 154.472 102.547C152.884 104.467 152.09 107.193 152.09 110.729V115.513C152.09 119.025 152.886 121.747 154.482 123.675C156.074 125.607 158.33 126.573 161.242 126.573C162.71 126.573 164.01 126.327 165.142 125.831C166.238 125.351 167.178 124.641 167.96 123.695C169.548 121.777 170.342 119.051 170.342 115.513V110.747C170.342 107.223 169.544 104.497 167.95 102.565ZM164.282 116.431C164.27 118.313 164.018 119.693 163.526 120.575C163.036 121.457 162.274 121.897 161.244 121.897C160.214 121.897 159.396 121.445 158.906 120.539C158.414 119.635 158.168 118.205 158.168 116.251V109.561C158.204 107.811 158.458 106.503 158.932 105.641C159.406 104.777 160.164 104.347 161.208 104.347C162.252 104.347 163.054 104.811 163.544 105.739C164.036 106.669 164.282 108.075 164.282 109.957V116.431Z" fill="url(#paint19_linear_118_4365)"/>
  <defs>
    <linearGradient id="paint0_linear_118_4365" x1="82.372" y1="17.0122" x2="82.372" y2="175.14" gradientUnits="userSpaceOnUse">
      <stop stop-color="#CCD2D6" stop-opacity="0.1"/>
      <stop offset="1" stop-color="#CCD2D6" stop-opacity="0.25"/>
    </linearGradient>
    <linearGradient id="paint1_linear_118_4365" x1="178.762" y1="17.0124" x2="178.762" y2="175.14" gradientUnits="userSpaceOnUse">
      <stop stop-color="#CCD2D6" stop-opacity="0.1"/>
      <stop offset="1" stop-color="#CCD2D6" stop-opacity="0.25"/>
    </linearGradient>
    <linearGradient id="paint2_linear_118_4365" x1="100" y1="17.012" x2="100" y2="175.14" gradientUnits="userSpaceOnUse">
      <stop stop-color="#CCD2D6" stop-opacity="0.1"/>
      <stop offset="1" stop-color="#CCD2D6" stop-opacity="0.25"/>
    </linearGradient>
    <linearGradient id="paint3_linear_118_4365" x1="17.396" y1="17.0121" x2="17.396" y2="175.14" gradientUnits="userSpaceOnUse">
      <stop stop-color="#CCD2D6" stop-opacity="0.1"/>
      <stop offset="1" stop-color="#CCD2D6" stop-opacity="0.25"/>
    </linearGradient>
    <linearGradient id="paint4_linear_118_4365" x1="95.872" y1="42.2759" x2="95.872" y2="56.5438" gradientUnits="userSpaceOnUse">
      <stop stop-color="#CCD2D6" stop-opacity="0.5"/>
      <stop offset="1" stop-color="#CCD2D6"/>
    </linearGradient>
    <linearGradient id="paint5_linear_118_4365" x1="95.8359" y1="122.09" x2="95.8359" y2="198.198" gradientUnits="userSpaceOnUse">
      <stop stop-color="#CCD2D6" stop-opacity="0.25"/>
      <stop offset="1" stop-color="#CCD2D6" stop-opacity="0.5"/>
    </linearGradient>
    <linearGradient id="paint6_linear_118_4365" x1="95.8359" y1="113.818" x2="95.8359" y2="200.326" gradientUnits="userSpaceOnUse">
      <stop offset="0.18" stop-color="#CCD2D6" stop-opacity="0"/>
      <stop offset="1" stop-color="#CCD2D6" stop-opacity="0.5"/>
    </linearGradient>
    <linearGradient id="paint7_linear_118_4365" x1="73.2641" y1="63.8759" x2="73.2641" y2="79.9319" gradientUnits="userSpaceOnUse">
      <stop stop-color="#CCD2D6" stop-opacity="0.7"/>
      <stop offset="0.56" stop-color="#CCD2D6" stop-opacity="0.99"/>
      <stop offset="1" stop-color="#CCD2D6"/>
    </linearGradient>
    <linearGradient id="paint8_linear_118_4365" x1="118.408" y1="63.8759" x2="118.408" y2="79.9319" gradientUnits="userSpaceOnUse">
      <stop stop-color="#CCD2D6" stop-opacity="0.7"/>
      <stop offset="0.56" stop-color="#CCD2D6" stop-opacity="0.99"/>
      <stop offset="1" stop-color="#CCD2D6"/>
    </linearGradient>
    <linearGradient id="paint9_linear_118_4365" x1="82.6201" y1="135.57" x2="82.6201" y2="150.734" gradientUnits="userSpaceOnUse">
      <stop stop-color="#CCD2D6" stop-opacity="0.7"/>
      <stop offset="1" stop-color="#CCD2D6"/>
    </linearGradient>
    <linearGradient id="paint10_linear_118_4365" x1="108.68" y1="135.57" x2="108.68" y2="150.734" gradientUnits="userSpaceOnUse">
      <stop stop-color="#CCD2D6" stop-opacity="0.7"/>
      <stop offset="1" stop-color="#CCD2D6"/>
    </linearGradient>
    <linearGradient id="paint11_linear_118_4365" x1="162.563" y1="12.1766" x2="173.837" y2="12.1766" gradientUnits="userSpaceOnUse">
      <stop stop-color="#CCD2D6" stop-opacity="0.25"/>
      <stop offset="1" stop-color="#CCD2D6" stop-opacity="0.7"/>
    </linearGradient>
    <linearGradient id="paint12_linear_118_4365" x1="162.556" y1="18.8473" x2="176.162" y2="18.8473" gradientUnits="userSpaceOnUse">
      <stop stop-color="#CCD2D6" stop-opacity="0.5"/>
      <stop offset="1" stop-color="#CCD2D6"/>
    </linearGradient>
    <linearGradient id="paint13_linear_118_4365" x1="159.22" y1="15.5764" x2="173.964" y2="15.5764" gradientUnits="userSpaceOnUse">
      <stop stop-color="#CCD2D6" stop-opacity="0.25"/>
      <stop offset="1" stop-color="#CCD2D6" stop-opacity="0.7"/>
    </linearGradient>
    <linearGradient id="paint14_linear_118_4365" x1="34.9" y1="82.71" x2="34.9" y2="118.462" gradientUnits="userSpaceOnUse">
      <stop stop-color="#CCD2D6" stop-opacity="0.5"/>
      <stop offset="1" stop-color="#CCD2D6"/>
    </linearGradient>
    <linearGradient id="paint15_linear_118_4365" x1="34.8959" y1="100.438" x2="34.8959" y2="111.986" gradientUnits="userSpaceOnUse">
      <stop stop-color="#CCD2D6" stop-opacity="0.1"/>
      <stop offset="1" stop-color="#CCD2D6" stop-opacity="0.25"/>
    </linearGradient>
    <linearGradient id="paint16_linear_118_4365" x1="34.9219" y1="100.438" x2="34.9219" y2="111.986" gradientUnits="userSpaceOnUse">
      <stop stop-color="#CCD2D6" stop-opacity="0.1"/>
      <stop offset="1" stop-color="#CCD2D6" stop-opacity="0.25"/>
    </linearGradient>
    <linearGradient id="paint17_linear_118_4365" x1="161.224" y1="108.78" x2="161.226" y2="125.034" gradientUnits="userSpaceOnUse">
      <stop stop-color="#CCD2D6" stop-opacity="0.5"/>
      <stop offset="1" stop-color="#CCD2D6"/>
    </linearGradient>
    <linearGradient id="paint18_linear_118_4365" x1="161.216" y1="99.5196" x2="161.216" y2="144.51" gradientUnits="userSpaceOnUse">
      <stop stop-color="#CCD2D6" stop-opacity="0.5"/>
      <stop offset="1" stop-color="#CCD2D6"/>
    </linearGradient>
    <linearGradient id="paint19_linear_118_4365" x1="161.216" y1="105.085" x2="161.216" y2="126.535" gradientUnits="userSpaceOnUse">
      <stop stop-color="#CCD2D6" stop-opacity="0.1"/>
      <stop offset="1" stop-color="#CCD2D6" stop-opacity="0.25"/>
    </linearGradient>
  </defs>
</svg>