<svg xmlns="http://www.w3.org/2000/svg" width="200" height="200" viewBox="0 0 200 200" fill="none">
  <g opacity="0.25">
    <path d="M27.86 92.9741C27.692 92.9941 27.516 93.0181 27.332 93.0401C27.516 93.0141 27.694 92.9921 27.86 92.9741Z" fill="#CCD2D6"/>
    <path d="M47.19 118.386H22.116C16.01 118.386 10.482 116.328 6.478 112.998C2.478 109.672 0 105.076 0 99.9981C0 89.8441 9.904 81.6141 22.118 81.6141H27.854C28.774 81.6141 29.68 81.5661 30.57 81.4761C29.41 84.5901 29.112 87.9321 29.07 90.2601C27.318 89.1881 25.79 88.3861 24.504 87.7901C23.558 87.3501 22.73 88.5721 23.49 89.2841C24.534 90.2601 25.81 91.4961 27.332 93.0401C24.248 93.4661 18.894 94.6481 15.268 97.8781C9.904 102.654 10.658 107.43 11.412 107.096C12.15 106.766 16.008 100.598 16.186 100.316C16.068 100.598 13.708 106.166 14.934 105.922C16.192 105.672 20.324 99.2201 20.324 99.2201C20.324 99.2201 19.71 103.408 20.8 103.242C21.87 103.074 25.282 96.4121 25.406 96.1721C25.368 96.3181 24.762 98.6021 25.252 99.2881C24.29 101.462 23.542 103.96 23.514 106.486C23.438 113.666 27.48 116.324 27.742 115.538C27.99 114.78 26.052 107.86 25.94 107.458C26.106 107.816 28.602 113.21 29.242 112.146C29.89 111.064 27.962 103.842 27.912 103.648C28.032 103.792 30.61 106.896 31.206 106C31.802 105.1 29.172 98.0961 29.076 97.8381C29.18 98.0001 31.294 101.266 31.85 99.5621C31.996 99.1121 31.914 98.4161 31.706 97.6281C32.55 98.5361 33.44 99.5141 34.38 100.556C38.84 105.518 43.448 112.334 47.196 118.384L47.19 118.386ZM154.278 136.768C154.278 138.466 154.554 140.106 155.072 141.664C152.39 140.512 149.286 139.444 145.824 138.474C144.446 136.724 142.962 135.048 141.384 133.452C139.824 131.876 138.17 130.378 136.428 128.968C133.386 126.5 130.08 124.298 126.556 122.398L140.946 115.712L161.49 122.196C161.92 122.332 162.348 122.36 162.754 122.296C157.592 125.66 154.278 130.894 154.278 136.768ZM193.52 160.538C189.518 157.212 183.988 155.154 177.882 155.154H176.398C172.79 155.154 169.384 154.436 166.374 153.164C164.832 163.722 133.284 172.154 94.59 172.154C58.36 172.154 28.398 164.762 23.462 155.154H22.118C9.904 155.154 0 163.382 0 173.538C0 178.614 2.478 183.206 6.48 186.536C10.484 189.864 16.012 191.922 22.118 191.922H177.882C190.096 191.922 200 183.69 200 173.54C200 168.462 197.522 163.866 193.52 160.54V160.538ZM30.51 170.958C26.224 170.958 22.748 169.636 22.748 168.002C22.748 166.368 26.224 165.05 30.51 165.05C34.796 165.05 38.272 166.372 38.272 168.002C38.272 169.632 34.796 170.958 30.51 170.958ZM200 99.9981C200 110.154 190.096 118.384 177.882 118.384H176.398C172.04 118.384 167.974 119.432 164.548 121.242C164.956 120.724 165.182 120.056 165.13 119.322L164.054 104.12C171.792 98.5101 177.186 90.5241 179.684 81.6741C185.072 82.0341 189.918 84.0001 193.52 87.0001C197.522 90.3261 200 94.9221 200 99.9981Z" fill="#CCD2D6"/>
    <path d="M0 26.4641C0 16.3121 9.904 8.08008 22.118 8.08008H177.882C183.988 8.08008 189.518 10.1361 193.52 13.4641C197.522 16.7901 200 21.3861 200 26.4621C200 36.6161 190.096 44.8461 177.882 44.8461H172.556C168.934 40.1441 164.412 36.3641 159.356 33.6361C159.376 33.7301 159.394 33.8241 159.416 33.9201C158.172 27.9101 154.538 22.7761 149.552 19.5601C149.154 19.3021 148.746 19.0601 148.332 18.8281C145.078 17.0061 141.332 15.9681 137.34 15.9681C134.88 15.9681 132.516 16.3621 130.302 17.0901C128.302 17.7461 126.424 18.6761 124.712 19.8361C122.764 21.1541 121.036 22.7681 119.588 24.6141C118.138 26.4621 116.974 28.5381 116.154 30.7841C115.812 31.7201 115.53 32.6861 115.314 33.6761C115.164 34.3561 115.048 35.0461 114.962 35.7441L74.152 54.7081C58.938 61.7781 49.994 76.8461 49.994 92.5841C49.994 98.4721 51.248 104.452 53.892 110.144C55.284 113.14 56.986 115.894 58.944 118.382H57.014C56.164 117.168 55.24 115.888 54.256 114.574C51.71 111.17 48.748 107.508 45.49 104.018C46.282 102.812 44.426 100.58 43.676 99.5941C42.784 98.4161 41.81 97.6321 41.752 97.5861C41.874 97.6341 45.048 98.8921 44.514 97.2041C43.97 95.4861 38.48 94.5241 38.48 94.5241C38.48 94.5241 40.616 94.5641 39.444 93.1401C38.766 92.3141 36.58 91.6941 34.066 91.6041C33.62 91.3601 33.06 91.1721 32.748 91.0761C32.776 91.0581 32.8 91.0401 32.828 91.0221C33.286 91.0381 34.18 91.0661 35.162 91.0661C36.918 91.0661 38.96 90.9801 39.278 90.5881C39.332 90.5201 39.354 90.4501 39.348 90.3741C39.346 90.3601 39.342 90.3461 39.338 90.3341C39.336 90.3221 39.336 90.3121 39.332 90.3001C39.12 89.5861 36.738 88.6241 36.736 88.6241C36.738 88.6241 42.88 88.2921 43.584 87.4981C43.628 87.4501 43.648 87.4001 43.65 87.3521C43.672 86.6341 39.234 86.1241 39.228 86.1241C39.234 86.1221 45.326 85.8661 45.872 85.4661C45.922 85.4281 45.942 85.3721 45.934 85.3021C45.932 85.2841 45.928 85.2661 45.92 85.2461C45.918 85.2421 45.918 85.2361 45.916 85.2301C45.646 84.5161 42.794 82.8321 37.964 84.4841C37.332 84.7001 36.718 84.9761 36.126 85.2961C37.306 84.3161 38.272 83.3821 38.278 82.9541C38.296 81.8761 34.402 82.9841 34.232 83.0321C34.334 82.9441 36.332 81.2301 37.976 79.5781C45.1 76.5281 49.97 70.3521 49.97 63.2321C49.97 58.1561 47.492 53.5601 43.49 50.2321C39.488 46.9061 33.958 44.8461 27.85 44.8461H22.114C16.008 44.8461 10.48 42.7881 6.476 39.4621C2.478 36.1361 0 31.5401 0 26.4641Z" fill="#CCD2D6"/>
    <path d="M30.088 74.3521C36.7243 74.3521 42.104 68.9723 42.104 62.3361C42.104 55.6998 36.7243 50.3201 30.088 50.3201C23.4518 50.3201 18.072 55.6998 18.072 62.3361C18.072 68.9723 23.4518 74.3521 30.088 74.3521Z" fill="#CCD2D6"/>
    <path d="M172.608 148.234C179.244 148.234 184.624 142.854 184.624 136.218C184.624 129.582 179.244 124.202 172.608 124.202C165.972 124.202 160.592 129.582 160.592 136.218C160.592 142.854 165.972 148.234 172.608 148.234Z" fill="#CCD2D6"/>
  </g>
  <path d="M60.5159 123.586C57.9439 125.098 55.4979 126.78 53.1999 128.608C49.5939 122.14 41.7799 108.796 34.3759 100.558C33.4359 99.514 32.5459 98.536 31.7019 97.628C31.5419 97.008 31.3059 96.33 31.0439 95.676C31.0739 95.364 31.0639 95.11 31.0639 95.11C31.0639 95.11 35.0859 100.934 36.0939 101.228C37.0719 101.516 36.1459 99.296 36.0959 99.18C36.2579 99.358 41.7899 105.406 44.4739 104.666C44.9859 104.524 45.3099 104.3 45.4899 104.02C52.0039 110.996 57.3459 118.672 60.5139 123.586H60.5159ZM45.8739 85.466C45.3279 85.868 39.2319 86.124 39.2319 86.124C39.2319 86.124 44.2879 86.704 43.5879 87.5C42.8859 88.292 36.7419 88.626 36.7419 88.626C36.7419 88.626 39.8559 89.884 39.2819 90.59C38.7839 91.2 34.1079 91.07 32.8319 91.026C33.9599 90.222 34.9639 89.338 35.1739 88.63C35.6579 86.974 32.3459 88.302 31.9419 88.47C31.9519 88.458 31.9639 88.448 31.9739 88.438C32.3819 88.15 34.4679 86.676 36.1299 85.296C36.7199 84.976 37.3359 84.7 37.9679 84.484C43.4879 82.596 46.4219 85.064 45.8759 85.466H45.8739Z" fill="#CCD2D6"/>
  <g opacity="0.75">
    <path d="M31.8459 99.5642C31.2919 101.268 29.1779 98.0002 29.0739 97.8382C29.1699 98.0982 31.7999 105.1 31.2039 106.002C30.6079 106.898 28.0299 103.794 27.9099 103.652C27.9599 103.844 29.8899 111.064 29.2399 112.148C28.6019 113.212 26.1059 107.818 25.9379 107.46C26.0519 107.862 27.9879 114.782 27.7399 115.54C27.4799 116.326 23.4399 113.668 23.5139 106.488C23.5419 103.962 24.2899 101.466 25.2519 99.2902C25.3919 99.4922 25.6259 99.5562 25.9959 99.3882C27.0339 98.9182 28.2359 96.5022 28.9999 94.7322C29.2639 95.6722 29.6359 96.5802 30.1059 96.7882C30.7919 97.0902 30.9919 96.2762 31.0479 95.6782C31.6359 97.1642 32.1119 98.7602 31.8479 99.5662L31.8459 99.5642Z" fill="#CCD2D6"/>
  </g>
  <path d="M34.0681 91.6061C33.3581 91.5781 32.6201 91.5961 31.8821 91.6661C32.1721 91.4821 32.4661 91.2841 32.7521 91.0801C33.0641 91.1761 33.6241 91.3641 34.0701 91.6061H34.0681Z" fill="#CCD2D6"/>
  <g opacity="0.75">
    <path d="M28.996 94.7322C28.232 96.5022 27.032 98.9182 25.992 99.3882C25.622 99.5562 25.388 99.4922 25.248 99.2902C24.76 98.6042 25.364 96.3182 25.404 96.1742C25.278 96.4162 21.866 103.076 20.798 103.244C19.708 103.412 20.322 99.2222 20.322 99.2222C20.322 99.2222 16.188 105.674 14.93 105.926C13.704 106.17 16.064 100.602 16.184 100.32C16.006 100.6 12.146 106.77 11.41 107.1C10.656 107.434 9.90001 102.656 15.266 97.8802C19.508 94.1022 26.11 93.1262 28.686 92.8882C28.646 93.0462 28.642 93.2122 28.674 93.3822C28.756 93.7842 28.862 94.2642 28.996 94.7342V94.7322Z" fill="#CCD2D6"/>
  </g>
  <g opacity="0.75">
    <path d="M34.758 78.7821C35.032 78.6201 40.214 75.5321 40.14 76.7781C40.064 78.0381 34.412 82.8781 34.236 83.0321C34.404 82.9861 38.298 81.8781 38.28 82.9561C38.272 83.3841 37.306 84.3181 36.126 85.2981C34.464 86.6761 32.38 88.1521 31.97 88.4401C31.936 88.4641 31.914 88.4801 31.904 88.4861C31.908 88.4841 31.922 88.4781 31.936 88.4721H31.938C32.342 88.3041 35.656 86.9761 35.17 88.6321C34.96 89.3381 33.956 90.2221 32.828 91.0281C32.8 91.0461 32.776 91.0641 32.75 91.0821C32.464 91.2861 32.172 91.4841 31.88 91.6681C31.068 91.7421 30.256 91.8781 29.478 92.0841C29.338 92.1201 29.21 92.1841 29.098 92.2681C29.09 92.1161 29.084 91.9461 29.078 91.7601C28.994 88.9281 29.206 82.6881 32.212 78.2081C36.212 72.2441 41.048 72.3381 40.818 73.1341C40.594 73.9081 35.022 78.5601 34.754 78.7841L34.758 78.7821Z" fill="#CCD2D6"/>
  </g>
  <g opacity="0.75">
    <path d="M44.4739 104.666C41.7899 105.406 36.2579 99.3581 36.0959 99.1801C36.1459 99.2961 37.0699 101.516 36.0939 101.228C35.0879 100.936 31.0639 95.1101 31.0639 95.1101C31.0639 95.1101 31.0739 95.3641 31.0439 95.6761C30.9879 96.2741 30.7879 97.0901 30.1019 96.7861C29.6319 96.5801 29.2599 95.6701 28.9959 94.7301C28.8599 94.2601 28.7539 93.7802 28.6739 93.3782C28.6419 93.2082 28.6459 93.0402 28.6859 92.8842C28.7099 92.7882 28.7479 92.6961 28.7939 92.6141C28.7119 92.4561 28.7179 92.2521 28.8399 92.0821C28.9119 91.9841 28.9899 91.8761 29.0779 91.7561C29.0819 91.9401 29.0899 92.1101 29.0979 92.2641C29.2079 92.1801 29.3359 92.1161 29.4779 92.0801C30.2559 91.8741 31.0679 91.7381 31.8799 91.6641C32.6179 91.5961 33.3579 91.5781 34.0659 91.6041C36.5799 91.6921 38.7659 92.3161 39.4459 93.1401C40.6179 94.5661 38.4799 94.5241 38.4799 94.5241C38.4799 94.5241 43.9699 95.4861 44.5139 97.2041C45.0479 98.8901 41.8739 97.6321 41.7519 97.5861C41.8119 97.6321 42.7839 98.4161 43.6779 99.5941C44.5979 100.808 47.1979 103.91 44.4739 104.662V104.666Z" fill="#CCD2D6"/>
  </g>
  <g opacity="0.75">
    <path d="M37.9661 84.4821C37.3341 84.6981 36.7181 84.9741 36.1281 85.2941C34.4661 86.6721 32.3821 88.1481 31.9721 88.4361C31.9621 88.4461 31.9501 88.4561 31.9401 88.4681C32.3441 88.3001 35.6581 86.9721 35.1721 88.6281C34.9621 89.3341 33.9581 90.2181 32.8301 91.0241C34.1061 91.0681 38.7821 91.1981 39.2801 90.5881C39.8541 89.8821 36.7401 88.6241 36.7401 88.6241C36.7401 88.6241 42.8841 88.2921 43.5861 87.4981C44.2881 86.7021 39.2301 86.1221 39.2301 86.1221C39.2301 86.1221 45.3261 85.8661 45.8721 85.4641C46.4181 85.0621 43.4841 82.5941 37.9641 84.4821H37.9661ZM28.8421 92.0841C28.7181 92.2541 28.7141 92.4581 28.7961 92.6161C28.7501 92.7001 28.7121 92.7901 28.6881 92.8861C28.3141 92.9201 27.8561 92.9701 27.3341 93.0421C25.8121 91.4961 24.5341 90.2601 23.4921 89.2861C22.7321 88.5741 23.5601 87.3501 24.5061 87.7921C25.7921 88.3881 27.3201 89.1901 29.0721 90.2621C29.0621 90.8281 29.0701 91.3321 29.0821 91.7621C28.9941 91.8801 28.9141 91.9881 28.8441 92.0881L28.8421 92.0841Z" fill="#CCD2D6"/>
  </g>
  <g opacity="0.5">
    <path d="M125.624 153.108H42.8801C39.0321 153.108 36.6421 148.956 38.5421 145.616C39.9601 143.122 41.5701 140.736 43.3581 138.474C46.2161 134.848 49.5221 131.536 53.2001 128.61C55.5001 126.78 57.9441 125.1 60.5161 123.586C61.1941 123.188 61.8821 122.802 62.5741 122.428C63.0081 122.194 63.4461 121.964 63.8841 121.744C64.4761 123.204 65.6181 124.418 67.0381 125.114C68.6541 125.908 70.3801 126.194 72.1541 126.376C73.9921 126.564 75.8421 126.678 77.6841 126.834C80.1821 127.044 82.6821 127.252 85.1801 127.46C89.6001 127.83 94.0241 128.178 98.4441 128.554C98.7101 128.576 98.9761 128.602 99.2401 128.634C99.2441 128.634 99.2501 128.634 99.2521 128.636C99.8421 128.728 100.428 128.854 100.99 129.056C101.166 129.138 101.336 129.232 101.498 129.338C101.55 129.384 101.6 129.434 101.648 129.484C101.668 129.516 101.686 129.55 101.708 129.584C101.73 129.66 101.752 129.736 101.768 129.814C101.772 129.882 101.772 129.95 101.77 130.018C101.76 130.062 101.75 130.102 101.736 130.144C101.706 130.204 101.672 130.26 101.636 130.316C101.542 130.416 101.442 130.512 101.338 130.602C101.012 130.828 100.666 131.014 100.31 131.178C98.4501 131.916 96.4001 132.22 94.4201 132.488C94.4081 132.49 94.3941 132.492 94.3841 132.492C93.0221 132.672 91.6541 132.818 90.2861 132.974C88.9641 133.126 87.6501 133.326 86.3321 133.506C83.8861 133.82 81.3721 133.998 79.3861 135.628C78.0481 136.726 77.4781 138.65 77.9241 140.308C78.3581 141.928 79.6601 143.206 81.0621 144.044C82.4901 144.9 84.1661 145.344 85.7821 145.668C87.5081 146.012 89.2541 146.266 91.0001 146.484C94.2881 146.892 97.5981 147.094 100.904 147.29C104.52 147.504 108.138 147.716 111.728 148.182C115.272 148.672 118.872 149.392 122.196 150.75C123.046 151.124 123.866 151.564 124.618 152.116C124.982 152.418 125.32 152.746 125.626 153.106L125.624 153.108Z" fill="#CCD2D6"/>
  </g>
  <g opacity="0.5">
    <path d="M116.156 123.332C116.15 123.212 116.146 123.094 116.154 122.972C116.184 122.84 116.22 122.712 116.26 122.586C116.262 122.584 116.264 122.582 116.264 122.58C116.356 122.4 116.46 122.23 116.576 122.066C116.796 121.808 117.04 121.574 117.3 121.356C117.858 120.96 118.46 120.644 119.086 120.364C119.086 120.364 119.087 120.363 119.09 120.362C119.672 120.124 120.26 119.904 120.846 119.678C122.804 120.498 124.712 121.408 126.556 122.402C130.08 124.302 133.386 126.504 136.428 128.972C135.528 128.89 134.626 128.802 133.726 128.706C132.148 128.536 130.57 128.346 128.998 128.138C127.226 127.9 125.454 127.64 123.7 127.292C122.064 126.964 120.404 126.582 118.848 125.968H118.846C118.32 125.732 117.816 125.456 117.344 125.124C117.092 124.914 116.86 124.684 116.648 124.434C116.518 124.238 116.398 124.036 116.294 123.824C116.238 123.664 116.192 123.5 116.158 123.334L116.156 123.332Z" fill="#CCD2D6"/>
  </g>
  <g opacity="0.5">
    <path d="M146.302 153.108H130.142C129.824 152.104 129.31 151.178 128.618 150.326C127.664 149.152 126.35 148.242 125.01 147.566C123.558 146.836 122.012 146.292 120.456 145.832C114.162 143.964 107.534 143.594 101.018 143.204C97.5099 142.996 94.0019 142.784 90.5139 142.328C89.3679 142.172 88.2239 141.984 87.0859 141.764C85.9799 141.548 84.8839 141.288 83.8379 140.88C83.4299 140.692 83.0419 140.472 82.6739 140.214C82.6739 140.212 82.6719 140.212 82.6719 140.212C82.4639 140.036 82.2719 139.848 82.0939 139.646C82.0279 139.546 81.9659 139.446 81.9099 139.338C81.8919 139.286 81.8779 139.234 81.8659 139.178C81.8639 139.146 81.8639 139.114 81.8659 139.082C81.8759 139.036 81.8879 138.994 81.9019 138.95C81.9279 138.902 81.9539 138.856 81.9819 138.812C82.0419 138.748 82.0999 138.69 82.1639 138.634C82.3459 138.512 82.5379 138.406 82.7359 138.314C83.6159 137.986 84.5559 137.83 85.4859 137.702C86.5459 137.56 87.6059 137.416 88.6639 137.27C92.3039 136.794 96.0139 136.582 99.5879 135.696C100.922 135.364 102.328 134.906 103.458 134.108C104.87 133.104 105.944 131.632 105.864 129.82C105.818 128.774 105.504 127.808 104.862 126.98C104.344 126.308 103.656 125.778 102.878 125.438C101.328 124.76 99.6919 124.548 98.0139 124.426C93.6739 124.108 89.3339 123.714 84.9959 123.352C80.8119 123.002 76.6219 122.702 72.4419 122.31C72.1739 122.286 71.9079 122.258 71.6419 122.224C70.8099 122.102 69.9819 121.924 69.1939 121.622C68.9119 121.488 68.6379 121.336 68.3819 121.158C68.3799 121.158 68.3799 121.156 68.3799 121.156C68.2379 121.034 68.1039 120.902 67.9799 120.76C67.9759 120.754 67.9679 120.748 67.9659 120.742C67.8699 120.596 67.7839 120.446 67.7039 120.292C67.7039 120.29 67.7019 120.286 67.6999 120.282C67.6659 120.186 67.6339 120.088 67.6099 119.988C75.7899 116.438 84.9379 114.456 94.5919 114.456C101.894 114.456 108.908 115.592 115.434 117.68C114.012 118.62 112.808 119.926 112.288 121.578C111.988 122.526 111.996 123.57 112.228 124.534C112.47 125.528 112.994 126.394 113.63 127.184C114.782 128.618 116.49 129.468 118.186 130.078C121.59 131.298 125.264 131.736 128.828 132.214C132.386 132.688 135.956 133.062 139.534 133.332C140.15 133.378 140.768 133.42 141.384 133.46C142.962 135.054 144.446 136.732 145.824 138.482C147.612 140.744 149.22 143.13 150.64 145.624C152.54 148.964 150.146 153.116 146.302 153.116V153.108Z" fill="#CCD2D6"/>
  </g>
  <path d="M146.302 153.708H42.88C40.864 153.708 39.056 152.668 38.044 150.928C37.026 149.178 37.018 147.082 38.02 145.32C39.444 142.814 41.082 140.386 42.888 138.104C45.768 134.448 49.112 131.096 52.826 128.142C55.158 126.288 57.642 124.582 60.212 123.072C60.904 122.666 61.604 122.272 62.29 121.902C62.772 121.642 63.206 121.416 63.616 121.21C64.812 120.596 66.054 120.008 67.308 119.464C67.338 119.448 67.366 119.438 67.39 119.428C75.922 115.73 85.074 113.854 94.592 113.854C101.77 113.854 108.812 114.938 115.526 117.078L115.618 117.106C117.48 117.704 119.318 118.382 121.08 119.124C123.042 119.944 124.98 120.868 126.842 121.872C130.384 123.78 133.736 126.012 136.806 128.504C138.554 129.92 140.238 131.444 141.81 133.032C143.4 134.638 144.91 136.344 146.296 138.104C148.092 140.376 149.73 142.804 151.162 145.32C152.164 147.082 152.156 149.178 151.138 150.928C150.126 152.668 148.318 153.708 146.302 153.708ZM67.692 120.604C66.494 121.126 65.306 121.688 64.158 122.278C63.754 122.48 63.33 122.702 62.858 122.958C62.184 123.32 61.498 123.706 60.818 124.106C58.298 125.588 55.858 127.262 53.572 129.082C49.93 131.978 46.652 135.264 43.828 138.848C42.06 141.084 40.456 143.462 39.062 145.914C38.274 147.3 38.28 148.95 39.08 150.326C39.876 151.692 41.296 152.508 42.878 152.508H146.3C147.882 152.508 149.302 151.692 150.098 150.324C150.898 148.948 150.906 147.298 150.116 145.912C148.714 143.448 147.11 141.072 145.35 138.846C143.992 137.122 142.512 135.45 140.954 133.874C139.414 132.318 137.762 130.824 136.048 129.434C133.036 126.988 129.746 124.8 126.27 122.926C124.444 121.942 122.54 121.034 120.612 120.228C118.906 119.51 117.128 118.852 115.326 118.272L115.246 118.246C108.622 116.126 101.672 115.05 94.588 115.05C85.244 115.05 76.258 116.89 67.882 120.518L67.776 120.602H67.69L67.692 120.604Z" fill="#CCD2D6"/>
  <g opacity="0.25">
    <path d="M130.142 153.108H125.624C125.32 152.748 124.98 152.42 124.616 152.118C123.862 151.568 123.044 151.126 122.194 150.752C118.87 149.394 115.272 148.672 111.726 148.184C108.136 147.718 104.516 147.506 100.902 147.292C97.5961 147.096 94.2861 146.894 90.9981 146.486C89.2501 146.268 87.5061 146.012 85.7801 145.67C84.1621 145.344 82.4881 144.902 81.0601 144.046C79.6581 143.208 78.3581 141.93 77.9221 140.31C77.4761 138.652 78.0481 136.73 79.3841 135.63C81.3701 133.998 83.8841 133.822 86.3301 133.508C87.6481 133.328 88.9621 133.128 90.2841 132.976C91.6521 132.82 93.0181 132.674 94.3821 132.494C94.3941 132.494 94.4081 132.492 94.4181 132.49C96.3981 132.222 98.4481 131.916 100.308 131.18C100.666 131.016 101.01 130.83 101.336 130.604C101.44 130.512 101.54 130.418 101.634 130.318C101.67 130.262 101.704 130.204 101.734 130.146C101.748 130.106 101.76 130.064 101.768 130.02C101.77 129.952 101.77 129.884 101.766 129.816C101.75 129.738 101.73 129.662 101.706 129.586C101.686 129.552 101.668 129.518 101.646 129.486C101.598 129.436 101.548 129.386 101.496 129.34C101.334 129.234 101.164 129.14 100.988 129.058C100.426 128.856 99.8401 128.728 99.2501 128.638C99.2481 128.636 99.2441 128.636 99.2381 128.636C98.9741 128.604 98.7081 128.58 98.4421 128.556C94.0221 128.18 89.5981 127.832 85.1781 127.462C82.6801 127.254 80.1801 127.046 77.6821 126.836C75.8401 126.682 73.9901 126.568 72.1521 126.378C70.3781 126.196 68.6501 125.91 67.0361 125.116C65.6161 124.42 64.4741 123.208 63.8821 121.746C65.0861 121.128 66.3141 120.548 67.5661 120.006H67.5681C67.5801 119.996 67.5941 119.992 67.6061 119.988C67.6321 120.088 67.6621 120.186 67.6961 120.282C67.6981 120.284 67.7001 120.288 67.7001 120.292C67.7801 120.446 67.8661 120.596 67.9621 120.742C67.9641 120.748 67.9721 120.754 67.9761 120.76C68.1021 120.902 68.2361 121.034 68.3761 121.156C68.3761 121.156 68.3761 121.158 68.3781 121.158C68.6361 121.336 68.9081 121.488 69.1901 121.622C69.9781 121.924 70.8061 122.102 71.6381 122.224C71.9041 122.258 72.1701 122.286 72.4381 122.31C76.6181 122.702 80.8081 123.002 84.9921 123.352C89.3301 123.714 93.6681 124.108 98.0101 124.426C99.6881 124.548 101.324 124.76 102.874 125.438C103.652 125.78 104.34 126.31 104.858 126.98C105.5 127.808 105.814 128.772 105.86 129.82C105.94 131.634 104.866 133.106 103.454 134.108C102.324 134.906 100.918 135.364 99.5841 135.696C96.0101 136.584 92.3001 136.794 88.6601 137.27C87.6021 137.416 86.5421 137.562 85.4821 137.702C84.5521 137.83 83.6121 137.986 82.7321 138.314C82.5341 138.408 82.3421 138.512 82.1601 138.634C82.0961 138.688 82.0381 138.748 81.9781 138.812C81.9501 138.858 81.9241 138.904 81.8981 138.95C81.8841 138.994 81.8701 139.036 81.8621 139.082C81.8601 139.114 81.8601 139.146 81.8621 139.178C81.8741 139.232 81.8881 139.284 81.9061 139.338C81.9621 139.444 82.0241 139.546 82.0901 139.646C82.2681 139.848 82.4601 140.038 82.6681 140.212C82.6681 140.212 82.6701 140.212 82.6701 140.214C83.0381 140.474 83.4281 140.692 83.8341 140.88C84.8801 141.29 85.9781 141.548 87.0821 141.764C88.2201 141.984 89.3641 142.172 90.5101 142.328C93.9981 142.784 97.5061 142.996 101.014 143.204C107.53 143.594 114.156 143.964 120.452 145.832C122.008 146.292 123.556 146.836 125.006 147.566C126.346 148.242 127.66 149.152 128.614 150.326C129.306 151.18 129.82 152.106 130.138 153.108H130.142ZM141.384 133.454C140.768 133.416 140.15 133.372 139.534 133.326C135.956 133.058 132.386 132.682 128.828 132.208C125.264 131.73 121.588 131.292 118.186 130.072C116.488 129.462 114.78 128.612 113.63 127.178C112.996 126.388 112.47 125.522 112.228 124.528C111.996 123.566 111.986 122.522 112.288 121.572C112.808 119.92 114.012 118.614 115.434 117.674H115.436C117.282 118.266 119.088 118.932 120.848 119.674C120.262 119.902 119.674 120.12 119.092 120.358C119.092 120.358 119.091 120.359 119.088 120.36C118.462 120.64 117.86 120.956 117.302 121.352C117.042 121.57 116.8 121.804 116.578 122.062C116.462 122.226 116.358 122.396 116.266 122.576C116.266 122.578 116.264 122.58 116.262 122.582C116.222 122.71 116.184 122.836 116.156 122.968C116.15 123.088 116.152 123.206 116.158 123.328C116.192 123.494 116.238 123.658 116.294 123.818C116.398 124.03 116.52 124.232 116.648 124.428C116.86 124.678 117.092 124.908 117.344 125.118C117.814 125.45 118.32 125.726 118.846 125.96H118.848C120.404 126.576 122.064 126.958 123.7 127.286C125.454 127.634 127.226 127.894 128.998 128.132C130.57 128.342 132.146 128.53 133.726 128.7C134.626 128.796 135.528 128.884 136.428 128.966C138.168 130.376 139.822 131.874 141.384 133.45V133.454Z" fill="#CCD2D6"/>
  </g>
  <g opacity="0.5">
    <path d="M66.9839 134.29C70.5561 134.29 73.4519 133.099 73.4519 131.63C73.4519 130.161 70.5561 128.97 66.9839 128.97C63.4117 128.97 60.5159 130.161 60.5159 131.63C60.5159 133.099 63.4117 134.29 66.9839 134.29Z" fill="#CCD2D6"/>
    <path d="M58.9659 141.842C61.0392 141.842 62.7199 140.853 62.7199 139.634C62.7199 138.415 61.0392 137.426 58.9659 137.426C56.8926 137.426 55.2119 138.415 55.2119 139.634C55.2119 140.853 56.8926 141.842 58.9659 141.842Z" fill="#CCD2D6"/>
    <path d="M110.22 139.634C112.369 139.634 114.112 138.943 114.112 138.09C114.112 137.237 112.369 136.546 110.22 136.546C108.07 136.546 106.328 137.237 106.328 138.09C106.328 138.943 108.07 139.634 110.22 139.634Z" fill="#CCD2D6"/>
  </g>
  <g opacity="0.25">
    <path d="M166.436 152.35C166.436 163.286 134.27 172.15 94.592 172.15C54.914 172.15 22.748 163.284 22.748 152.35C22.748 146.944 30.608 142.044 43.356 138.472C41.568 140.734 39.958 143.12 38.54 145.614C36.64 148.954 39.032 153.106 42.878 153.106H146.302C150.148 153.106 152.54 148.956 150.64 145.614C149.222 143.12 147.612 140.734 145.824 138.472C158.574 142.044 166.434 146.944 166.434 152.35H166.436Z" fill="#CCD2D6"/>
  </g>
  <g opacity="0.25">
    <path d="M30.51 170.956C34.7969 170.956 38.272 169.634 38.272 168.002C38.272 166.371 34.7969 165.048 30.51 165.048C26.2232 165.048 22.748 166.371 22.748 168.002C22.748 169.634 26.2232 170.956 30.51 170.956Z" fill="#CCD2D6"/>
  </g>
  <path d="M94.5919 172.752C75.3479 172.752 57.25 170.684 43.632 166.93C29.778 163.112 22.1499 157.934 22.1499 152.35C22.1499 146.766 29.6239 141.698 43.1959 137.896L44.972 137.398L43.8279 138.846C42.0599 141.084 40.458 143.462 39.064 145.912C38.276 147.298 38.2819 148.948 39.082 150.324C39.878 151.69 41.2959 152.508 42.8799 152.508H146.304C147.888 152.508 149.308 151.692 150.102 150.324C150.902 148.948 150.908 147.3 150.12 145.912C148.726 143.462 147.124 141.084 145.356 138.846L144.212 137.398L145.988 137.896C159.562 141.698 167.036 146.832 167.036 152.35C167.036 157.868 159.406 163.112 145.552 166.93C131.932 170.684 113.834 172.752 94.5919 172.752ZM41.7719 139.56C30.034 143.094 23.3479 147.718 23.3479 152.352C23.3479 157.274 30.8559 162.166 43.9499 165.774C57.4679 169.5 75.4539 171.552 94.5919 171.552C113.73 171.552 131.714 169.5 145.234 165.774C158.326 162.166 165.836 157.274 165.836 152.352C165.836 147.716 159.15 143.094 147.41 139.56C148.78 141.412 150.038 143.342 151.162 145.32C152.164 147.082 152.156 149.178 151.138 150.928C150.126 152.668 148.318 153.708 146.302 153.708H42.8799C40.8639 153.708 39.056 152.668 38.044 150.928C37.026 149.178 37.018 147.082 38.02 145.32C39.144 143.342 40.402 141.41 41.7719 139.56ZM30.51 171.556C26.456 171.556 22.1479 170.31 22.1479 168.002C22.1479 165.694 26.456 164.448 30.51 164.448C34.564 164.448 38.872 165.694 38.872 168.002C38.872 170.31 34.564 171.556 30.51 171.556ZM30.51 165.648C26.072 165.648 23.3479 167.02 23.3479 168.002C23.3479 168.984 26.072 170.356 30.51 170.356C34.948 170.356 37.672 168.984 37.672 168.002C37.672 167.02 34.948 165.648 30.51 165.648Z" fill="#CCD2D6"/>
  <path d="M36.924 154.516C36.77 154.516 36.616 154.456 36.498 154.338C35.296 153.128 34.748 151.366 35.066 149.74C35.13 149.414 35.444 149.202 35.77 149.266C36.096 149.33 36.308 149.646 36.244 149.97C36 151.21 36.424 152.558 37.35 153.49C37.584 153.724 37.582 154.106 37.346 154.338C37.23 154.454 37.076 154.512 36.924 154.512V154.516ZM50.508 157.508C46.954 157.508 43.186 157.284 39.772 155.938C39.464 155.816 39.312 155.468 39.434 155.16C39.556 154.852 39.904 154.7 40.212 154.822C44.274 156.424 48.992 156.348 53.154 156.28C53.48 156.28 53.758 156.538 53.764 156.87C53.77 157.202 53.506 157.474 53.174 157.48C52.306 157.494 51.412 157.508 50.506 157.508H50.508ZM100.842 157.502H59.604C59.272 157.502 59.004 157.234 59.004 156.902C59.004 156.57 59.272 156.302 59.604 156.302H100.842C101.174 156.302 101.442 156.57 101.442 156.902C101.442 157.234 101.174 157.502 100.842 157.502ZM109.862 157.98H103.032C102.7 157.98 102.432 157.712 102.432 157.38C102.432 157.048 102.7 156.78 103.032 156.78H109.862C110.194 156.78 110.462 157.048 110.462 157.38C110.462 157.712 110.194 157.98 109.862 157.98ZM144.83 157.342H130.054C129.722 157.342 129.454 157.074 129.454 156.742C129.454 156.41 129.722 156.142 130.054 156.142H144.83C145.162 156.142 145.43 156.41 145.43 156.742C145.43 157.074 145.162 157.342 144.83 157.342ZM148.43 156.02C148.13 156.02 147.872 155.796 147.834 155.49C147.796 155.16 148.03 154.862 148.36 154.824C150.742 154.542 153.46 154.128 155.548 152.776C155.862 152.572 156.304 152.256 156.52 151.858C156.656 151.608 156.722 151.29 156.728 150.886C156.744 149.518 156.014 148.156 154.824 147.33C154.552 147.142 154.484 146.768 154.672 146.496C154.86 146.224 155.234 146.156 155.506 146.344C157.02 147.394 157.948 149.138 157.926 150.9C157.918 151.502 157.804 152.002 157.574 152.428C157.232 153.062 156.66 153.486 156.198 153.784C153.894 155.276 151.016 155.718 148.5 156.016C148.476 156.018 148.452 156.02 148.428 156.02H148.43Z" fill="#CCD2D6"/>
  <g opacity="0.5">
    <path d="M164.054 104.122L165.13 119.324C165.272 121.298 163.378 122.794 161.49 122.198L140.946 115.714L126.556 122.4C117.178 117.35 106.254 114.454 94.5899 114.454C82.9259 114.454 71.9619 117.36 62.5739 122.43C59.0519 118.994 56.0859 114.874 53.8899 110.15C51.2459 104.458 49.9919 98.476 49.9919 92.59C49.9919 76.852 58.9379 61.784 74.1499 54.714L114.962 35.75C114.846 36.66 114.79 37.586 114.79 38.524C114.79 43.438 116.36 47.986 119.032 51.69C119.246 51.99 119.468 52.286 119.7 52.574C119.854 52.768 120.01 52.956 120.17 53.146C120.57 53.614 120.99 54.068 121.424 54.5C122.908 55.978 124.596 57.252 126.44 58.272C128.41 59.36 130.562 60.162 132.84 60.622H132.842C134.296 60.92 135.794 61.07 137.336 61.07C139.534 61.07 141.656 60.76 143.666 60.17C144.36 59.968 145.04 59.73 145.704 59.47C145.97 59.36 146.232 59.25 146.492 59.134C146.754 59.02 147.012 58.9 147.268 58.772C147.522 58.646 147.776 58.518 148.024 58.382C148.524 58.114 149.012 57.826 149.49 57.522C149.726 57.37 149.964 57.212 150.196 57.052C150.774 56.652 151.334 56.222 151.872 55.766C152.086 55.584 152.298 55.398 152.506 55.21C152.818 54.926 153.12 54.632 153.416 54.332C157.066 50.624 159.438 45.656 159.828 40.14C159.866 39.606 159.888 39.066 159.888 38.524C159.888 36.848 159.706 35.216 159.358 33.644C167 37.766 173.424 44.296 177.362 52.772C180.006 58.464 181.26 64.448 181.26 70.336C181.26 83.498 175.002 96.19 164.056 104.128L164.054 104.122Z" fill="#CCD2D6"/>
  </g>
  <path d="M62.472 123.166L62.156 122.858C58.49 119.282 55.526 115.09 53.348 110.4C50.726 104.752 49.396 98.7581 49.396 92.5861C49.396 84.6261 51.632 76.8441 55.862 70.0781C60.204 63.1341 66.442 57.6321 73.902 54.1641L115.7 34.7421L115.562 35.8201C115.45 36.6941 115.394 37.6021 115.394 38.5181C115.394 43.1581 116.822 47.5901 119.524 51.3321C119.738 51.6321 119.956 51.9201 120.174 52.1921C120.326 52.3821 120.476 52.5661 120.634 52.7481C121.026 53.2081 121.438 53.6521 121.854 54.0661C123.308 55.5161 124.952 56.7521 126.738 57.7381C128.672 58.8061 130.748 59.5721 132.908 60.0141L132.97 60.0261C134.382 60.3161 135.852 60.4621 137.342 60.4621C139.454 60.4621 141.526 60.1681 143.502 59.5861C144.15 59.3961 144.818 59.1681 145.49 58.9021C145.754 58.7941 146.006 58.6861 146.252 58.5761C146.514 58.4621 146.764 58.3461 147.004 58.2261C147.262 58.1001 147.51 57.9721 147.742 57.8461C148.22 57.5901 148.7 57.3081 149.17 57.0081C149.42 56.8461 149.646 56.6961 149.856 56.5501C150.41 56.1661 150.96 55.7441 151.488 55.2981C151.696 55.1201 151.904 54.9381 152.11 54.7541C152.398 54.4921 152.688 54.2121 152.992 53.9021C156.65 50.1841 158.866 45.2801 159.232 40.0901C159.27 39.5601 159.29 39.0321 159.29 38.5161C159.29 36.9101 159.116 35.3121 158.774 33.7661L158.49 32.4861L159.644 33.1081C167.718 37.4641 174.034 44.1741 177.908 52.5121C180.53 58.1601 181.86 64.1541 181.86 70.3281C181.86 83.7541 175.444 96.4681 164.678 104.408L165.73 119.278C165.81 120.404 165.33 121.494 164.444 122.192C163.558 122.89 162.388 123.106 161.31 122.766L140.988 116.352L126.538 123.066L126.274 122.924C116.708 117.772 105.752 115.048 94.592 115.048C83.432 115.048 72.434 117.782 62.86 122.952L62.472 123.162V123.166ZM140.906 115.07L161.672 121.624C162.378 121.848 163.118 121.712 163.7 121.252C164.282 120.792 164.586 120.104 164.532 119.364L163.432 103.83L163.702 103.634C174.32 95.9341 180.658 83.4841 180.658 70.3281C180.658 64.3301 179.366 58.5061 176.816 53.0181C173.232 45.3041 167.498 39.0261 160.186 34.7901C160.384 36.0161 160.484 37.2641 160.484 38.5181C160.484 39.0621 160.464 39.6201 160.424 40.1761C160.038 45.6501 157.7 50.8241 153.842 54.7461C153.522 55.0701 153.218 55.3661 152.908 55.6461C152.69 55.8401 152.474 56.0301 152.258 56.2141C151.698 56.6861 151.12 57.1301 150.534 57.5361C150.314 57.6901 150.076 57.8481 149.812 58.0181C149.314 58.3361 148.808 58.6321 148.306 58.9021C148.062 59.0341 147.8 59.1681 147.532 59.3001C147.276 59.4281 147.006 59.5541 146.732 59.6741C146.48 59.7861 146.218 59.8981 145.934 60.0161C145.22 60.2981 144.518 60.5381 143.836 60.7381C141.752 61.3521 139.566 61.6621 137.338 61.6621C135.784 61.6621 134.248 61.5101 132.772 61.2121L132.724 61.2021C130.424 60.7381 128.212 59.9261 126.154 58.7901C124.27 57.7501 122.538 56.4461 121.004 54.9181C120.564 54.4801 120.132 54.0141 119.718 53.5301C119.552 53.3361 119.394 53.1421 119.234 52.9441C119.002 52.6541 118.77 52.3481 118.544 52.0321C115.696 48.0861 114.19 43.4121 114.19 38.5181C114.19 37.9181 114.214 37.3221 114.258 36.7341L74.404 55.2541C59.94 61.9781 50.592 76.6321 50.592 92.5861C50.592 98.5821 51.884 104.406 54.434 109.894C56.488 114.316 59.262 118.284 62.68 121.69C72.336 116.56 83.358 113.852 94.59 113.852C105.822 113.852 116.898 116.574 126.576 121.728L140.904 115.07H140.906Z" fill="#CCD2D6"/>
  <path d="M93.8079 98.5082C97.2266 98.5082 99.9979 95.7368 99.9979 92.3182C99.9979 88.8995 97.2266 86.1282 93.8079 86.1282C90.3893 86.1282 87.6179 88.8995 87.6179 92.3182C87.6179 95.7368 90.3893 98.5082 93.8079 98.5082Z" fill="#CCD2D6"/>
  <path d="M113.596 89.0563C117.015 89.0563 119.786 86.2849 119.786 82.8663C119.786 79.4476 117.015 76.6763 113.596 76.6763C110.177 76.6763 107.406 79.4476 107.406 82.8663C107.406 86.2849 110.177 89.0563 113.596 89.0563Z" fill="#CCD2D6"/>
  <path d="M133.384 79.6022C136.802 79.6022 139.574 76.8308 139.574 73.4122C139.574 69.9935 136.802 67.2222 133.384 67.2222C129.965 67.2222 127.194 69.9935 127.194 73.4122C127.194 76.8308 129.965 79.6022 133.384 79.6022Z" fill="#CCD2D6"/>
  <path d="M66.9461 115.49C66.7761 115.49 66.6081 115.418 66.4901 115.28C59.1661 106.736 57.7781 97.336 57.9041 90.954C58.0401 84.048 59.8801 79.226 59.9581 79.024C60.0781 78.716 60.4241 78.562 60.7341 78.682C61.0421 78.802 61.1961 79.148 61.0781 79.458C61.0601 79.506 59.2281 84.32 59.1041 91.024C58.9901 97.184 60.3381 106.258 67.4041 114.5C67.6201 114.752 67.5901 115.13 67.3381 115.346C67.2241 115.444 67.0861 115.49 66.9481 115.49H66.9461ZM173.36 75.062C173.332 75.062 173.304 75.062 173.276 75.056C172.948 75.01 172.718 74.708 172.764 74.38C175.248 56.534 166.11 47.468 166.018 47.378C165.78 47.148 165.774 46.768 166.004 46.53C166.234 46.292 166.614 46.286 166.852 46.516C166.952 46.612 169.328 48.94 171.402 53.578C173.304 57.832 175.292 64.924 173.952 74.548C173.91 74.848 173.654 75.066 173.358 75.066L173.36 75.062Z" fill="#CCD2D6"/>
  <g opacity="0.25">
    <path d="M149.55 19.562C149.152 19.306 148.746 19.062 148.33 18.83C145.076 17.008 141.33 15.97 137.338 15.97C134.88 15.97 132.514 16.364 130.3 17.092C128.298 17.746 126.42 18.676 124.71 19.836C120.816 22.474 117.792 26.292 116.154 30.784C115.814 31.72 115.532 32.686 115.314 33.676C114.972 35.236 114.79 36.858 114.79 38.518C114.79 47.02 119.494 54.42 126.444 58.264C128.414 59.352 130.568 60.154 132.844 60.614H132.846C134.3 60.912 135.798 61.064 137.338 61.064C139.536 61.064 141.66 60.752 143.668 60.162C152.544 57.57 159.156 49.672 159.826 40.13C159.868 39.596 159.886 39.058 159.886 38.516C159.886 30.56 155.768 23.572 149.55 19.56V19.562ZM146.102 40.814C146.102 44.208 145.34 46.83 143.814 48.67C142.586 50.154 140.952 51.038 138.912 51.328C138.42 51.4 137.902 51.434 137.362 51.434C134.564 51.434 132.402 50.506 130.87 48.652C129.562 47.07 128.816 44.94 128.624 42.254C128.59 41.79 128.572 41.31 128.572 40.812V36.218C128.572 34.188 128.844 32.434 129.392 30.958C129.62 30.34 129.896 29.77 130.222 29.25C130.414 28.934 130.628 28.638 130.86 28.36C132.384 26.518 134.54 25.598 137.328 25.598C140.116 25.598 142.272 26.526 143.804 28.376C144.824 29.612 145.504 31.184 145.84 33.096C145.944 33.666 146.014 34.268 146.056 34.898C146.086 35.33 146.102 35.774 146.102 36.234V40.81V40.814Z" fill="#CCD2D6"/>
  </g>
  <path d="M137.338 61.6661C135.79 61.6661 134.254 61.5141 132.774 61.2141L132.724 61.2041C130.422 60.7381 128.212 59.9281 126.154 58.7921C118.774 54.7101 114.19 46.9421 114.19 38.5201C114.19 36.8661 114.366 35.2161 114.714 33.6161L114.728 33.5501C114.95 32.5421 115.24 31.5441 115.59 30.5821C117.242 26.0521 120.362 22.0601 124.374 19.3421C126.154 18.1361 128.084 17.1881 130.114 16.5241C132.438 15.7601 134.868 15.3721 137.338 15.3721C141.294 15.3721 145.196 16.3881 148.624 18.3081C149.046 18.5441 149.468 18.7981 149.874 19.0601C156.518 23.3481 160.486 30.6221 160.486 38.5201C160.486 39.0921 160.466 39.6501 160.424 40.1801C159.75 49.7761 153.082 58.0421 143.836 60.7421C141.744 61.3561 139.558 61.6681 137.338 61.6681V61.6661ZM132.904 60.0161L132.966 60.0281C134.382 60.3181 135.854 60.4661 137.338 60.4661C139.444 60.4661 141.516 60.1701 143.498 59.5901C152.266 57.0301 158.588 49.1941 159.228 40.0921C159.266 39.5881 159.286 39.0621 159.286 38.5201C159.286 31.0301 155.524 24.1321 149.224 20.0681C148.838 19.8201 148.438 19.5801 148.038 19.3541C144.788 17.5341 141.088 16.5721 137.338 16.5721C134.996 16.5721 132.692 16.9401 130.488 17.6641C128.564 18.2941 126.732 19.1921 125.046 20.3341C121.242 22.9121 118.282 26.6961 116.716 30.9901C116.39 31.8841 116.12 32.8141 115.91 33.7521L115.898 33.8081C115.56 35.3441 115.388 36.9281 115.388 38.5181C115.388 46.5041 119.734 53.8681 126.732 57.7401C128.664 58.8061 130.74 59.5721 132.902 60.0161H132.904Z" fill="#CCD2D6"/>
  <path d="M143.806 28.3801C142.274 26.5261 140.116 25.6001 137.33 25.6001C134.544 25.6001 132.388 26.5201 130.864 28.3621C129.338 30.2041 128.576 32.8241 128.576 36.2201V40.8141C128.576 44.1881 129.34 46.8001 130.872 48.6541C132.402 50.5081 134.568 51.4341 137.366 51.4341C140.164 51.4341 142.29 50.5141 143.816 48.6721C145.342 46.8301 146.104 44.2101 146.104 40.8141V36.2361C146.104 32.8521 145.338 30.2321 143.808 28.3781L143.806 28.3801ZM140.282 41.6961C140.272 43.5041 140.03 44.8301 139.558 45.6761C139.084 46.5221 138.354 46.9461 137.364 46.9461C136.374 46.9461 135.592 46.5121 135.118 45.6421C134.646 44.7741 134.41 43.4001 134.41 41.5221V35.0981C134.444 33.4181 134.69 32.1641 135.144 31.3341C135.598 30.5061 136.326 30.0921 137.328 30.0921C138.33 30.0921 139.1 30.5381 139.574 31.4301C140.046 32.3221 140.282 33.6721 140.282 35.4781V41.6961Z" fill="#CCD2D6"/>
  <g opacity="0.25">
    <path d="M140.282 35.478V41.696C140.272 43.504 140.03 44.83 139.558 45.676C139.084 46.522 138.354 46.946 137.364 46.946C136.374 46.946 135.592 46.512 135.118 45.642C134.646 44.774 134.41 43.4 134.41 41.522V35.098C134.444 33.418 134.69 32.164 135.144 31.334C135.598 30.506 136.326 30.092 137.328 30.092C138.33 30.092 139.1 30.538 139.574 31.43C140.046 32.322 140.282 33.672 140.282 35.478Z" fill="#CCD2D6"/>
  </g>
  <path d="M163.412 122.002C163.598 121.888 163.786 121.778 163.974 121.67C163.8 121.802 163.612 121.914 163.412 122.002Z" fill="#CCD2D6"/>
  <path d="M164.548 121.244C163.93 121.57 163.334 121.922 162.758 122.298C163.472 122.188 164.114 121.804 164.548 121.244Z" fill="#CCD2D6"/>
</svg>