<svg xmlns="http://www.w3.org/2000/svg" width="200" height="200" viewBox="0 0 200 200" fill="none">
  <g clip-path="url(#clip0_360_19328)">
    <g opacity="0.25">
      <path d="M-2.83201e-05 99.998C-2.83201e-05 94.92 2.47597 90.324 6.47797 87C10.48 83.67 16.01 81.614 22.118 81.614H51.786C54.584 81.614 57.264 81.18 59.728 80.392C55.53 90.676 49.74 102.718 46.004 115.162C44.038 115.342 42.136 115.742 40.322 116.34C38.022 117.092 35.868 118.16 33.9 119.494C33.596 119.698 33.3 119.91 33.006 120.126C30.152 119.008 26.964 118.384 23.598 118.384H22.114C9.89997 118.384 -0.00402832 110.154 -0.00402832 100L-2.83201e-05 99.998ZM200 173.534C200 178.612 197.522 183.206 193.52 186.532C189.518 189.86 183.988 191.918 177.884 191.918H22.118C9.90397 191.918 -2.83201e-05 183.686 -2.83201e-05 173.534C-2.83201e-05 168.46 2.47597 163.862 6.47797 160.536C10.48 157.212 16.01 155.15 22.118 155.15H23.602C24.634 155.15 25.65 155.09 26.646 154.976C28.966 158.562 32.146 161.538 35.896 163.614C38.156 164.864 40.63 165.784 43.24 166.312H43.242C44.912 166.652 46.634 166.828 48.402 166.828C49.692 166.828 50.958 166.736 52.2 166.55C60.134 177.046 69.702 179.894 78.034 179.42C78.044 179.42 78.062 179.42 78.082 179.418C78.112 179.418 78.146 179.416 78.192 179.414C80.942 179.29 116.52 177.666 135.174 175.594C154.592 173.436 175.084 168.178 180.748 155.368C180.758 155.348 180.766 155.328 180.772 155.308C191.62 156.486 200 164.2 200 173.538V173.534ZM200 99.998C200 105.076 197.522 109.672 193.52 112.996C189.518 116.326 183.988 118.382 177.884 118.382H136.822C136.394 103.678 148.052 85.438 148.46 68.39C148.468 68.386 148.596 68.318 150.576 67.31C152.808 75.498 161.622 81.612 172.148 81.612H177.884C190.098 81.612 200.002 89.842 200.002 99.996L200 99.998ZM-2.83201e-05 26.464C-2.83201e-05 21.386 2.47597 16.792 6.47797 13.466C10.48 10.138 16.01 8.08203 22.118 8.08203H177.882C190.096 8.08203 200 16.312 200 26.464C200 31.542 197.522 36.136 193.52 39.462C189.518 42.79 183.988 44.848 177.884 44.848H172.148C172.054 44.848 171.958 44.848 171.864 44.85C168.35 38.588 161.312 33.88 155.804 32.942C149.468 31.864 138.816 31.864 130.862 32.942C122.908 34.022 120.168 41.81 120.168 41.81C109.608 40.564 97.77 41.144 87.854 41.236C65.816 41.438 51.46 41.706 44.784 44.468C44.784 44.468 44.466 44.594 43.93 44.848H22.12C9.90197 44.848 -2.83201e-05 36.618 -2.83201e-05 26.464ZM42.244 71.096C40.094 73.114 37.202 74.352 34.018 74.352C27.382 74.352 22.002 68.972 22.002 62.334C22.002 55.696 27.382 50.318 34.018 50.318C34.682 50.318 35.334 50.372 35.97 50.478C34.79 51.722 33.73 53.158 32.976 54.786C29.982 61.254 29.616 66.822 29.652 69.464C29.664 70.37 30.404 71.096 31.312 71.096H42.246H42.244Z" fill="#CCD2D6"/>
    </g>
    <g opacity="0.75">
      <path d="M63.154 71.0978H31.31C30.402 71.0978 29.662 70.3698 29.65 69.4638C29.616 66.8218 29.982 61.2538 32.974 54.7858C36.15 47.9238 44.78 44.4678 44.78 44.4678C44.788 44.4658 44.804 44.4618 44.828 44.4578C44.844 44.4518 44.868 44.4478 44.892 44.4418C46.404 44.1098 61.91 41.1498 64.796 59.0318C65.33 62.3378 64.614 66.4218 63.156 71.0978H63.154Z" fill="#CCD2D6"/>
    </g>
    <path d="M63.596 71.6979H31.31C30.08 71.6979 29.066 70.6999 29.05 69.4719C29.014 66.6979 29.406 61.0679 32.43 54.5339C35.67 47.5359 44.196 44.0559 44.556 43.9099L44.588 43.8979C44.608 43.8919 44.638 43.8819 44.682 43.8739C44.706 43.8679 44.732 43.8619 44.76 43.8539C46.036 43.5739 52.672 42.3679 58.24 46.1539C62.028 48.7299 64.432 53.0299 65.386 58.9339C65.894 62.0879 65.368 66.0099 63.726 71.2739L63.594 71.6959L63.596 71.6979ZM44.962 45.0419C44.31 45.3159 36.444 48.7199 33.52 55.0379C30.596 61.3579 30.216 66.7839 30.252 69.4559C30.26 70.0299 30.734 70.4979 31.312 70.4979H62.712C64.174 65.6919 64.66 61.9679 64.202 59.1279C63.304 53.5619 61.072 49.5319 57.566 47.1479C52.296 43.5639 45.75 44.8659 45.02 45.0279L44.962 45.0419Z" fill="#CCD2D6"/>
    <g opacity="0.5">
      <path d="M148.456 68.3918C148.026 86.3538 135.108 105.64 136.994 120.716C137.696 126.346 140.078 131.568 143.008 136.08L99.894 138.96C99.894 138.96 92.028 138.714 89.13 145.186C86.23 151.658 86.568 157.656 86.568 157.656L106.318 156.188C105.672 158.198 105.04 159.544 105.04 159.544C105.04 159.544 103.018 165.814 96.746 172.084C93.952 174.88 86.728 178.882 78.186 179.412C78.142 179.414 78.106 179.418 78.078 179.418C78.056 179.42 78.04 179.42 78.03 179.42C69.698 179.896 60.132 177.044 52.196 166.55C53.382 166.382 54.54 166.124 55.668 165.794C65.86 162.816 73.448 153.748 74.22 142.794C74.268 142.182 74.288 141.564 74.288 140.94C74.288 131.808 69.562 123.782 62.42 119.176C61.964 118.88 61.498 118.6 61.02 118.334C57.286 116.242 52.982 115.052 48.4 115.052C47.592 115.052 46.792 115.088 46.002 115.162C50.934 98.7338 59.444 83.0018 63.152 71.0958C64.61 66.4198 65.326 62.3358 64.792 59.0298C61.906 41.1458 46.402 44.1058 44.888 44.4398C44.866 44.4418 44.846 44.4478 44.824 44.4558C44.8 44.4618 44.784 44.4638 44.776 44.4658C51.454 41.7038 65.81 41.4338 87.846 41.2338C97.764 41.1418 109.602 40.5598 120.162 41.8058C133.078 43.3298 144.078 47.5878 147.304 58.8258C148.202 61.9498 148.53 65.1478 148.452 68.3898L148.456 68.3918Z" fill="#CCD2D6"/>
    </g>
    <path d="M76.334 180.068C69.27 180.068 59.794 177.588 51.722 166.912L51.108 166.1L52.116 165.956C53.242 165.796 54.382 165.548 55.504 165.218C65.604 162.266 72.888 153.238 73.626 142.752C73.67 142.176 73.694 141.568 73.694 140.94C73.694 132.31 69.36 124.362 62.1 119.68C61.654 119.392 61.194 119.114 60.734 118.858C56.99 116.76 52.726 115.652 48.406 115.652C47.622 115.652 46.834 115.688 46.064 115.76L45.178 115.842L45.434 114.99C48.162 105.9 52.046 96.8779 55.472 88.9159C58.28 82.3919 60.93 76.2319 62.584 70.9199C64.146 65.9079 64.676 62.0519 64.204 59.1279C63.306 53.5619 61.074 49.5319 57.568 47.1479C52.298 43.5639 45.752 44.8659 45.022 45.0279L44.928 45.0499C44.946 45.0459 44.962 45.0399 44.974 45.0359H44.966C44.968 45.0359 44.97 45.0359 44.972 45.0359L44.552 43.9139C51.336 41.1079 65.422 40.8399 87.846 40.6359C89.834 40.6179 91.868 40.5799 94.02 40.5399C102.334 40.3859 111.758 40.2119 120.238 41.2119C127.554 42.0739 133.254 43.6899 137.666 46.1519C142.904 49.0739 146.344 53.2839 147.888 58.6619C148.76 61.6939 149.142 64.8819 149.06 68.4059C148.854 77.0099 145.832 85.8599 142.91 94.4199C139.674 103.896 136.62 112.846 137.594 120.64C138.208 125.562 140.2 130.646 143.516 135.752L144.072 136.61L99.908 139.56H99.878C99.808 139.56 92.376 139.412 89.68 145.43C87.404 150.508 87.168 155.342 87.16 157.01L107.164 155.522L106.89 156.37C106.288 158.242 105.704 159.534 105.6 159.762C105.408 160.338 103.294 166.384 97.172 172.504C94.462 175.216 87.182 179.452 78.226 180.006H78.204C78.172 180.01 78.144 180.012 78.118 180.012C78.092 180.014 78.07 180.014 78.052 180.016C77.498 180.048 76.924 180.064 76.334 180.064V180.068ZM53.292 166.98C61.592 177.432 71.27 179.204 78 178.822L78.082 178.818C78.096 178.818 78.112 178.818 78.13 178.816H78.154C86.776 178.282 93.744 174.246 96.326 171.662C102.41 165.58 104.452 159.424 104.472 159.362L104.5 159.292C104.506 159.28 104.95 158.328 105.464 156.856L86.006 158.302L85.972 157.692C85.958 157.442 85.66 151.472 88.584 144.942C91.55 138.322 99.248 138.348 99.884 138.36L141.962 135.548C138.872 130.576 137.002 125.616 136.4 120.79C135.39 112.72 138.49 103.642 141.77 94.0319C144.662 85.5579 147.654 76.7939 147.856 68.3759C147.936 64.9759 147.568 61.9059 146.73 58.9919C144.004 49.4959 135.54 44.2239 120.094 42.4019C111.696 41.4099 102.316 41.5839 94.04 41.7379C91.884 41.7779 89.848 41.8159 87.856 41.8339C70.61 41.9919 58.312 42.2139 50.632 43.5339C52.992 43.7519 55.726 44.4439 58.242 46.1539C62.03 48.7299 64.434 53.0299 65.388 58.9339C65.896 62.0879 65.37 66.0099 63.728 71.2739C62.056 76.6459 59.392 82.8359 56.572 89.3879C53.264 97.0739 49.528 105.754 46.836 114.496C47.356 114.466 47.88 114.45 48.404 114.45C52.93 114.45 57.396 115.612 61.318 117.808C61.8 118.078 62.282 118.368 62.75 118.67C70.352 123.574 74.892 131.9 74.892 140.938C74.892 141.596 74.868 142.236 74.822 142.838C74.05 153.818 66.422 163.276 55.84 166.368C54.996 166.616 54.142 166.818 53.29 166.976L53.292 166.98Z" fill="#CCD2D6"/>
    <g opacity="0.25">
      <path d="M180.746 155.364C175.082 168.172 154.59 173.432 135.174 175.59C116.518 177.662 80.94 179.286 78.19 179.41C86.732 178.882 93.956 174.88 96.75 172.082C103.02 165.814 105.044 159.542 105.044 159.542C105.044 159.542 105.676 158.196 106.322 156.186C107.236 153.358 108.184 149.224 107.446 145.702C106.19 139.68 99.898 138.958 99.898 138.958L143.012 136.078L178.326 133.72C178.928 133.68 179.508 133.968 179.832 134.478C181.404 136.954 185.402 144.84 180.748 155.364H180.746Z" fill="#CCD2D6"/>
    </g>
    <path d="M78.216 180.01L78.152 178.812C86.774 178.278 93.744 174.242 96.324 171.66C102.422 165.564 104.45 159.422 104.47 159.36L104.498 159.29C104.504 159.276 105.122 157.95 105.748 156.004C106.644 153.228 107.564 149.21 106.856 145.826C105.706 140.312 100.064 139.584 99.826 139.556L99.856 138.362L142.97 135.482L178.284 133.124C179.11 133.068 179.896 133.466 180.336 134.158C181.14 135.422 182.58 138.098 183.214 141.804C183.988 146.334 183.342 150.978 181.294 155.608C176.522 166.398 161.028 173.322 135.238 176.186C116.79 178.236 82.108 179.834 78.214 180.01H78.216ZM105.6 159.766C105.408 160.344 103.294 166.39 97.172 172.508C95.372 174.31 91.552 176.784 86.564 178.406C98.918 177.778 121.468 176.51 135.106 174.994C146.316 173.748 155.666 171.702 162.9 168.912C171.858 165.456 177.678 160.816 180.196 155.122C184.778 144.758 180.686 136.948 179.324 134.8C179.12 134.478 178.752 134.294 178.364 134.32L103.066 139.35C105.022 140.302 107.31 142.128 108.03 145.582C108.792 149.224 107.83 153.462 106.888 156.374C106.286 158.244 105.702 159.538 105.598 159.766H105.6Z" fill="#CCD2D6"/>
    <g opacity="0.75">
      <path d="M106.32 156.188L86.57 157.656C86.57 157.656 86.232 151.658 89.132 145.186C92.032 138.714 99.896 138.96 99.896 138.96C99.896 138.96 106.188 139.68 107.444 145.704C108.18 149.226 107.232 153.362 106.32 156.188Z" fill="#CCD2D6"/>
    </g>
    <path d="M86.004 158.3L85.97 157.69C85.956 157.44 85.658 151.47 88.582 144.94C91.61 138.18 99.578 138.352 99.914 138.36L99.964 138.364C100.032 138.372 106.702 139.208 108.032 145.58C108.794 149.222 107.832 153.46 106.89 156.372L106.766 156.756L86.004 158.3ZM99.806 139.558C99.044 139.558 92.232 139.724 89.676 145.43C87.4 150.508 87.164 155.342 87.156 157.01L105.868 155.62C106.722 152.868 107.53 149.058 106.854 145.826C105.732 140.446 100.334 139.622 99.85 139.56C99.838 139.56 99.824 139.56 99.804 139.56L99.806 139.558Z" fill="#CCD2D6"/>
    <path d="M97.132 109.18H70.254C69.922 109.18 69.654 108.912 69.654 108.58C69.654 108.248 69.922 107.98 70.254 107.98H97.132C97.464 107.98 97.732 108.248 97.732 108.58C97.732 108.912 97.464 109.18 97.132 109.18ZM124.658 109.18H106.052C105.72 109.18 105.452 108.912 105.452 108.58C105.452 108.248 105.72 107.98 106.052 107.98H124.658C124.99 107.98 125.258 108.248 125.258 108.58C125.258 108.912 124.99 109.18 124.658 109.18ZM116.568 118.282H78.188C77.856 118.282 77.588 118.014 77.588 117.682C77.588 117.35 77.856 117.082 78.188 117.082H116.568C116.9 117.082 117.168 117.35 117.168 117.682C117.168 118.014 116.9 118.282 116.568 118.282ZM97.132 136.484H82.186C81.854 136.484 81.586 136.216 81.586 135.884C81.586 135.552 81.854 135.284 82.186 135.284H97.132C97.464 135.284 97.732 135.552 97.732 135.884C97.732 136.216 97.464 136.484 97.132 136.484ZM97.378 166.82H76.12C75.788 166.82 75.52 166.552 75.52 166.22C75.52 165.888 75.788 165.62 76.12 165.62H97.378C97.71 165.62 97.978 165.888 97.978 166.22C97.978 166.552 97.71 166.82 97.378 166.82Z" fill="#CCD2D6"/>
    <path d="M93.576 68.5299C86.726 68.5299 86.578 62.4659 86.576 62.4039C86.572 62.0719 86.838 61.7999 87.17 61.7979C87.502 61.8019 87.772 62.058 87.776 62.39C87.78 62.594 87.93 67.3319 93.576 67.3319C95.294 67.3319 96.626 66.8439 97.534 65.8819C99.056 64.2699 98.936 61.8119 98.934 61.7859C98.916 61.4559 99.168 61.172 99.498 61.152C99.83 61.128 100.112 61.3839 100.132 61.7139C100.14 61.8339 100.292 64.7 98.416 66.696C97.272 67.912 95.644 68.5299 93.578 68.5299H93.576ZM117.854 68.5299C111.004 68.5299 110.856 62.4659 110.854 62.4039C110.85 62.0719 111.116 61.7999 111.448 61.7979C111.774 61.8019 112.05 62.058 112.054 62.39C112.058 62.596 112.208 67.3319 117.854 67.3319C119.572 67.3319 120.904 66.8439 121.812 65.8819C123.334 64.2699 123.214 61.8119 123.212 61.7859C123.194 61.4559 123.446 61.172 123.776 61.152C124.106 61.128 124.39 61.3839 124.41 61.7139C124.418 61.8339 124.57 64.7 122.694 66.696C121.55 67.912 119.922 68.5299 117.856 68.5299H117.854Z" fill="#CCD2D6"/>
    <g opacity="0.75">
      <path d="M104.794 80.176C106.159 80.176 107.266 78.6672 107.266 76.806C107.266 74.9448 106.159 73.436 104.794 73.436C103.429 73.436 102.322 74.9448 102.322 76.806C102.322 78.6672 103.429 80.176 104.794 80.176Z" fill="#CCD2D6"/>
    </g>
    <g opacity="0.75">
      <path d="M175.37 61.8798C174.95 61.7958 174.514 61.7498 174.068 61.7498C172.14 61.7498 170.406 62.5758 169.2 63.8938C167.288 61.3198 164.64 58.4358 162.274 58.2878C157.96 58.0178 153.714 65.7118 151.084 67.0518C148.618 68.3059 148.464 68.3858 148.456 68.3899C148.532 65.1479 148.206 61.9498 147.308 58.8258C144.082 47.5878 133.082 43.3298 120.166 41.8058C120.166 41.8058 122.906 34.0198 130.86 32.9398C138.816 31.8618 149.466 31.8618 155.804 32.9398C162.14 34.0198 170.5 40.0879 173.196 47.7699C174.814 52.3878 175.268 58.0718 175.372 61.8779L175.37 61.8798Z" fill="#CCD2D6"/>
    </g>
    <path d="M147.83 69.5219L147.858 68.3759C147.938 64.9759 147.57 61.9059 146.732 58.9919C144.006 49.4959 135.542 44.2239 120.096 42.4019L119.352 42.3139L119.6 41.6059C119.716 41.2739 122.558 33.4599 130.778 32.3439C138.744 31.2659 149.546 31.2659 155.902 32.3479C162.304 33.4399 170.952 39.5699 173.76 47.5719C175.392 52.2299 175.862 57.9139 175.97 61.8619L175.99 62.6159L175.252 62.4679C174.864 62.3899 174.466 62.3499 174.068 62.3499C172.39 62.3499 170.776 63.0599 169.642 64.2999L169.15 64.8359L168.716 64.2519C166.226 60.8979 163.924 58.9939 162.234 58.8879C162.174 58.8839 162.112 58.8819 162.052 58.8819C159.636 58.8819 157.032 61.8219 154.932 64.1979C153.576 65.7299 152.404 67.0539 151.354 67.5879C149.706 68.4259 148.896 68.8379 148.762 68.9079L147.828 69.5219H147.83ZM121.03 41.3099C127.966 42.1939 133.412 43.7799 137.662 46.1519C142.9 49.0739 146.34 53.2839 147.884 58.6619C148.672 61.4059 149.062 64.2739 149.066 67.4039C149.456 67.2059 150.012 66.9219 150.81 66.5159C151.656 66.0859 152.81 64.7819 154.032 63.3999C156.48 60.6339 159.254 57.4959 162.308 57.6879C164.31 57.8139 166.648 59.5939 169.262 62.9839C170.576 61.8099 172.29 61.1479 174.064 61.1479C174.29 61.1479 174.518 61.1579 174.744 61.1799C174.604 57.3679 174.11 52.2079 172.624 47.9679C169.96 40.3779 161.764 34.5639 155.698 33.5299C149.444 32.4679 138.8 32.4679 130.936 33.5339C124.83 34.3639 121.91 39.4299 121.028 41.3079L121.03 41.3099Z" fill="#CCD2D6"/>
    <g opacity="0.5">
      <path d="M180.674 68.356C180.674 72.006 177.716 74.962 174.068 74.962C170.42 74.962 167.462 72.004 167.462 68.356C167.462 66.634 168.12 65.068 169.2 63.894C170.406 62.576 172.142 61.75 174.068 61.75C174.514 61.75 174.95 61.794 175.37 61.88C178.396 62.484 180.674 65.154 180.674 68.356Z" fill="#CCD2D6"/>
    </g>
    <path d="M174.068 75.5639C170.094 75.5639 166.862 72.3319 166.862 68.3579C166.862 66.5479 167.536 64.8199 168.758 63.4899C170.118 62.0039 172.054 61.1519 174.068 61.1519C174.544 61.1519 175.022 61.1999 175.488 61.2939C178.84 61.9639 181.274 64.9359 181.274 68.3599C181.274 72.3339 178.042 75.5659 174.068 75.5659V75.5639ZM174.068 62.3519C172.39 62.3519 170.776 63.0619 169.642 64.3019C168.622 65.4099 168.062 66.8519 168.062 68.3579C168.062 71.6699 170.756 74.3639 174.068 74.3639C177.38 74.3639 180.074 71.6699 180.074 68.3579C180.074 65.5039 178.046 63.0279 175.252 62.4699C174.864 62.3919 174.466 62.3519 174.068 62.3519Z" fill="#CCD2D6"/>
    <g opacity="0.5">
      <path d="M62.424 119.176C61.968 118.88 61.502 118.6 61.024 118.334C57.29 116.242 52.986 115.052 48.404 115.052C47.596 115.052 46.796 115.088 46.006 115.162C44.038 115.342 42.138 115.742 40.324 116.34C38.024 117.092 35.87 118.16 33.902 119.492C29.432 122.518 25.96 126.904 24.08 132.06C23.686 133.134 23.364 134.246 23.116 135.382C22.72 137.172 22.514 139.034 22.514 140.94C22.514 150.702 27.916 159.198 35.896 163.612C38.156 164.86 40.63 165.782 43.242 166.31H43.244C44.912 166.65 46.634 166.824 48.404 166.824C49.692 166.824 50.96 166.732 52.2 166.546C53.386 166.378 54.544 166.12 55.672 165.79C65.864 162.812 73.452 153.744 74.224 142.79C74.272 142.178 74.292 141.56 74.292 140.936C74.292 131.804 69.566 123.778 62.424 119.172V119.176ZM58.466 143.578C58.466 147.476 57.592 150.486 55.838 152.598C54.428 154.304 52.554 155.318 50.212 155.65C49.644 155.734 49.05 155.774 48.432 155.774C47.502 155.774 46.636 155.684 45.832 155.508C43.846 155.07 42.23 154.092 40.98 152.58C39.478 150.764 38.62 148.318 38.4 145.234C38.36 144.704 38.342 144.152 38.342 143.578V138.306C38.342 135.974 38.656 133.96 39.284 132.264C39.546 131.554 39.864 130.898 40.238 130.302C40.46 129.94 40.702 129.6 40.97 129.28C41.598 128.522 42.322 127.9 43.138 127.414C44.592 126.546 46.344 126.11 48.394 126.11C51.594 126.11 54.074 127.174 55.83 129.3C57.002 130.72 57.782 132.524 58.17 134.72C58.288 135.374 58.37 136.066 58.416 136.79C58.452 137.284 58.468 137.796 58.468 138.324V143.578H58.466Z" fill="#CCD2D6"/>
    </g>
    <path d="M48.402 167.428C46.632 167.428 44.874 167.254 43.178 166.912L43.122 166.902C40.484 166.368 37.956 165.44 35.606 164.142C27.16 159.468 21.914 150.58 21.914 140.944C21.914 139.04 22.116 137.148 22.516 135.318L22.53 135.256C22.786 134.09 23.118 132.948 23.516 131.858C25.408 126.674 28.976 122.106 33.566 119C35.602 117.618 37.814 116.532 40.138 115.774C42.018 115.156 43.974 114.75 45.952 114.57C46.754 114.494 47.578 114.456 48.404 114.456C52.93 114.456 57.396 115.618 61.32 117.816C61.788 118.076 62.256 118.36 62.752 118.68C70.356 123.584 74.896 131.908 74.896 140.948C74.896 141.596 74.872 142.234 74.824 142.846C74.05 153.826 66.422 163.284 55.842 166.376C54.664 166.722 53.466 166.982 52.286 167.148C51.032 167.336 49.724 167.432 48.404 167.432L48.402 167.428ZM43.3 165.712L43.362 165.724C44.998 166.058 46.692 166.226 48.402 166.226C49.662 166.226 50.91 166.134 52.11 165.954C53.238 165.796 54.378 165.548 55.502 165.218C65.604 162.266 72.886 153.236 73.624 142.75C73.67 142.164 73.692 141.556 73.692 140.94C73.692 132.31 69.358 124.362 62.098 119.68C61.624 119.374 61.178 119.104 60.732 118.856C56.986 116.758 52.722 115.648 48.4 115.648C47.614 115.648 46.826 115.684 46.06 115.758C44.17 115.93 42.304 116.316 40.51 116.908C38.292 117.632 36.182 118.67 34.238 119.988C29.856 122.956 26.448 127.316 24.642 132.266C24.268 133.286 23.958 134.354 23.716 135.446L23.702 135.512C23.312 137.276 23.114 139.102 23.114 140.94C23.114 150.14 28.124 158.626 36.186 163.088C38.41 164.318 40.804 165.2 43.3 165.71V165.712Z" fill="#CCD2D6"/>
    <path d="M55.828 129.302C54.068 127.174 51.59 126.11 48.392 126.11C45.194 126.11 42.718 127.168 40.968 129.282C39.216 131.396 38.342 134.404 38.342 138.304V143.58C38.342 147.454 39.22 150.454 40.978 152.582C42.736 154.71 45.22 155.774 48.434 155.774C51.648 155.774 54.088 154.716 55.84 152.602C57.592 150.488 58.466 147.48 58.466 143.58V138.324C58.466 134.438 57.586 131.43 55.83 129.302H55.828ZM51.782 144.59C51.77 146.666 51.492 148.19 50.95 149.16C50.406 150.132 49.568 150.618 48.432 150.618C47.296 150.618 46.396 150.12 45.854 149.122C45.312 148.124 45.042 146.548 45.042 144.392V137.016C45.08 135.086 45.362 133.646 45.884 132.694C46.406 131.742 47.24 131.268 48.392 131.268C49.544 131.268 50.428 131.78 50.97 132.804C51.512 133.828 51.782 135.378 51.782 137.452V144.59Z" fill="#CCD2D6"/>
    <g opacity="0.5">
      <path d="M51.782 137.45V144.588C51.77 146.664 51.492 148.188 50.95 149.158C50.406 150.13 49.568 150.616 48.432 150.616C47.296 150.616 46.396 150.118 45.854 149.12C45.312 148.122 45.042 146.546 45.042 144.39V137.014C45.08 135.084 45.362 133.644 45.884 132.692C46.406 131.74 47.24 131.266 48.392 131.266C49.544 131.266 50.428 131.778 50.97 132.802C51.512 133.826 51.782 135.376 51.782 137.45Z" fill="#CCD2D6"/>
    </g>
    <g opacity="0.75">
      <path d="M110.532 30.1799H119.57V33.6859H104.846V31.2839L113.858 18.2999H104.794V14.7819H119.48V17.1199L110.534 30.1819L110.532 30.1799ZM127.754 24.5479H133.958V26.9539H123.85V25.3059L130.036 16.3939H123.814V13.9779H133.894V15.5819L127.752 24.5479H127.754ZM142.144 19.7679H146.328V21.3899H139.512V20.2779L143.684 14.2679H139.488V12.6399H146.286V13.7219L142.144 19.7679Z" fill="#CCD2D6"/>
    </g>
  </g>
  <defs>
    <clipPath id="clip0_360_19328">
      <rect width="200" height="200" fill="white"/>
    </clipPath>
  </defs>
</svg>