<svg xmlns="http://www.w3.org/2000/svg" width="200" height="200" viewBox="0 0 200 200" fill="none">
  <path d="M17.442 47.6799H34.33C38.226 47.6799 41.824 48.9579 44.73 51.1179C47.328 49.6578 50.25 48.7059 53.362 48.3999C55.094 38.7679 63.518 31.4579 73.652 31.4579H165.204C170.896 31.4579 176.05 33.7659 179.78 37.4959C182.472 40.1879 184.422 43.6219 185.3 47.4639C193.63 46.1479 200 38.9359 200 30.2379C200 25.4219 198.048 21.0619 194.892 17.9059C191.734 14.7479 187.376 12.7979 182.56 12.7979H17.442C7.81 12.7959 0 20.6059 0 30.2379C0 35.0539 1.952 39.4139 5.108 42.5699C8.266 45.7279 12.624 47.6779 17.44 47.6779L17.442 47.6799ZM44.26 37.6219C45.334 37.6219 46.204 38.4919 46.204 39.5659C46.204 40.6399 45.334 41.5119 44.26 41.5119C43.186 41.5119 42.314 40.6399 42.314 39.5659C42.314 38.4919 43.184 37.6219 44.26 37.6219Z" fill="url(#paint0_linear_200_9202)"/>
  <path d="M182.558 152.324H179.644C175.748 152.324 172.15 151.046 169.248 148.886L179.376 160.198C180.576 161.538 180.462 163.596 179.122 164.796L176.442 167.196C175.102 168.396 173.044 168.282 171.844 166.942L156.592 149.908L154.29 151.968L150.612 147.862C148.626 148.54 146.562 148.904 144.492 148.962C143.644 157.498 137.142 164.366 128.786 165.77C127.756 165.942 126.696 166.034 125.618 166.034H37.724C28.246 166.034 20.076 160.432 16.344 152.358C7.224 152.924 0 160.498 0 169.762C0 174.578 1.952 178.938 5.108 182.094C8.266 185.252 12.624 187.202 17.44 187.202H182.556C192.188 187.202 199.998 179.392 199.998 169.76C199.998 164.944 198.046 160.584 194.89 157.43C191.732 154.272 187.374 152.322 182.558 152.322V152.324ZM147.6 168.542C145.936 168.542 144.586 167.192 144.586 165.53C144.586 163.868 145.936 162.516 147.6 162.516C149.264 162.516 150.612 163.866 150.612 165.53C150.612 167.194 149.264 168.542 147.6 168.542Z" fill="url(#paint1_linear_200_9202)"/>
  <path d="M14.182 117.134V105.894H53.034V92.3818C46.282 91.6158 40.452 87.8098 36.946 82.3638C36.092 82.4918 35.218 82.5598 34.33 82.5598H17.442C7.81 82.5598 0 90.3678 0 100.002C0 104.818 1.952 109.178 5.108 112.332C7.534 114.758 10.672 116.472 14.182 117.136V117.134ZM25.616 88.3358C27.25 88.3358 28.574 89.6618 28.574 91.2958C28.574 92.9298 27.25 94.2538 25.616 94.2538C23.982 94.2538 22.656 92.9298 22.656 91.2958C22.656 89.6618 23.982 88.3358 25.616 88.3358Z" fill="url(#paint2_linear_200_9202)"/>
  <path d="M164.238 143.062L164.124 143.164L164.576 143.67C164.46 143.47 164.346 143.268 164.238 143.062Z" fill="url(#paint3_linear_200_9202)"/>
  <path d="M185.818 82.8657V105.894H144.588V107.344C150.066 107.524 155.464 109.858 159.408 114.264C162.46 117.674 164.18 121.812 164.608 126.042C167.64 120.896 173.24 117.44 179.644 117.44H182.558C192.19 117.44 200 109.632 200 100.002C200 95.1857 198.048 90.8237 194.892 87.6697C192.466 85.2437 189.328 83.5297 185.818 82.8657ZM171.522 116.958C170.168 116.958 169.07 115.86 169.07 114.506C169.07 113.152 170.168 112.054 171.522 112.054C172.876 112.054 173.974 113.152 173.974 114.506C173.974 115.86 172.876 116.958 171.522 116.958Z" fill="url(#paint4_linear_200_9202)"/>
  <path d="M165.202 31.458C153.818 31.458 144.588 40.69 144.588 52.072V107.344C139.416 107.17 134.172 108.916 130.012 112.64C121.444 120.312 120.716 133.472 128.386 142.038C132.64 146.788 138.582 149.13 144.492 148.962C143.644 157.498 137.142 164.366 128.786 165.77C127.756 165.942 126.696 166.034 125.618 166.034H116.51C103.508 166.034 92.9702 155.494 92.9702 142.494V105.894H53.0342V92.382C53.8622 92.478 54.7022 92.526 55.5542 92.526C59.0262 92.526 62.3102 91.728 65.2322 90.3C72.5982 86.712 77.6742 79.152 77.6742 70.406C77.6742 58.192 67.7722 48.29 55.5542 48.29C54.8142 48.29 54.0822 48.326 53.3602 48.398C55.0942 38.768 63.5182 31.458 73.6522 31.458H165.202Z" fill="url(#paint5_linear_200_9202)"/>
  <path d="M185.819 52.072V105.892H144.589V52.072C144.589 40.688 153.819 31.458 165.205 31.458C170.897 31.458 176.051 33.766 179.781 37.496C183.511 41.226 185.819 46.38 185.819 52.072Z" fill="url(#paint6_linear_200_9202)"/>
  <path d="M116.509 166.034H37.7246C24.7226 166.034 14.1846 155.494 14.1846 142.494V105.894H92.9706V142.494C92.9706 155.496 103.511 166.034 116.511 166.034H116.509Z" fill="url(#paint7_linear_200_9202)"/>
  <path d="M77.6744 70.406C77.6744 79.152 72.6004 86.712 65.2344 90.298C62.3124 91.726 59.0284 92.524 55.5564 92.524C43.3424 92.524 33.4404 82.622 33.4404 70.406C33.4404 65.022 35.3644 60.084 38.5664 56.248C42.6204 51.384 48.7264 48.29 55.5564 48.29C67.7724 48.29 77.6744 58.192 77.6744 70.406Z" fill="url(#paint8_linear_200_9202)"/>
  <path d="M65.7269 78.4779L63.6249 80.5779C62.9249 81.2779 61.7889 81.2779 61.0909 80.5779L55.5569 75.0439L50.0209 80.5779C49.3229 81.2779 48.1869 81.2779 47.4869 80.5779L45.3849 78.4779C44.6829 77.7759 44.6829 76.6419 45.3849 75.9419L50.9189 70.4099L45.3849 64.8739C44.6849 64.1739 44.6829 63.0399 45.3849 62.3399L47.4869 60.2379C48.1869 59.5379 49.3229 59.5379 50.0209 60.2379L55.5569 65.7739L61.0909 60.2379C61.7909 59.5379 62.9269 59.5379 63.6249 60.2379L65.7269 62.3399C66.4289 63.0419 66.4269 64.1759 65.7269 64.8739L60.1929 70.4099L65.7269 75.9419C66.4289 76.6419 66.4289 77.7779 65.7269 78.4779Z" fill="url(#paint9_linear_200_9202)"/>
  <g opacity="0.5">
    <path d="M131.199 59.4461H88.4532C88.1212 59.4461 87.8532 59.1781 87.8532 58.8461C87.8532 58.5141 88.1212 58.2461 88.4532 58.2461H131.199C131.531 58.2461 131.799 58.5141 131.799 58.8461C131.799 59.1781 131.531 59.4461 131.199 59.4461ZM131.199 69.2761H88.4532C88.1212 69.2761 87.8532 69.0081 87.8532 68.6761C87.8532 68.3441 88.1212 68.0761 88.4532 68.0761H131.199C131.531 68.0761 131.799 68.3441 131.799 68.6761C131.799 69.0081 131.531 69.2761 131.199 69.2761ZM131.199 79.1061H88.4532C88.1212 79.1061 87.8532 78.8381 87.8532 78.5061C87.8532 78.1741 88.1212 77.9061 88.4532 77.9061H131.199C131.531 77.9061 131.799 78.1741 131.799 78.5061C131.799 78.8381 131.531 79.1061 131.199 79.1061ZM131.199 88.9361H88.4532C88.1212 88.9361 87.8532 88.6681 87.8532 88.3361C87.8532 88.0041 88.1212 87.7361 88.4532 87.7361H131.199C131.531 87.7361 131.799 88.0041 131.799 88.3361C131.799 88.6681 131.531 88.9361 131.199 88.9361ZM131.199 98.7681H62.0492C61.7172 98.7681 61.4492 98.5001 61.4492 98.1681C61.4492 97.8361 61.7172 97.5681 62.0492 97.5681H131.199C131.531 97.5681 131.799 97.8361 131.799 98.1681C131.799 98.5001 131.531 98.7681 131.199 98.7681ZM119.691 117.558H93.6472C93.3152 117.558 93.0472 117.29 93.0472 116.958C93.0472 116.626 93.3152 116.358 93.6472 116.358H119.691C120.023 116.358 120.291 116.626 120.291 116.958C120.291 117.29 120.023 117.558 119.691 117.558ZM119.691 128.258H93.6472C93.3152 128.258 93.0472 127.99 93.0472 127.658C93.0472 127.326 93.3152 127.058 93.6472 127.058H119.691C120.023 127.058 120.291 127.326 120.291 127.658C120.291 127.99 120.023 128.258 119.691 128.258ZM119.691 138.96H93.6472C93.3152 138.96 93.0472 138.692 93.0472 138.36C93.0472 138.028 93.3152 137.76 93.6472 137.76H119.691C120.023 137.76 120.291 138.028 120.291 138.36C120.291 138.692 120.023 138.96 119.691 138.96Z" fill="#CCD2D6"/>
  </g>
  <path d="M74.3846 152.01H22.6566C22.3246 152.01 22.0566 151.742 22.0566 151.41C22.0566 151.078 22.3246 150.81 22.6566 150.81H74.3846C74.7166 150.81 74.9846 151.078 74.9846 151.41C74.9846 151.742 74.7166 152.01 74.3846 152.01Z" fill="#CCD2D6"/>
  <path d="M166.427 141.104L154.289 151.97L150.613 147.864C153.187 146.99 155.631 145.592 157.787 143.664C159.941 141.736 161.597 139.462 162.753 137L166.427 141.104Z" fill="url(#paint10_linear_200_9202)"/>
  <path d="M156.593 149.908L164.125 143.164L179.378 160.199C180.576 161.537 180.464 163.598 179.124 164.797L176.442 167.198C175.104 168.396 173.044 168.284 171.845 166.945L156.592 149.909L156.593 149.908Z" fill="url(#paint11_linear_200_9202)"/>
  <path d="M159.409 114.264C155.465 109.858 150.067 107.526 144.587 107.344C139.415 107.172 134.171 108.916 130.011 112.642C121.445 120.314 120.715 133.472 128.387 142.04C132.641 146.79 138.583 149.13 144.493 148.964C146.563 148.906 148.627 148.542 150.611 147.864C153.187 146.99 155.631 145.594 157.785 143.664C159.939 141.736 161.595 139.462 162.751 137C166.185 129.668 165.149 120.678 159.407 114.264H159.409ZM155.105 136.23C154.535 137.024 153.869 137.766 153.113 138.444C152.355 139.124 151.543 139.704 150.691 140.186C145.165 143.312 138.017 142.294 133.609 137.37C128.517 131.686 129.001 122.952 134.683 117.864C140.367 112.774 149.101 113.256 154.189 118.94C158.599 123.864 158.825 131.084 155.105 136.23Z" fill="url(#paint12_linear_200_9202)"/>
  <path d="M155.105 136.228C154.535 137.022 153.869 137.764 153.113 138.442C152.355 139.122 151.543 139.702 150.691 140.184C145.165 143.31 138.017 142.292 133.609 137.368C128.517 131.684 129.001 122.95 134.683 117.862C140.367 112.772 149.101 113.254 154.189 118.938C158.599 123.862 158.825 131.082 155.105 136.228Z" fill="url(#paint13_linear_200_9202)"/>
  <path opacity="0.5" d="M25.6152 94.2539C27.2489 94.2539 28.5732 92.9296 28.5732 91.2959C28.5732 89.6622 27.2489 88.3379 25.6152 88.3379C23.9816 88.3379 22.6572 89.6622 22.6572 91.2959C22.6572 92.9296 23.9816 94.2539 25.6152 94.2539Z" fill="url(#paint14_linear_200_9202)"/>
  <path d="M171.521 116.958C172.876 116.958 173.973 115.86 173.973 114.506C173.973 113.152 172.876 112.054 171.521 112.054C170.167 112.054 169.069 113.152 169.069 114.506C169.069 115.86 170.167 116.958 171.521 116.958Z" fill="url(#paint15_linear_200_9202)"/>
  <path d="M170.891 135.41C171.898 135.41 172.713 134.594 172.713 133.588C172.713 132.582 171.898 131.766 170.891 131.766C169.885 131.766 169.069 132.582 169.069 133.588C169.069 134.594 169.885 135.41 170.891 135.41Z" fill="url(#paint16_linear_200_9202)"/>
  <path d="M147.599 168.542C149.262 168.542 150.611 167.194 150.611 165.53C150.611 163.867 149.262 162.518 147.599 162.518C145.935 162.518 144.587 163.867 144.587 165.53C144.587 167.194 145.935 168.542 147.599 168.542Z" fill="url(#paint17_linear_200_9202)"/>
  <path d="M44.2594 41.5101C45.3331 41.5101 46.2034 40.6397 46.2034 39.5661C46.2034 38.4924 45.3331 37.6221 44.2594 37.6221C43.1858 37.6221 42.3154 38.4924 42.3154 39.5661C42.3154 40.6397 43.1858 41.5101 44.2594 41.5101Z" fill="url(#paint18_linear_200_9202)"/>
  <defs>
    <linearGradient id="paint0_linear_200_9202" x1="100" y1="21.2899" x2="100" y2="185.51" gradientUnits="userSpaceOnUse">
      <stop stop-color="#CCD2D6" stop-opacity="0.1"/>
      <stop offset="1" stop-color="#CCD2D6" stop-opacity="0.25"/>
    </linearGradient>
    <linearGradient id="paint1_linear_200_9202" x1="100" y1="-0.000191233" x2="100" y2="185.51" gradientUnits="userSpaceOnUse">
      <stop stop-color="#CCD2D6" stop-opacity="0.1"/>
      <stop offset="1" stop-color="#CCD2D6" stop-opacity="0.25"/>
    </linearGradient>
    <linearGradient id="paint2_linear_200_9202" x1="26.516" y1="21.2898" x2="26.516" y2="185.51" gradientUnits="userSpaceOnUse">
      <stop stop-color="#CCD2D6" stop-opacity="0.1"/>
      <stop offset="1" stop-color="#CCD2D6" stop-opacity="0.25"/>
    </linearGradient>
    <linearGradient id="paint3_linear_200_9202" x1="164.35" y1="21.2909" x2="164.35" y2="185.51" gradientUnits="userSpaceOnUse">
      <stop stop-color="#CCD2D6" stop-opacity="0.1"/>
      <stop offset="1" stop-color="#CCD2D6" stop-opacity="0.25"/>
    </linearGradient>
    <linearGradient id="paint4_linear_200_9202" x1="172.294" y1="21.2897" x2="172.294" y2="185.51" gradientUnits="userSpaceOnUse">
      <stop stop-color="#CCD2D6" stop-opacity="0.1"/>
      <stop offset="1" stop-color="#CCD2D6" stop-opacity="0.25"/>
    </linearGradient>
    <linearGradient id="paint5_linear_200_9202" x1="111.384" y1="63.08" x2="77.6822" y2="160.51" gradientUnits="userSpaceOnUse">
      <stop stop-color="#CCD2D6" stop-opacity="0.25"/>
      <stop offset="1" stop-color="#CCD2D6" stop-opacity="0.5"/>
    </linearGradient>
    <linearGradient id="paint6_linear_200_9202" x1="171.531" y1="87.128" x2="117.913" y2="-5.39999" gradientUnits="userSpaceOnUse">
      <stop stop-color="#CCD2D6" stop-opacity="0.4"/>
      <stop offset="1" stop-color="#CCD2D6" stop-opacity="0.9"/>
    </linearGradient>
    <linearGradient id="paint7_linear_200_9202" x1="14.1826" y1="135.964" x2="116.509" y2="135.964" gradientUnits="userSpaceOnUse">
      <stop stop-color="#CCD2D6" stop-opacity="0.4"/>
      <stop offset="1" stop-color="#CCD2D6" stop-opacity="0.9"/>
    </linearGradient>
    <linearGradient id="paint8_linear_200_9202" x1="47.3684" y1="44.64" x2="64.0644" y2="97.184" gradientUnits="userSpaceOnUse">
      <stop stop-color="#CCD2D6" stop-opacity="0.25"/>
      <stop offset="1" stop-color="#CCD2D6" stop-opacity="0.5"/>
    </linearGradient>
    <linearGradient id="paint9_linear_200_9202" x1="54.9389" y1="58.2419" x2="56.0109" y2="79.3819" gradientUnits="userSpaceOnUse">
      <stop stop-color="#CCD2D6" stop-opacity="0.7"/>
      <stop offset="1" stop-color="#CCD2D6"/>
    </linearGradient>
    <linearGradient id="paint10_linear_200_9202" x1="158.823" y1="147.316" x2="157.667" y2="136.49" gradientUnits="userSpaceOnUse">
      <stop stop-color="#CCD2D6" stop-opacity="0.7"/>
      <stop offset="1" stop-color="#CCD2D6"/>
    </linearGradient>
    <linearGradient id="paint11_linear_200_9202" x1="170.567" y1="159.008" x2="155.589" y2="135.858" gradientUnits="userSpaceOnUse">
      <stop stop-color="#CCD2D6" stop-opacity="0.7"/>
      <stop offset="1" stop-color="#CCD2D6"/>
    </linearGradient>
    <linearGradient id="paint12_linear_200_9202" x1="135.819" y1="107.246" x2="160.329" y2="170.666" gradientUnits="userSpaceOnUse">
      <stop stop-color="#CCD2D6" stop-opacity="0.4"/>
      <stop offset="1" stop-color="#CCD2D6" stop-opacity="0.9"/>
    </linearGradient>
    <linearGradient id="paint13_linear_200_9202" x1="136.745" y1="116.878" x2="160.949" y2="155.024" gradientUnits="userSpaceOnUse">
      <stop stop-color="#CCD2D6" stop-opacity="0.25"/>
      <stop offset="1" stop-color="#CCD2D6" stop-opacity="0.5"/>
    </linearGradient>
    <linearGradient id="paint14_linear_200_9202" x1="60.6032" y1="53.6159" x2="-7.10675" y2="126.534" gradientUnits="userSpaceOnUse">
      <stop stop-color="#CCD2D6" stop-opacity="0.4"/>
      <stop offset="1" stop-color="#CCD2D6" stop-opacity="0.9"/>
    </linearGradient>
    <linearGradient id="paint15_linear_200_9202" x1="150.525" y1="137.116" x2="82.8154" y2="210.034" gradientUnits="userSpaceOnUse">
      <stop stop-color="#CCD2D6" stop-opacity="0.4"/>
      <stop offset="1" stop-color="#CCD2D6" stop-opacity="0.9"/>
    </linearGradient>
    <linearGradient id="paint16_linear_200_9202" x1="159.701" y1="145.636" x2="91.9914" y2="218.556" gradientUnits="userSpaceOnUse">
      <stop stop-color="#CCD2D6" stop-opacity="0.4"/>
      <stop offset="1" stop-color="#CCD2D6" stop-opacity="0.9"/>
    </linearGradient>
    <linearGradient id="paint17_linear_200_9202" x1="163.121" y1="148.812" x2="95.4109" y2="221.732" gradientUnits="userSpaceOnUse">
      <stop stop-color="#CCD2D6" stop-opacity="0.4"/>
      <stop offset="1" stop-color="#CCD2D6" stop-opacity="0.9"/>
    </linearGradient>
    <linearGradient id="paint18_linear_200_9202" x1="44.8214" y1="38.9601" x2="-22.8906" y2="111.88" gradientUnits="userSpaceOnUse">
      <stop stop-color="#CCD2D6" stop-opacity="0.4"/>
      <stop offset="1" stop-color="#CCD2D6" stop-opacity="0.9"/>
    </linearGradient>
  </defs>
</svg>