<svg xmlns="http://www.w3.org/2000/svg" width="40" height="40" viewBox="0 0 40 40" fill="none">
  <path fill-rule="evenodd" clip-rule="evenodd" d="M4 20C4 15.7565 5.68571 11.6869 8.68629 8.68629C11.6869 5.68571 15.7565 4 20 4C24.2435 4 28.3131 5.68571 31.3137 8.68629C34.3143 11.6869 36 15.7565 36 20C36 24.2435 34.3143 28.3131 31.3137 31.3137C28.3131 34.3143 24.2435 36 20 36C15.7565 36 11.6869 34.3143 8.68629 31.3137C5.68571 28.3131 4 24.2435 4 20ZM16.78 14.184C17.0166 14.0544 17.2838 13.991 17.5534 14.0005C17.823 14.01 18.0851 14.0921 18.312 14.238L25.312 18.738C25.5234 18.8738 25.6973 19.0605 25.8177 19.281C25.9381 19.5015 26.0012 19.7488 26.0012 20C26.0012 20.2512 25.9381 20.4985 25.8177 20.719C25.6973 20.9395 25.5234 21.1262 25.312 21.262L18.312 25.762C18.0854 25.9079 17.8236 25.9901 17.5543 25.9998C17.2849 26.0096 17.0179 25.9466 16.7813 25.8174C16.5447 25.6883 16.3473 25.4978 16.2098 25.266C16.0723 25.0341 15.9999 24.7695 16 24.5V15.5C16 15.2308 16.0724 14.9666 16.2096 14.7351C16.3469 14.5035 16.5439 14.3132 16.78 14.184Z" fill="white"/>
</svg>