<svg xmlns="http://www.w3.org/2000/svg" width="296" height="201" viewBox="0 0 296 201" fill="none">
  <path
    d="M88.4696 200.12C88.465 200.12 88.4604 200.12 88.4559 200.12C88.2016 200.111 87.9474 200.101 87.6924 200.089C87.4823 200.08 87.3194 199.903 87.3285 199.694C87.3376 199.484 87.5165 199.32 87.7251 199.331C87.9778 199.341 88.2305 199.351 88.4833 199.36C88.6934 199.368 88.8578 199.544 88.8502 199.754C88.8418 199.958 88.6728 200.12 88.4696 200.12Z"
    fill="#0F766D" />
  <path
    d="M295.208 183.7C295.207 183.7 295.205 183.7 295.204 183.7C294.949 183.697 294.694 183.693 294.44 183.689C294.23 183.685 294.063 183.512 294.066 183.302C294.07 183.095 294.24 182.929 294.447 182.929C294.449 182.929 294.452 182.929 294.454 182.929C294.707 182.934 294.96 182.938 295.213 182.941C295.423 182.944 295.591 183.115 295.589 183.325C295.587 183.533 295.416 183.7 295.208 183.7Z"
    fill="#0F766D" />
  <path
    d="M228.178 112.799C226.613 112.799 225.34 111.529 225.34 109.967C225.34 108.406 226.613 107.136 228.178 107.136C229.743 107.136 231.016 108.406 231.016 109.967C231.016 111.529 229.743 112.799 228.178 112.799ZM228.178 108.297C227.255 108.297 226.504 109.047 226.504 109.967C226.504 110.889 227.255 111.638 228.178 111.638C229.101 111.638 229.852 110.889 229.852 109.967C229.852 109.046 229.101 108.297 228.178 108.297ZM37.3944 54.1547C35.827 54.1547 34.5527 52.8825 34.5527 51.3193C34.5527 49.7554 35.8278 48.4839 37.3944 48.4839C38.961 48.4839 40.236 49.7561 40.236 51.3193C40.236 52.8825 38.961 54.1547 37.3944 54.1547ZM37.3944 49.6468C36.4703 49.6468 35.7182 50.3972 35.7182 51.3193C35.7182 52.2414 36.4703 52.9918 37.3944 52.9918C38.3185 52.9918 39.0706 52.2414 39.0706 51.3193C39.0706 50.3964 38.3185 49.6468 37.3944 49.6468Z"
    fill="#0F766D" />
  <path
    d="M5.05843 175.602H3.56187V173.496C3.56187 173.262 3.37156 173.072 3.1371 173.072C2.90264 173.072 2.71234 173.262 2.71234 173.496V175.602H1.21577C0.981318 175.602 0.791016 175.792 0.791016 176.026C0.791016 176.26 0.981318 176.449 1.21577 176.449H2.71234V178.555C2.71234 178.789 2.90264 178.979 3.1371 178.979C3.37156 178.979 3.56187 178.789 3.56187 178.555V176.449H5.05843C5.29288 176.449 5.48319 176.26 5.48319 176.026C5.48319 175.792 5.29364 175.602 5.05843 175.602ZM209.514 3.91563H207.267V0.75513C207.267 0.404216 206.982 0.119385 206.63 0.119385C206.279 0.119385 205.993 0.404216 205.993 0.75513V3.91563H203.747C203.395 3.91563 203.11 4.20046 203.11 4.55137C203.11 4.90228 203.395 5.18712 203.747 5.18712H205.993V8.34761C205.993 8.69852 206.279 8.98336 206.63 8.98336C206.982 8.98336 207.267 8.69852 207.267 8.34761V5.18712H209.514C209.865 5.18712 210.151 4.90228 210.151 4.55137C210.151 4.20046 209.866 3.91563 209.514 3.91563Z"
    fill="#0F766D" />
  <path
    d="M41.7632 35.0303L34.8178 35.379C34.2895 35.4055 33.8404 34.9999 33.8137 34.4728C33.7871 33.9457 34.1936 33.4976 34.7219 33.471L41.6673 33.1223C42.1956 33.0957 42.6447 33.5014 42.6713 34.0285C42.698 34.5548 42.2915 35.0037 41.7632 35.0303Z"
    fill="#0F766D" />
  <path
    d="M50.134 25.7918C49.6057 25.8184 49.1566 25.4128 49.1299 24.8856L48.7805 17.9555C48.7539 17.4283 49.1604 16.9802 49.6887 16.9536C50.217 16.927 50.6661 17.3326 50.6927 17.8598L51.0421 24.7899C51.068 25.3163 50.6615 25.7652 50.134 25.7918Z"
    fill="#0F766D" />
  <path
    d="M43.8819 28.5477C43.6376 28.5599 43.3879 28.4794 43.1915 28.3024L38.1804 23.7816C37.7883 23.4276 37.7579 22.8238 38.1126 22.4326C38.4673 22.0414 39.0725 22.011 39.4645 22.365L44.4757 26.8858C44.8677 27.2398 44.8981 27.8436 44.5434 28.2348C44.3668 28.43 44.1263 28.5356 43.8819 28.5477Z"
    fill="#0F766D" />
  <path
    d="M214.593 62.6366L203.304 59.6182L205.843 50.1633C206.391 48.1239 205.178 46.0267 203.134 45.4806L108.85 20.2718C106.811 19.7265 104.715 20.9342 104.168 22.969L68.6586 155.2C68.112 157.235 69.3224 159.327 71.3617 159.872L165.648 185.081C167.69 185.627 169.789 184.418 170.337 182.38L188.765 113.754L200.055 116.772C202.759 117.495 205.539 115.893 206.264 113.195L218.177 68.8315C218.903 66.1336 217.298 63.3597 214.593 62.6366Z"
    fill="#115E57" />
  <path
    d="M153.858 166.415L61.7553 171.04C59.6558 171.145 57.8677 169.532 57.7626 167.438L51.2412 38.1295C51.1354 36.0347 52.7515 34.2513 54.851 34.1457L71.0513 33.3322L146.954 29.5208C149.054 29.4152 150.841 31.0285 150.947 33.1233L157.442 161.903L157.468 162.431C157.574 164.526 155.957 166.31 153.858 166.415Z"
    fill="#F2F2F2" />
  <path opacity="0.5"
    d="M157.44 161.903L107.355 158.579L66.6942 155.88C64.5963 155.74 63.0092 153.931 63.1492 151.838L71.05 33.3322L146.953 29.5208C149.052 29.4152 150.84 31.0285 150.946 33.1233L157.44 161.903Z"
    fill="#F2F2F2" />
  <path
    d="M174.967 32.8623L174.67 37.3117L166.354 162.049C166.215 164.142 164.402 165.725 162.305 165.586L110.949 162.178L70.288 159.479C68.1901 159.339 66.6029 157.53 66.743 155.437L75.3555 26.2511C75.4948 24.1578 77.308 22.5741 79.4052 22.7139L101.15 24.1571L133.497 26.3035L171.422 28.8207C173.52 28.9605 175.107 30.7697 174.967 32.8623Z"
    fill="#F7F7F7" />
  <path opacity="0.5"
    d="M174.672 37.3117L166.356 162.049C166.217 164.142 164.404 165.725 162.306 165.586L110.951 162.178L70.6088 151.392C68.7415 150.892 67.6331 148.977 68.134 147.114L101.152 24.157L133.499 26.3035L174.672 37.3117Z"
    fill="#F7F7F7" />
  <path
    d="M162.896 180.281L73.2283 156.307C71.3611 155.808 70.2527 153.892 70.7528 152.029L104.416 26.674C104.96 24.6483 107.046 23.446 109.077 23.9883L198.45 47.883C200.318 48.3821 201.426 50.2976 200.926 52.1608L167.184 177.811C166.683 179.674 164.764 180.78 162.896 180.281Z"
    fill="white" />
  <path
    d="M135.838 125.067C148.553 125.067 158.86 114.782 158.86 102.095C158.86 89.4088 148.553 79.1243 135.838 79.1243C123.124 79.1243 112.816 89.4088 112.816 102.095C112.816 114.782 123.124 125.067 135.838 125.067Z"
    fill="#0F766D" />
  <path
    d="M143.478 73.6529C143.382 73.6271 143.325 73.5283 143.35 73.4326L145.466 65.5523C145.492 65.4566 145.591 65.3996 145.687 65.4254C145.783 65.4512 145.84 65.55 145.815 65.6457L143.698 73.526C143.672 73.6217 143.573 73.6787 143.478 73.6529Z"
    fill="#0F766D" />
  <path
    d="M143.525 74.0051C143.48 74.0051 143.435 73.9991 143.389 73.9869C143.108 73.9117 142.941 73.6231 143.016 73.3428L145.132 65.4625C145.207 65.1822 145.497 65.0158 145.778 65.0903C145.914 65.1267 146.027 65.2133 146.097 65.3356C146.168 65.4571 146.186 65.5992 146.15 65.7344L144.034 73.614C143.971 73.8494 143.758 74.0051 143.525 74.0051Z"
    fill="#0F766D" />
  <path
    d="M125.989 138.766C125.893 138.741 125.836 138.642 125.861 138.546L127.978 130.666C128.003 130.57 128.102 130.513 128.198 130.538C128.294 130.563 128.351 130.663 128.326 130.758L126.21 138.639C126.184 138.735 126.085 138.792 125.989 138.766Z"
    fill="#0F766D" />
  <path
    d="M126.037 139.119C125.991 139.119 125.945 139.113 125.9 139.1C125.619 139.025 125.453 138.737 125.528 138.456L127.644 130.576C127.719 130.296 128.009 130.129 128.29 130.204C128.57 130.279 128.737 130.568 128.662 130.848L126.546 138.728C126.509 138.864 126.422 138.977 126.3 139.047C126.218 139.094 126.128 139.119 126.037 139.119Z"
    fill="#0F766D" />
  <path
    d="M107.114 94.6013L99.2159 92.4898C99.1199 92.4639 99.0628 92.3652 99.088 92.2695C99.1138 92.1738 99.2128 92.1168 99.3087 92.1419L107.206 94.2535C107.302 94.2793 107.359 94.378 107.334 94.4737C107.308 94.5702 107.209 94.6272 107.114 94.6013Z"
    fill="#0F766D" />
  <path
    d="M107.161 94.9539C107.116 94.9539 107.069 94.9478 107.024 94.9356L99.1267 92.8241C98.9905 92.7876 98.8771 92.701 98.807 92.5787C98.737 92.4572 98.718 92.3152 98.7545 92.18C98.8299 91.8997 99.1191 91.7334 99.4 91.8078L107.298 93.9194C107.434 93.9558 107.547 94.0424 107.617 94.1647C107.687 94.2862 107.706 94.4283 107.67 94.5635C107.633 94.6994 107.547 94.8126 107.424 94.8825C107.343 94.9303 107.253 94.9539 107.161 94.9539Z"
    fill="#0F766D" />
  <path
    d="M172.367 112.048L164.47 109.936C164.374 109.91 164.317 109.812 164.342 109.716C164.368 109.62 164.467 109.563 164.563 109.588L172.46 111.7C172.556 111.726 172.613 111.825 172.588 111.92C172.562 112.017 172.463 112.074 172.367 112.048Z"
    fill="#0F766D" />
  <path
    d="M172.416 112.401C172.37 112.401 172.324 112.395 172.279 112.383L164.381 110.271C164.1 110.196 163.933 109.907 164.008 109.627C164.083 109.347 164.373 109.18 164.654 109.255L172.551 111.366C172.687 111.403 172.801 111.49 172.871 111.612C172.942 111.733 172.96 111.875 172.923 112.01C172.887 112.146 172.8 112.26 172.678 112.329C172.597 112.377 172.507 112.401 172.416 112.401Z"
    fill="#0F766D" />
  <path
    d="M103.001 121.161C102.956 121.149 102.916 121.12 102.891 121.078C102.842 120.992 102.871 120.882 102.958 120.832L110.038 116.753C110.124 116.703 110.234 116.732 110.284 116.819C110.334 116.905 110.305 117.015 110.218 117.065L103.138 121.144C103.095 121.168 103.045 121.173 103.001 121.161Z"
    fill="#0F766D" />
  <path
    d="M103.046 121.514C103 121.514 102.954 121.508 102.909 121.496C102.772 121.459 102.659 121.373 102.588 121.25C102.518 121.129 102.499 120.987 102.536 120.852C102.572 120.716 102.659 120.603 102.782 120.533L109.862 116.454C110.114 116.309 110.436 116.395 110.582 116.646C110.652 116.768 110.671 116.91 110.634 117.045C110.598 117.181 110.511 117.294 110.389 117.364L103.308 121.443C103.228 121.49 103.137 121.514 103.046 121.514Z"
    fill="#0F766D" />
  <path
    d="M161.503 87.4569C161.458 87.4448 161.418 87.4159 161.393 87.3734C161.344 87.2875 161.373 87.1774 161.459 87.1273L168.54 83.0485C168.626 82.9991 168.736 83.028 168.786 83.1146C168.836 83.2004 168.807 83.3105 168.72 83.3606L161.64 87.4394C161.596 87.4637 161.548 87.4683 161.503 87.4569Z"
    fill="#0F766D" />
  <path
    d="M161.551 87.8085C161.505 87.8085 161.459 87.8024 161.414 87.7903C161.277 87.7538 161.164 87.6672 161.094 87.5457C160.949 87.2943 161.035 86.9722 161.287 86.8271L168.367 82.7483C168.618 82.6033 168.941 82.6899 169.087 82.9405C169.158 83.062 169.176 83.2041 169.139 83.34C169.103 83.476 169.016 83.5892 168.893 83.6598L161.813 87.7386C161.732 87.7849 161.642 87.8085 161.551 87.8085Z"
    fill="#0F766D" />
  <path
    d="M120.946 76.6127C120.901 76.6005 120.862 76.5716 120.836 76.5291L116.749 69.4638C116.699 69.3779 116.728 69.2678 116.815 69.2177C116.901 69.1683 117.011 69.1972 117.062 69.2837L121.149 76.3491C121.199 76.4349 121.17 76.5451 121.083 76.5952C121.04 76.6195 120.991 76.6241 120.946 76.6127Z"
    fill="#0F766D" />
  <path
    d="M120.994 76.9647C120.948 76.9647 120.903 76.9586 120.857 76.9465C120.721 76.91 120.607 76.8234 120.537 76.7012L116.45 69.6358C116.38 69.5143 116.361 69.3722 116.397 69.237C116.434 69.1011 116.521 68.9879 116.643 68.918C116.894 68.773 117.218 68.8595 117.363 69.1102L121.451 76.1756C121.596 76.427 121.509 76.749 121.258 76.8941C121.175 76.9404 121.085 76.9647 120.994 76.9647Z"
    fill="#0F766D" />
  <path
    d="M154.723 134.992C154.679 134.979 154.639 134.951 154.614 134.908L150.526 127.843C150.477 127.757 150.506 127.647 150.592 127.597C150.678 127.547 150.789 127.576 150.839 127.663L154.927 134.728C154.976 134.814 154.947 134.924 154.86 134.974C154.818 134.998 154.768 135.004 154.723 134.992Z"
    fill="#0F766D" />
  <path
    d="M154.772 135.344C154.727 135.344 154.681 135.338 154.635 135.326H154.634C154.499 135.29 154.385 135.203 154.315 135.082L150.227 128.016C150.157 127.895 150.138 127.753 150.174 127.617C150.211 127.481 150.298 127.368 150.42 127.298C150.672 127.153 150.995 127.239 151.14 127.491L155.228 134.555C155.299 134.677 155.317 134.819 155.281 134.954C155.244 135.09 155.157 135.203 155.035 135.273C154.953 135.321 154.864 135.344 154.772 135.344Z"
    fill="#0F766D" />
  <path
    d="M143.478 73.6529C143.382 73.6271 143.325 73.5283 143.35 73.4326L145.466 65.5523C145.492 65.4566 145.591 65.3996 145.687 65.4254C145.783 65.4512 145.84 65.55 145.815 65.6457L143.698 73.526C143.672 73.6217 143.573 73.6787 143.478 73.6529Z"
    fill="#0F766D" />
  <path
    d="M143.525 74.0051C143.48 74.0051 143.435 73.9991 143.389 73.9869C143.108 73.9117 142.941 73.6231 143.016 73.3428L145.132 65.4625C145.207 65.1822 145.497 65.0158 145.778 65.0903C145.914 65.1267 146.027 65.2133 146.097 65.3356C146.168 65.4571 146.186 65.5992 146.15 65.7344L144.034 73.614C143.971 73.8494 143.758 74.0051 143.525 74.0051Z"
    fill="#0F766D" />
  <path
    d="M125.989 138.766C125.893 138.741 125.836 138.642 125.861 138.546L127.978 130.666C128.003 130.57 128.102 130.513 128.198 130.538C128.294 130.563 128.351 130.663 128.326 130.758L126.21 138.639C126.184 138.735 126.085 138.792 125.989 138.766Z"
    fill="#0F766D" />
  <path
    d="M126.037 139.119C125.991 139.119 125.945 139.113 125.9 139.1C125.619 139.025 125.453 138.737 125.528 138.456L127.644 130.576C127.719 130.296 128.009 130.129 128.29 130.204C128.57 130.279 128.737 130.568 128.662 130.848L126.546 138.728C126.509 138.864 126.422 138.977 126.3 139.047C126.218 139.094 126.128 139.119 126.037 139.119Z"
    fill="#0F766D" />
  <path
    d="M107.114 94.6013L99.2159 92.4898C99.1199 92.4639 99.0628 92.3652 99.088 92.2695C99.1138 92.1738 99.2128 92.1168 99.3087 92.1419L107.206 94.2535C107.302 94.2793 107.359 94.378 107.334 94.4737C107.308 94.5702 107.209 94.6272 107.114 94.6013Z"
    fill="#0F766D" />
  <path
    d="M107.161 94.9539C107.116 94.9539 107.069 94.9478 107.024 94.9356L99.1267 92.8241C98.9905 92.7876 98.8771 92.701 98.807 92.5787C98.737 92.4572 98.718 92.3152 98.7545 92.18C98.8299 91.8997 99.1191 91.7334 99.4 91.8078L107.298 93.9194C107.434 93.9558 107.547 94.0424 107.617 94.1647C107.687 94.2862 107.706 94.4283 107.67 94.5635C107.633 94.6994 107.547 94.8126 107.424 94.8825C107.343 94.9303 107.253 94.9539 107.161 94.9539Z"
    fill="#0F766D" />
  <path
    d="M172.367 112.048L164.47 109.936C164.374 109.91 164.317 109.812 164.342 109.716C164.368 109.62 164.467 109.563 164.563 109.588L172.46 111.7C172.556 111.726 172.613 111.825 172.588 111.92C172.562 112.017 172.463 112.074 172.367 112.048Z"
    fill="#0F766D" />
  <path
    d="M172.416 112.401C172.37 112.401 172.324 112.395 172.279 112.383L164.381 110.271C164.1 110.196 163.933 109.907 164.008 109.627C164.083 109.347 164.373 109.18 164.654 109.255L172.551 111.366C172.687 111.403 172.801 111.49 172.871 111.612C172.942 111.733 172.96 111.875 172.923 112.01C172.887 112.146 172.8 112.26 172.678 112.329C172.597 112.377 172.507 112.401 172.416 112.401Z"
    fill="#0F766D" />
  <path
    d="M103.001 121.161C102.956 121.149 102.916 121.12 102.891 121.078C102.842 120.992 102.871 120.882 102.958 120.832L110.038 116.753C110.124 116.703 110.234 116.732 110.284 116.819C110.334 116.905 110.305 117.015 110.218 117.065L103.138 121.144C103.095 121.168 103.045 121.173 103.001 121.161Z"
    fill="#0F766D" />
  <path
    d="M103.046 121.514C103 121.514 102.954 121.508 102.909 121.496C102.772 121.459 102.659 121.373 102.588 121.25C102.518 121.129 102.499 120.987 102.536 120.852C102.572 120.716 102.659 120.603 102.782 120.533L109.862 116.454C110.114 116.309 110.436 116.395 110.582 116.646C110.652 116.768 110.671 116.91 110.634 117.045C110.598 117.181 110.511 117.294 110.389 117.364L103.308 121.443C103.228 121.49 103.137 121.514 103.046 121.514Z"
    fill="#0F766D" />
  <path
    d="M161.503 87.4569C161.458 87.4448 161.418 87.4159 161.393 87.3734C161.344 87.2875 161.373 87.1774 161.459 87.1273L168.54 83.0485C168.626 82.9991 168.736 83.028 168.786 83.1146C168.836 83.2004 168.807 83.3105 168.72 83.3606L161.64 87.4394C161.596 87.4637 161.548 87.4683 161.503 87.4569Z"
    fill="#0F766D" />
  <path
    d="M161.551 87.8085C161.505 87.8085 161.459 87.8024 161.414 87.7903C161.277 87.7538 161.164 87.6672 161.094 87.5457C160.949 87.2943 161.035 86.9722 161.287 86.8271L168.367 82.7483C168.618 82.6033 168.941 82.6899 169.087 82.9405C169.158 83.062 169.176 83.2041 169.139 83.34C169.103 83.476 169.016 83.5892 168.893 83.6598L161.813 87.7386C161.732 87.7849 161.642 87.8085 161.551 87.8085Z"
    fill="#0F766D" />
  <path
    d="M120.946 76.6127C120.901 76.6005 120.862 76.5716 120.836 76.5291L116.749 69.4638C116.699 69.3779 116.728 69.2678 116.815 69.2177C116.901 69.1683 117.011 69.1972 117.062 69.2837L121.149 76.3491C121.199 76.4349 121.17 76.5451 121.083 76.5952C121.04 76.6195 120.991 76.6241 120.946 76.6127Z"
    fill="#0F766D" />
  <path
    d="M120.994 76.9647C120.948 76.9647 120.903 76.9586 120.857 76.9465C120.721 76.91 120.607 76.8234 120.537 76.7012L116.45 69.6358C116.38 69.5143 116.361 69.3722 116.397 69.237C116.434 69.1011 116.521 68.9879 116.643 68.918C116.894 68.773 117.218 68.8595 117.363 69.1102L121.451 76.1756C121.596 76.427 121.509 76.749 121.258 76.8941C121.175 76.9404 121.085 76.9647 120.994 76.9647Z"
    fill="#0F766D" />
  <path
    d="M154.723 134.992C154.679 134.979 154.639 134.951 154.614 134.908L150.526 127.843C150.477 127.757 150.506 127.647 150.592 127.597C150.678 127.547 150.789 127.576 150.839 127.663L154.927 134.728C154.976 134.814 154.947 134.924 154.86 134.974C154.818 134.998 154.768 135.004 154.723 134.992Z"
    fill="#0F766D" />
  <path
    d="M154.772 135.344C154.727 135.344 154.681 135.338 154.635 135.326H154.634C154.499 135.29 154.385 135.203 154.315 135.082L150.227 128.016C150.157 127.895 150.138 127.753 150.174 127.617C150.211 127.481 150.298 127.368 150.42 127.298C150.672 127.153 150.995 127.239 151.14 127.491L155.228 134.555C155.299 134.677 155.317 134.819 155.281 134.954C155.244 135.09 155.157 135.203 155.035 135.273C154.953 135.321 154.864 135.344 154.772 135.344Z"
    fill="#0F766D" />
  <path
    d="M112.198 84.2747C112.176 84.2686 112.154 84.2587 112.135 84.2435L105.645 79.2943C105.566 79.2343 105.551 79.1211 105.612 79.0421C105.672 78.9631 105.785 78.9479 105.864 79.0087L112.354 83.958C112.434 84.018 112.449 84.1311 112.388 84.2101C112.342 84.2701 112.266 84.2929 112.198 84.2747Z"
    fill="#0F766D" />
  <path
    d="M112.245 84.6273C112.2 84.6273 112.154 84.6212 112.108 84.609C112.041 84.5908 111.98 84.5604 111.925 84.5186L105.435 79.5694C105.205 79.3932 105.16 79.0628 105.336 78.8319C105.422 78.7202 105.546 78.6488 105.685 78.6298C105.824 78.6116 105.963 78.6481 106.075 78.7331L112.565 83.6824C112.796 83.8586 112.841 84.189 112.664 84.4191C112.561 84.5528 112.407 84.6273 112.245 84.6273Z"
    fill="#0F766D" />
  <path
    d="M165.881 125.214C165.859 125.208 165.838 125.198 165.819 125.183L159.329 120.234C159.249 120.174 159.234 120.061 159.295 119.982C159.356 119.903 159.469 119.887 159.548 119.948L166.038 124.897C166.117 124.957 166.132 125.071 166.072 125.15C166.025 125.21 165.95 125.232 165.881 125.214Z"
    fill="#0F766D" />
  <path
    d="M165.926 125.566C165.881 125.566 165.835 125.56 165.789 125.548C165.722 125.53 165.661 125.5 165.605 125.458L159.115 120.509C158.884 120.332 158.84 120.002 159.016 119.771C159.101 119.659 159.225 119.588 159.365 119.569C159.504 119.551 159.642 119.587 159.754 119.672L166.244 124.622C166.356 124.707 166.427 124.83 166.446 124.969C166.464 125.108 166.428 125.247 166.343 125.358C166.243 125.492 166.088 125.566 165.926 125.566Z"
    fill="#0F766D" />
  <path
    d="M112.797 132.291C112.775 132.285 112.754 132.275 112.735 132.26C112.656 132.2 112.641 132.087 112.701 132.008L117.662 125.532C117.722 125.453 117.835 125.438 117.914 125.499C117.993 125.559 118.009 125.672 117.948 125.751L112.988 132.227C112.942 132.286 112.866 132.31 112.797 132.291Z"
    fill="#0F766D" />
  <path
    d="M112.846 132.643C112.801 132.643 112.754 132.637 112.709 132.625H112.708C112.641 132.607 112.58 132.576 112.525 132.535C112.294 132.358 112.25 132.028 112.426 131.798L117.386 125.322C117.471 125.21 117.595 125.139 117.735 125.12C117.874 125.101 118.013 125.138 118.125 125.223C118.236 125.308 118.308 125.432 118.327 125.571C118.346 125.71 118.309 125.848 118.223 125.96L113.263 132.436C113.162 132.57 113.008 132.643 112.846 132.643Z"
    fill="#0F766D" />
  <path
    d="M153.829 78.7237C153.807 78.7177 153.785 78.7078 153.766 78.6926C153.687 78.6326 153.672 78.5194 153.733 78.4404L158.693 71.9645C158.753 71.8855 158.866 71.8703 158.946 71.9311C159.025 71.9911 159.04 72.1043 158.979 72.1832L154.019 78.6592C153.972 78.7192 153.897 78.742 153.829 78.7237Z"
    fill="#0F766D" />
  <path
    d="M153.874 79.0763C153.828 79.0763 153.782 79.0702 153.737 79.0581C153.67 79.0406 153.608 79.0102 153.552 78.9677C153.322 78.7915 153.278 78.461 153.453 78.2309L158.413 71.755C158.499 71.6433 158.623 71.5719 158.762 71.5529C158.902 71.5347 159.04 71.5712 159.152 71.6562C159.264 71.7413 159.335 71.8651 159.354 72.0041C159.373 72.1431 159.336 72.2813 159.251 72.393L154.291 78.8689C154.19 79.0019 154.035 79.0763 153.874 79.0763Z"
    fill="#0F766D" />
  <path
    d="M140.807 139.722C140.739 139.704 140.685 139.646 140.675 139.572L139.593 131.493C139.58 131.395 139.65 131.304 139.748 131.291C139.847 131.278 139.937 131.348 139.95 131.446L141.032 139.524C141.045 139.623 140.976 139.713 140.878 139.726C140.854 139.73 140.83 139.728 140.807 139.722Z"
    fill="#0F766D" />
  <path
    d="M140.855 140.074C140.809 140.074 140.764 140.068 140.719 140.056H140.718C140.512 140.001 140.361 139.829 140.332 139.618L139.251 131.54C139.232 131.401 139.269 131.262 139.354 131.151C139.439 131.039 139.564 130.968 139.703 130.949C139.842 130.93 139.981 130.967 140.093 131.052C140.205 131.137 140.276 131.261 140.295 131.4L141.377 139.478C141.416 139.766 141.212 140.031 140.925 140.069C140.901 140.072 140.877 140.074 140.855 140.074Z"
    fill="#0F766D" />
  <path
    d="M131.856 72.896C131.788 72.8777 131.735 72.82 131.724 72.7456L130.642 64.667C130.629 64.5682 130.699 64.4778 130.797 64.4649C130.896 64.452 130.986 64.5211 130.999 64.6191L132.081 72.6977C132.094 72.7965 132.025 72.8869 131.926 72.8998C131.902 72.9036 131.878 72.9013 131.856 72.896Z"
    fill="#0F766D" />
  <path
    d="M131.903 73.2478C131.857 73.2478 131.811 73.2417 131.767 73.2303C131.561 73.1749 131.409 73.0032 131.381 72.792L130.3 64.7134C130.261 64.4263 130.464 64.1612 130.752 64.1225C130.892 64.1043 131.03 64.1407 131.142 64.2258C131.254 64.3109 131.326 64.4347 131.345 64.5737L132.426 72.6523C132.464 72.9402 132.262 73.2045 131.973 73.2432C131.95 73.2462 131.926 73.2478 131.903 73.2478Z"
    fill="#0F766D" />
  <path
    d="M98.2571 107.274C98.1885 107.255 98.1353 107.198 98.1246 107.123C98.1117 107.025 98.1809 106.934 98.2791 106.921L106.375 105.842C106.474 105.829 106.565 105.898 106.578 105.996C106.591 106.095 106.522 106.185 106.423 106.198L98.3271 107.277C98.3035 107.282 98.2799 107.28 98.2571 107.274Z"
    fill="#0F766D" />
  <path
    d="M98.3034 107.626C98.2577 107.626 98.212 107.62 98.1679 107.609C97.9616 107.553 97.8101 107.382 97.7819 107.17C97.7439 106.883 97.9464 106.618 98.2349 106.58L106.331 105.5C106.471 105.481 106.609 105.518 106.721 105.604C106.833 105.689 106.904 105.812 106.923 105.951C106.962 106.238 106.759 106.504 106.471 106.542L98.3742 107.622C98.3498 107.625 98.327 107.626 98.3034 107.626Z"
    fill="#0F766D" />
  <path
    d="M165.228 98.3449C165.159 98.3267 165.105 98.269 165.095 98.1945C165.082 98.0958 165.152 98.0054 165.25 97.9925L173.346 96.9132C173.445 96.9003 173.536 96.9694 173.549 97.0674C173.562 97.1661 173.492 97.2565 173.394 97.2694L165.298 98.3487C165.274 98.3525 165.251 98.351 165.228 98.3449Z"
    fill="#0F766D" />
  <path
    d="M165.275 98.698C165.229 98.698 165.183 98.6919 165.139 98.6797C164.932 98.6243 164.781 98.4526 164.753 98.2415C164.734 98.1025 164.771 97.9643 164.856 97.8526C164.941 97.7409 165.066 97.6695 165.205 97.6506L173.301 96.5712C173.441 96.553 173.579 96.5895 173.691 96.6745C173.803 96.7596 173.874 96.8834 173.893 97.0224C173.912 97.1614 173.875 97.2996 173.79 97.4113C173.705 97.523 173.581 97.5944 173.441 97.6133L165.345 98.6927C165.322 98.6965 165.298 98.698 165.275 98.698Z"
    fill="#0F766D" />
  <path
    d="M112.198 84.2747C112.176 84.2686 112.154 84.2587 112.135 84.2435L105.645 79.2943C105.566 79.2343 105.551 79.1211 105.612 79.0421C105.672 78.9631 105.785 78.9479 105.864 79.0087L112.354 83.958C112.434 84.018 112.449 84.1311 112.388 84.2101C112.342 84.2701 112.266 84.2929 112.198 84.2747Z"
    fill="#0F766D" />
  <path
    d="M112.245 84.6273C112.2 84.6273 112.154 84.6212 112.108 84.609C112.041 84.5908 111.98 84.5604 111.925 84.5186L105.435 79.5694C105.205 79.3932 105.16 79.0628 105.336 78.8319C105.422 78.7202 105.546 78.6488 105.685 78.6298C105.824 78.6116 105.963 78.6481 106.075 78.7331L112.565 83.6824C112.796 83.8586 112.841 84.189 112.664 84.4191C112.561 84.5528 112.407 84.6273 112.245 84.6273Z"
    fill="#0F766D" />
  <path
    d="M165.881 125.214C165.859 125.208 165.838 125.198 165.819 125.183L159.329 120.234C159.249 120.174 159.234 120.061 159.295 119.982C159.356 119.903 159.469 119.887 159.548 119.948L166.038 124.897C166.117 124.957 166.132 125.071 166.072 125.15C166.025 125.21 165.95 125.232 165.881 125.214Z"
    fill="#0F766D" />
  <path
    d="M165.926 125.566C165.881 125.566 165.835 125.56 165.789 125.548C165.722 125.53 165.661 125.5 165.605 125.458L159.115 120.509C158.884 120.332 158.84 120.002 159.016 119.771C159.101 119.659 159.225 119.588 159.365 119.569C159.504 119.551 159.642 119.587 159.754 119.672L166.244 124.622C166.356 124.707 166.427 124.83 166.446 124.969C166.464 125.108 166.428 125.247 166.343 125.358C166.243 125.492 166.088 125.566 165.926 125.566Z"
    fill="#0F766D" />
  <path
    d="M112.797 132.291C112.775 132.285 112.754 132.275 112.735 132.26C112.656 132.2 112.641 132.087 112.701 132.008L117.662 125.532C117.722 125.453 117.835 125.438 117.914 125.499C117.993 125.559 118.009 125.672 117.948 125.751L112.988 132.227C112.942 132.286 112.866 132.31 112.797 132.291Z"
    fill="#0F766D" />
  <path
    d="M112.846 132.643C112.801 132.643 112.754 132.637 112.709 132.625H112.708C112.641 132.607 112.58 132.576 112.525 132.535C112.294 132.358 112.25 132.028 112.426 131.798L117.386 125.322C117.471 125.21 117.595 125.139 117.735 125.12C117.874 125.101 118.013 125.138 118.125 125.223C118.236 125.308 118.308 125.432 118.327 125.571C118.346 125.71 118.309 125.848 118.223 125.96L113.263 132.436C113.162 132.57 113.008 132.643 112.846 132.643Z"
    fill="#0F766D" />
  <path
    d="M153.829 78.7237C153.807 78.7177 153.785 78.7078 153.766 78.6926C153.687 78.6326 153.672 78.5194 153.733 78.4404L158.693 71.9645C158.753 71.8855 158.866 71.8703 158.946 71.9311C159.025 71.9911 159.04 72.1043 158.979 72.1832L154.019 78.6592C153.972 78.7192 153.897 78.742 153.829 78.7237Z"
    fill="#0F766D" />
  <path
    d="M153.874 79.0763C153.828 79.0763 153.782 79.0702 153.737 79.0581C153.67 79.0406 153.608 79.0102 153.552 78.9677C153.322 78.7915 153.278 78.461 153.453 78.2309L158.413 71.755C158.499 71.6433 158.623 71.5719 158.762 71.5529C158.902 71.5347 159.04 71.5712 159.152 71.6562C159.264 71.7413 159.335 71.8651 159.354 72.0041C159.373 72.1431 159.336 72.2813 159.251 72.393L154.291 78.8689C154.19 79.0019 154.035 79.0763 153.874 79.0763Z"
    fill="#0F766D" />
  <path
    d="M140.807 139.722C140.739 139.704 140.685 139.646 140.675 139.572L139.593 131.493C139.58 131.395 139.65 131.304 139.748 131.291C139.847 131.278 139.937 131.348 139.95 131.446L141.032 139.524C141.045 139.623 140.976 139.713 140.878 139.726C140.854 139.73 140.83 139.728 140.807 139.722Z"
    fill="#0F766D" />
  <path
    d="M140.855 140.074C140.809 140.074 140.764 140.068 140.719 140.056H140.718C140.512 140.001 140.361 139.829 140.332 139.618L139.251 131.54C139.232 131.401 139.269 131.262 139.354 131.151C139.439 131.039 139.564 130.968 139.703 130.949C139.842 130.93 139.981 130.967 140.093 131.052C140.205 131.137 140.276 131.261 140.295 131.4L141.377 139.478C141.416 139.766 141.212 140.031 140.925 140.069C140.901 140.072 140.877 140.074 140.855 140.074Z"
    fill="#0F766D" />
  <path
    d="M131.856 72.896C131.788 72.8777 131.735 72.82 131.724 72.7456L130.642 64.667C130.629 64.5682 130.699 64.4778 130.797 64.4649C130.896 64.452 130.986 64.5211 130.999 64.6191L132.081 72.6977C132.094 72.7965 132.025 72.8869 131.926 72.8998C131.902 72.9036 131.878 72.9013 131.856 72.896Z"
    fill="#0F766D" />
  <path
    d="M131.903 73.2478C131.857 73.2478 131.811 73.2417 131.767 73.2303C131.561 73.1749 131.409 73.0032 131.381 72.792L130.3 64.7134C130.261 64.4263 130.464 64.1612 130.752 64.1225C130.892 64.1043 131.03 64.1407 131.142 64.2258C131.254 64.3109 131.326 64.4347 131.345 64.5737L132.426 72.6523C132.464 72.9402 132.262 73.2045 131.973 73.2432C131.95 73.2462 131.926 73.2478 131.903 73.2478Z"
    fill="#0F766D" />
  <path
    d="M98.2571 107.274C98.1885 107.255 98.1353 107.198 98.1246 107.123C98.1117 107.025 98.1809 106.934 98.2791 106.921L106.375 105.842C106.474 105.829 106.565 105.898 106.578 105.996C106.591 106.095 106.522 106.185 106.423 106.198L98.3271 107.277C98.3035 107.282 98.2799 107.28 98.2571 107.274Z"
    fill="#0F766D" />
  <path
    d="M98.3034 107.626C98.2577 107.626 98.212 107.62 98.1679 107.609C97.9616 107.553 97.8101 107.382 97.7819 107.17C97.7439 106.883 97.9464 106.618 98.2349 106.58L106.331 105.5C106.471 105.481 106.609 105.518 106.721 105.604C106.833 105.689 106.904 105.812 106.923 105.951C106.962 106.238 106.759 106.504 106.471 106.542L98.3742 107.622C98.3498 107.625 98.327 107.626 98.3034 107.626Z"
    fill="#0F766D" />
  <path
    d="M165.228 98.3449C165.159 98.3267 165.105 98.269 165.095 98.1945C165.082 98.0958 165.152 98.0054 165.25 97.9925L173.346 96.9132C173.445 96.9003 173.536 96.9694 173.549 97.0674C173.562 97.1661 173.492 97.2565 173.394 97.2694L165.298 98.3487C165.274 98.3525 165.251 98.351 165.228 98.3449Z"
    fill="#0F766D" />
  <path
    d="M165.275 98.698C165.229 98.698 165.183 98.6919 165.139 98.6797C164.932 98.6243 164.781 98.4526 164.753 98.2415C164.734 98.1025 164.771 97.9643 164.856 97.8526C164.941 97.7409 165.066 97.6695 165.205 97.6506L173.301 96.5712C173.441 96.553 173.579 96.5895 173.691 96.6745C173.803 96.7596 173.874 96.8834 173.893 97.0224C173.912 97.1614 173.875 97.2996 173.79 97.4113C173.705 97.523 173.581 97.5944 173.441 97.6133L165.345 98.6927C165.322 98.6965 165.298 98.698 165.275 98.698Z"
    fill="#0F766D" />
  <path
    d="M129.447 109.966C129.357 109.966 129.267 109.955 129.178 109.93C128.911 109.859 128.684 109.685 128.546 109.447L123.079 99.9977C122.792 99.501 122.962 98.8668 123.459 98.5796C123.957 98.2933 124.593 98.4634 124.881 98.9594L129.828 107.51L149.182 96.3602C149.68 96.0739 150.315 96.244 150.603 96.74C150.89 97.2368 150.72 97.871 150.222 98.1581L129.968 109.826C129.807 109.919 129.628 109.966 129.447 109.966Z"
    fill="white" />
</svg>