<svg fill="#000000" version="1.1" xmlns="http://www.w3.org/2000/svg" xmlns:xlink="http://www.w3.org/1999/xlink" width="20px" height="20px" viewBox="0 0 600 600" enable-background="new 0 0 600 600" xml:space="preserve" id="add-edit-variant-image-206" style="cursor: pointer;">
                                                <path d="M256,0C114.609,0,0,114.609,0,256s114.609,256,256,256s256-114.609,256-256S397.391,0,256,0z M256,472
                                                    c-119.297,0-216-96.703-216-216S136.703,40,256,40s216,96.703,216,216S375.297,472,256,472z"></path>
                                                <g>
                                                    <polygon fill-rule="evenodd" clip-rule="evenodd" points="352,320 352,352 256,352 160,352 160,320 128,320 128,384 384,384 
                                                        384,320 	"></polygon>
                                                    <polygon fill-rule="evenodd" clip-rule="evenodd" points="240.047,208 240.047,336 272.047,336 272.047,208 320.047,208 
                                                        256.047,128 192.047,208 	"></polygon>
                                                </g>
                                            </svg>